%TF.GenerationSoftware,KiCad,Pcbnew,8.0.8+dfsg-1*%
%TF.CreationDate,2025-02-21T17:28:06+00:00*%
%TF.ProjectId,a4_to_adf10_econet,61345f74-6f5f-4616-9466-31305f65636f,rev?*%
%TF.SameCoordinates,Original*%
%TF.FileFunction,Drillmap*%
%TF.FilePolarity,Positive*%
%FSLAX45Y45*%
G04 Gerber Fmt 4.5, Leading zero omitted, Abs format (unit mm)*
G04 Created by KiCad (PCBNEW 8.0.8+dfsg-1) date 2025-02-21 17:28:06*
%MOMM*%
%LPD*%
G01*
G04 APERTURE LIST*
%ADD10C,0.200000*%
G04 APERTURE END LIST*
D10*
X12100000Y-2980000D02*
X11300000Y-2980000D01*
X11300000Y-6980000D01*
X12100000Y-6980000D01*
X12100000Y-7960000D01*
X1900000Y-7960000D01*
X1350000Y-7960000D01*
X1350000Y-6980000D01*
X350000Y-6980000D01*
X350000Y-6280000D01*
X-10000Y-6280000D01*
X-10000Y-5080000D01*
X350000Y-5080000D01*
X350000Y-4700000D01*
X0Y-4700000D01*
X0Y-4180000D01*
X350000Y-4180000D01*
X350000Y-3480000D01*
X1350000Y-3480000D01*
X1350000Y-2000000D01*
X12100000Y-2000000D01*
X12100000Y-2980000D01*
X240777Y-8281484D02*
X240777Y-8081484D01*
X240777Y-8081484D02*
X288396Y-8081484D01*
X288396Y-8081484D02*
X316967Y-8091008D01*
X316967Y-8091008D02*
X336015Y-8110055D01*
X336015Y-8110055D02*
X345539Y-8129103D01*
X345539Y-8129103D02*
X355062Y-8167198D01*
X355062Y-8167198D02*
X355062Y-8195769D01*
X355062Y-8195769D02*
X345539Y-8233865D01*
X345539Y-8233865D02*
X336015Y-8252912D01*
X336015Y-8252912D02*
X316967Y-8271960D01*
X316967Y-8271960D02*
X288396Y-8281484D01*
X288396Y-8281484D02*
X240777Y-8281484D01*
X440777Y-8281484D02*
X440777Y-8148150D01*
X440777Y-8186246D02*
X450301Y-8167198D01*
X450301Y-8167198D02*
X459824Y-8157674D01*
X459824Y-8157674D02*
X478872Y-8148150D01*
X478872Y-8148150D02*
X497920Y-8148150D01*
X564586Y-8281484D02*
X564586Y-8148150D01*
X564586Y-8081484D02*
X555063Y-8091008D01*
X555063Y-8091008D02*
X564586Y-8100531D01*
X564586Y-8100531D02*
X574110Y-8091008D01*
X574110Y-8091008D02*
X564586Y-8081484D01*
X564586Y-8081484D02*
X564586Y-8100531D01*
X688396Y-8281484D02*
X669348Y-8271960D01*
X669348Y-8271960D02*
X659824Y-8252912D01*
X659824Y-8252912D02*
X659824Y-8081484D01*
X793158Y-8281484D02*
X774110Y-8271960D01*
X774110Y-8271960D02*
X764586Y-8252912D01*
X764586Y-8252912D02*
X764586Y-8081484D01*
X1021729Y-8281484D02*
X1021729Y-8081484D01*
X1021729Y-8081484D02*
X1088396Y-8224341D01*
X1088396Y-8224341D02*
X1155063Y-8081484D01*
X1155063Y-8081484D02*
X1155063Y-8281484D01*
X1336015Y-8281484D02*
X1336015Y-8176722D01*
X1336015Y-8176722D02*
X1326491Y-8157674D01*
X1326491Y-8157674D02*
X1307444Y-8148150D01*
X1307444Y-8148150D02*
X1269348Y-8148150D01*
X1269348Y-8148150D02*
X1250301Y-8157674D01*
X1336015Y-8271960D02*
X1316967Y-8281484D01*
X1316967Y-8281484D02*
X1269348Y-8281484D01*
X1269348Y-8281484D02*
X1250301Y-8271960D01*
X1250301Y-8271960D02*
X1240777Y-8252912D01*
X1240777Y-8252912D02*
X1240777Y-8233865D01*
X1240777Y-8233865D02*
X1250301Y-8214817D01*
X1250301Y-8214817D02*
X1269348Y-8205293D01*
X1269348Y-8205293D02*
X1316967Y-8205293D01*
X1316967Y-8205293D02*
X1336015Y-8195769D01*
X1431253Y-8148150D02*
X1431253Y-8348150D01*
X1431253Y-8157674D02*
X1450301Y-8148150D01*
X1450301Y-8148150D02*
X1488396Y-8148150D01*
X1488396Y-8148150D02*
X1507443Y-8157674D01*
X1507443Y-8157674D02*
X1516967Y-8167198D01*
X1516967Y-8167198D02*
X1526491Y-8186246D01*
X1526491Y-8186246D02*
X1526491Y-8243388D01*
X1526491Y-8243388D02*
X1516967Y-8262436D01*
X1516967Y-8262436D02*
X1507443Y-8271960D01*
X1507443Y-8271960D02*
X1488396Y-8281484D01*
X1488396Y-8281484D02*
X1450301Y-8281484D01*
X1450301Y-8281484D02*
X1431253Y-8271960D01*
X1612205Y-8262436D02*
X1621729Y-8271960D01*
X1621729Y-8271960D02*
X1612205Y-8281484D01*
X1612205Y-8281484D02*
X1602682Y-8271960D01*
X1602682Y-8271960D02*
X1612205Y-8262436D01*
X1612205Y-8262436D02*
X1612205Y-8281484D01*
X1612205Y-8157674D02*
X1621729Y-8167198D01*
X1621729Y-8167198D02*
X1612205Y-8176722D01*
X1612205Y-8176722D02*
X1602682Y-8167198D01*
X1602682Y-8167198D02*
X1612205Y-8157674D01*
X1612205Y-8157674D02*
X1612205Y-8176722D01*
M02*
