%TF.GenerationSoftware,KiCad,Pcbnew,8.0.8+dfsg-1*%
%TF.CreationDate,2025-02-21T17:28:06+00:00*%
%TF.ProjectId,a4_to_adf10_econet,61345f74-6f5f-4616-9466-31305f65636f,rev?*%
%TF.SameCoordinates,Original*%
%TF.FileFunction,Drillmap*%
%TF.FilePolarity,Positive*%
%FSLAX45Y45*%
G04 Gerber Fmt 4.5, Leading zero omitted, Abs format (unit mm)*
G04 Created by KiCad (PCBNEW 8.0.8+dfsg-1) date 2025-02-21 17:28:06*
%MOMM*%
%LPD*%
G01*
G04 APERTURE LIST*
%ADD10C,0.200000*%
%ADD11C,0.100000*%
%ADD12C,0.150000*%
%ADD13C,0.160000*%
%ADD14C,0.250000*%
%ADD15C,0.350000*%
G04 APERTURE END LIST*
D10*
X12100000Y-2980000D02*
X11300000Y-2980000D01*
X11300000Y-6980000D01*
X12100000Y-6980000D01*
X12100000Y-7960000D01*
X1900000Y-7960000D01*
X1350000Y-7960000D01*
X1350000Y-6980000D01*
X350000Y-6980000D01*
X350000Y-6280000D01*
X-10000Y-6280000D01*
X-10000Y-5080000D01*
X350000Y-5080000D01*
X350000Y-4700000D01*
X0Y-4700000D01*
X0Y-4180000D01*
X350000Y-4180000D01*
X350000Y-3480000D01*
X1350000Y-3480000D01*
X1350000Y-2000000D01*
X12100000Y-2000000D01*
X12100000Y-2980000D01*
D11*
X5634999Y-2811999D02*
X5684999Y-2861999D01*
X5684999Y-2811999D02*
X5634999Y-2861999D01*
X5656000Y-3378750D02*
X5706000Y-3428750D01*
X5706000Y-3378750D02*
X5656000Y-3428750D01*
X6300000Y-6965000D02*
X6350000Y-7015000D01*
X6350000Y-6965000D02*
X6300000Y-7015000D01*
X6304000Y-4404000D02*
X6354000Y-4454000D01*
X6354000Y-4404000D02*
X6304000Y-4454000D01*
X6325000Y-5995000D02*
X6375000Y-6045000D01*
X6375000Y-5995000D02*
X6325000Y-6045000D01*
X6346262Y-6713262D02*
X6396262Y-6763262D01*
X6396262Y-6713262D02*
X6346262Y-6763262D01*
X6385000Y-2670000D02*
X6435000Y-2720000D01*
X6435000Y-2670000D02*
X6385000Y-2720000D01*
X6670000Y-3145000D02*
X6720000Y-3195000D01*
X6720000Y-3145000D02*
X6670000Y-3195000D01*
X7017000Y-4879000D02*
X7067000Y-4929000D01*
X7067000Y-4879000D02*
X7017000Y-4929000D01*
X7045000Y-4264000D02*
X7095000Y-4314000D01*
X7095000Y-4264000D02*
X7045000Y-4314000D01*
X7170000Y-5729000D02*
X7220000Y-5779000D01*
X7220000Y-5729000D02*
X7170000Y-5779000D01*
X7710000Y-2200000D02*
X7760000Y-2250000D01*
X7760000Y-2200000D02*
X7710000Y-2250000D01*
X7778000Y-6981000D02*
X7828000Y-7031000D01*
X7828000Y-6981000D02*
X7778000Y-7031000D01*
X7949000Y-3251000D02*
X7999000Y-3301000D01*
X7999000Y-3251000D02*
X7949000Y-3301000D01*
X7955000Y-4835000D02*
X8005000Y-4885000D01*
X8005000Y-4835000D02*
X7955000Y-4885000D01*
X7955000Y-5095000D02*
X8005000Y-5145000D01*
X8005000Y-5095000D02*
X7955000Y-5145000D01*
X7973000Y-3551000D02*
X8023000Y-3601000D01*
X8023000Y-3551000D02*
X7973000Y-3601000D01*
X8045000Y-5795000D02*
X8095000Y-5845000D01*
X8095000Y-5795000D02*
X8045000Y-5845000D01*
X8208000Y-5553813D02*
X8258000Y-5603813D01*
X8258000Y-5553813D02*
X8208000Y-5603813D01*
X8220000Y-5685000D02*
X8270000Y-5735000D01*
X8270000Y-5685000D02*
X8220000Y-5735000D01*
X8359127Y-3548774D02*
X8409127Y-3598774D01*
X8409127Y-3548774D02*
X8359127Y-3598774D01*
X8373000Y-4245000D02*
X8423000Y-4295000D01*
X8423000Y-4245000D02*
X8373000Y-4295000D01*
X8393000Y-5460000D02*
X8443000Y-5510000D01*
X8443000Y-5460000D02*
X8393000Y-5510000D01*
X8397000Y-5142000D02*
X8447000Y-5192000D01*
X8447000Y-5142000D02*
X8397000Y-5192000D01*
X8398000Y-4045000D02*
X8448000Y-4095000D01*
X8448000Y-4045000D02*
X8398000Y-4095000D01*
X8419000Y-4728000D02*
X8469000Y-4778000D01*
X8469000Y-4728000D02*
X8419000Y-4778000D01*
X8510000Y-6304000D02*
X8560000Y-6354000D01*
X8560000Y-6304000D02*
X8510000Y-6354000D01*
X8616000Y-2265000D02*
X8666000Y-2315000D01*
X8666000Y-2265000D02*
X8616000Y-2315000D01*
X9167125Y-5945000D02*
X9217125Y-5995000D01*
X9217125Y-5945000D02*
X9167125Y-5995000D01*
X10150000Y-5312000D02*
X10200000Y-5362000D01*
X10200000Y-5312000D02*
X10150000Y-5362000D01*
X9060000Y-2670000D02*
G75*
G02*
X8980000Y-2670000I-40000J0D01*
G01*
X8980000Y-2670000D02*
G75*
G02*
X9060000Y-2670000I40000J0D01*
G01*
X9060000Y-2870000D02*
G75*
G02*
X8980000Y-2870000I-40000J0D01*
G01*
X8980000Y-2870000D02*
G75*
G02*
X9060000Y-2870000I40000J0D01*
G01*
X9060000Y-3070000D02*
G75*
G02*
X8980000Y-3070000I-40000J0D01*
G01*
X8980000Y-3070000D02*
G75*
G02*
X9060000Y-3070000I40000J0D01*
G01*
X9060000Y-3270000D02*
G75*
G02*
X8980000Y-3270000I-40000J0D01*
G01*
X8980000Y-3270000D02*
G75*
G02*
X9060000Y-3270000I40000J0D01*
G01*
X9060000Y-3470000D02*
G75*
G02*
X8980000Y-3470000I-40000J0D01*
G01*
X8980000Y-3470000D02*
G75*
G02*
X9060000Y-3470000I40000J0D01*
G01*
X9060000Y-3670000D02*
G75*
G02*
X8980000Y-3670000I-40000J0D01*
G01*
X8980000Y-3670000D02*
G75*
G02*
X9060000Y-3670000I40000J0D01*
G01*
X9060000Y-3870000D02*
G75*
G02*
X8980000Y-3870000I-40000J0D01*
G01*
X8980000Y-3870000D02*
G75*
G02*
X9060000Y-3870000I40000J0D01*
G01*
X9060000Y-4070000D02*
G75*
G02*
X8980000Y-4070000I-40000J0D01*
G01*
X8980000Y-4070000D02*
G75*
G02*
X9060000Y-4070000I40000J0D01*
G01*
X9060000Y-4270000D02*
G75*
G02*
X8980000Y-4270000I-40000J0D01*
G01*
X8980000Y-4270000D02*
G75*
G02*
X9060000Y-4270000I40000J0D01*
G01*
X9060000Y-4470000D02*
G75*
G02*
X8980000Y-4470000I-40000J0D01*
G01*
X8980000Y-4470000D02*
G75*
G02*
X9060000Y-4470000I40000J0D01*
G01*
X9060000Y-4670000D02*
G75*
G02*
X8980000Y-4670000I-40000J0D01*
G01*
X8980000Y-4670000D02*
G75*
G02*
X9060000Y-4670000I40000J0D01*
G01*
X9060000Y-4870000D02*
G75*
G02*
X8980000Y-4870000I-40000J0D01*
G01*
X8980000Y-4870000D02*
G75*
G02*
X9060000Y-4870000I40000J0D01*
G01*
X9060000Y-5070000D02*
G75*
G02*
X8980000Y-5070000I-40000J0D01*
G01*
X8980000Y-5070000D02*
G75*
G02*
X9060000Y-5070000I40000J0D01*
G01*
X9260000Y-2670000D02*
G75*
G02*
X9180000Y-2670000I-40000J0D01*
G01*
X9180000Y-2670000D02*
G75*
G02*
X9260000Y-2670000I40000J0D01*
G01*
X9260000Y-2870000D02*
G75*
G02*
X9180000Y-2870000I-40000J0D01*
G01*
X9180000Y-2870000D02*
G75*
G02*
X9260000Y-2870000I40000J0D01*
G01*
X9260000Y-3070000D02*
G75*
G02*
X9180000Y-3070000I-40000J0D01*
G01*
X9180000Y-3070000D02*
G75*
G02*
X9260000Y-3070000I40000J0D01*
G01*
X9260000Y-3270000D02*
G75*
G02*
X9180000Y-3270000I-40000J0D01*
G01*
X9180000Y-3270000D02*
G75*
G02*
X9260000Y-3270000I40000J0D01*
G01*
X9260000Y-3470000D02*
G75*
G02*
X9180000Y-3470000I-40000J0D01*
G01*
X9180000Y-3470000D02*
G75*
G02*
X9260000Y-3470000I40000J0D01*
G01*
X9260000Y-3670000D02*
G75*
G02*
X9180000Y-3670000I-40000J0D01*
G01*
X9180000Y-3670000D02*
G75*
G02*
X9260000Y-3670000I40000J0D01*
G01*
X9260000Y-3870000D02*
G75*
G02*
X9180000Y-3870000I-40000J0D01*
G01*
X9180000Y-3870000D02*
G75*
G02*
X9260000Y-3870000I40000J0D01*
G01*
X9260000Y-4070000D02*
G75*
G02*
X9180000Y-4070000I-40000J0D01*
G01*
X9180000Y-4070000D02*
G75*
G02*
X9260000Y-4070000I40000J0D01*
G01*
X9260000Y-4270000D02*
G75*
G02*
X9180000Y-4270000I-40000J0D01*
G01*
X9180000Y-4270000D02*
G75*
G02*
X9260000Y-4270000I40000J0D01*
G01*
X9260000Y-4470000D02*
G75*
G02*
X9180000Y-4470000I-40000J0D01*
G01*
X9180000Y-4470000D02*
G75*
G02*
X9260000Y-4470000I40000J0D01*
G01*
X9260000Y-4670000D02*
G75*
G02*
X9180000Y-4670000I-40000J0D01*
G01*
X9180000Y-4670000D02*
G75*
G02*
X9260000Y-4670000I40000J0D01*
G01*
X9260000Y-4870000D02*
G75*
G02*
X9180000Y-4870000I-40000J0D01*
G01*
X9180000Y-4870000D02*
G75*
G02*
X9260000Y-4870000I40000J0D01*
G01*
X9260000Y-5070000D02*
G75*
G02*
X9180000Y-5070000I-40000J0D01*
G01*
X9180000Y-5070000D02*
G75*
G02*
X9260000Y-5070000I40000J0D01*
G01*
X9665000Y-2670000D02*
G75*
G02*
X9585000Y-2670000I-40000J0D01*
G01*
X9585000Y-2670000D02*
G75*
G02*
X9665000Y-2670000I40000J0D01*
G01*
X9665000Y-2870000D02*
G75*
G02*
X9585000Y-2870000I-40000J0D01*
G01*
X9585000Y-2870000D02*
G75*
G02*
X9665000Y-2870000I40000J0D01*
G01*
X9665000Y-3070000D02*
G75*
G02*
X9585000Y-3070000I-40000J0D01*
G01*
X9585000Y-3070000D02*
G75*
G02*
X9665000Y-3070000I40000J0D01*
G01*
X9665000Y-3270000D02*
G75*
G02*
X9585000Y-3270000I-40000J0D01*
G01*
X9585000Y-3270000D02*
G75*
G02*
X9665000Y-3270000I40000J0D01*
G01*
X9665000Y-3470000D02*
G75*
G02*
X9585000Y-3470000I-40000J0D01*
G01*
X9585000Y-3470000D02*
G75*
G02*
X9665000Y-3470000I40000J0D01*
G01*
X9665000Y-3670000D02*
G75*
G02*
X9585000Y-3670000I-40000J0D01*
G01*
X9585000Y-3670000D02*
G75*
G02*
X9665000Y-3670000I40000J0D01*
G01*
X9665000Y-3870000D02*
G75*
G02*
X9585000Y-3870000I-40000J0D01*
G01*
X9585000Y-3870000D02*
G75*
G02*
X9665000Y-3870000I40000J0D01*
G01*
X9665000Y-4070000D02*
G75*
G02*
X9585000Y-4070000I-40000J0D01*
G01*
X9585000Y-4070000D02*
G75*
G02*
X9665000Y-4070000I40000J0D01*
G01*
X9665000Y-4270000D02*
G75*
G02*
X9585000Y-4270000I-40000J0D01*
G01*
X9585000Y-4270000D02*
G75*
G02*
X9665000Y-4270000I40000J0D01*
G01*
X9665000Y-4470000D02*
G75*
G02*
X9585000Y-4470000I-40000J0D01*
G01*
X9585000Y-4470000D02*
G75*
G02*
X9665000Y-4470000I40000J0D01*
G01*
X9665000Y-4670000D02*
G75*
G02*
X9585000Y-4670000I-40000J0D01*
G01*
X9585000Y-4670000D02*
G75*
G02*
X9665000Y-4670000I40000J0D01*
G01*
X9665000Y-4870000D02*
G75*
G02*
X9585000Y-4870000I-40000J0D01*
G01*
X9585000Y-4870000D02*
G75*
G02*
X9665000Y-4870000I40000J0D01*
G01*
X9665000Y-5070000D02*
G75*
G02*
X9585000Y-5070000I-40000J0D01*
G01*
X9585000Y-5070000D02*
G75*
G02*
X9665000Y-5070000I40000J0D01*
G01*
X9865000Y-2670000D02*
G75*
G02*
X9785000Y-2670000I-40000J0D01*
G01*
X9785000Y-2670000D02*
G75*
G02*
X9865000Y-2670000I40000J0D01*
G01*
X9865000Y-2870000D02*
G75*
G02*
X9785000Y-2870000I-40000J0D01*
G01*
X9785000Y-2870000D02*
G75*
G02*
X9865000Y-2870000I40000J0D01*
G01*
X9865000Y-3070000D02*
G75*
G02*
X9785000Y-3070000I-40000J0D01*
G01*
X9785000Y-3070000D02*
G75*
G02*
X9865000Y-3070000I40000J0D01*
G01*
X9865000Y-3270000D02*
G75*
G02*
X9785000Y-3270000I-40000J0D01*
G01*
X9785000Y-3270000D02*
G75*
G02*
X9865000Y-3270000I40000J0D01*
G01*
X9865000Y-3470000D02*
G75*
G02*
X9785000Y-3470000I-40000J0D01*
G01*
X9785000Y-3470000D02*
G75*
G02*
X9865000Y-3470000I40000J0D01*
G01*
X9865000Y-3670000D02*
G75*
G02*
X9785000Y-3670000I-40000J0D01*
G01*
X9785000Y-3670000D02*
G75*
G02*
X9865000Y-3670000I40000J0D01*
G01*
X9865000Y-3870000D02*
G75*
G02*
X9785000Y-3870000I-40000J0D01*
G01*
X9785000Y-3870000D02*
G75*
G02*
X9865000Y-3870000I40000J0D01*
G01*
X9865000Y-4070000D02*
G75*
G02*
X9785000Y-4070000I-40000J0D01*
G01*
X9785000Y-4070000D02*
G75*
G02*
X9865000Y-4070000I40000J0D01*
G01*
X9865000Y-4270000D02*
G75*
G02*
X9785000Y-4270000I-40000J0D01*
G01*
X9785000Y-4270000D02*
G75*
G02*
X9865000Y-4270000I40000J0D01*
G01*
X9865000Y-4470000D02*
G75*
G02*
X9785000Y-4470000I-40000J0D01*
G01*
X9785000Y-4470000D02*
G75*
G02*
X9865000Y-4470000I40000J0D01*
G01*
X9865000Y-4670000D02*
G75*
G02*
X9785000Y-4670000I-40000J0D01*
G01*
X9785000Y-4670000D02*
G75*
G02*
X9865000Y-4670000I40000J0D01*
G01*
X9865000Y-4870000D02*
G75*
G02*
X9785000Y-4870000I-40000J0D01*
G01*
X9785000Y-4870000D02*
G75*
G02*
X9865000Y-4870000I40000J0D01*
G01*
X9865000Y-5070000D02*
G75*
G02*
X9785000Y-5070000I-40000J0D01*
G01*
X9785000Y-5070000D02*
G75*
G02*
X9865000Y-5070000I40000J0D01*
G01*
X720000Y-4706000D02*
X720000Y-4806000D01*
X670000Y-4756000D02*
X770000Y-4756000D01*
X720000Y-4960000D02*
X720000Y-5060000D01*
X670000Y-5010000D02*
X770000Y-5010000D01*
X720000Y-5214000D02*
X720000Y-5314000D01*
X670000Y-5264000D02*
X770000Y-5264000D01*
X720000Y-5468000D02*
X720000Y-5568000D01*
X670000Y-5518000D02*
X770000Y-5518000D01*
X720000Y-5722000D02*
X720000Y-5822000D01*
X670000Y-5772000D02*
X770000Y-5772000D01*
X1540000Y-3054000D02*
X1540000Y-3154000D01*
X1490000Y-3104000D02*
X1590000Y-3104000D01*
X1540000Y-3308000D02*
X1540000Y-3408000D01*
X1490000Y-3358000D02*
X1590000Y-3358000D01*
X1540000Y-3562000D02*
X1540000Y-3662000D01*
X1490000Y-3612000D02*
X1590000Y-3612000D01*
X1540000Y-3816000D02*
X1540000Y-3916000D01*
X1490000Y-3866000D02*
X1590000Y-3866000D01*
X1540000Y-4070000D02*
X1540000Y-4170000D01*
X1490000Y-4120000D02*
X1590000Y-4120000D01*
X5998000Y-2449000D02*
X5998000Y-2549000D01*
X5948000Y-2499000D02*
X6048000Y-2499000D01*
X5998000Y-2703000D02*
X5998000Y-2803000D01*
X5948000Y-2753000D02*
X6048000Y-2753000D01*
X5998000Y-2957000D02*
X5998000Y-3057000D01*
X5948000Y-3007000D02*
X6048000Y-3007000D01*
X5998000Y-3211000D02*
X5998000Y-3311000D01*
X5948000Y-3261000D02*
X6048000Y-3261000D01*
X5998000Y-3465000D02*
X5998000Y-3565000D01*
X5948000Y-3515000D02*
X6048000Y-3515000D01*
X5998000Y-3719000D02*
X5998000Y-3819000D01*
X5948000Y-3769000D02*
X6048000Y-3769000D01*
X5998000Y-3973000D02*
X5998000Y-4073000D01*
X5948000Y-4023000D02*
X6048000Y-4023000D01*
X5998000Y-4227000D02*
X5998000Y-4327000D01*
X5948000Y-4277000D02*
X6048000Y-4277000D01*
X5998000Y-4481000D02*
X5998000Y-4581000D01*
X5948000Y-4531000D02*
X6048000Y-4531000D01*
X5998000Y-4735000D02*
X5998000Y-4835000D01*
X5948000Y-4785000D02*
X6048000Y-4785000D01*
X5998000Y-4989000D02*
X5998000Y-5089000D01*
X5948000Y-5039000D02*
X6048000Y-5039000D01*
X5998000Y-5243000D02*
X5998000Y-5343000D01*
X5948000Y-5293000D02*
X6048000Y-5293000D01*
X5998000Y-5497000D02*
X5998000Y-5597000D01*
X5948000Y-5547000D02*
X6048000Y-5547000D01*
X5998000Y-5751000D02*
X5998000Y-5851000D01*
X5948000Y-5801000D02*
X6048000Y-5801000D01*
X5998000Y-6005000D02*
X5998000Y-6105000D01*
X5948000Y-6055000D02*
X6048000Y-6055000D01*
X5998000Y-6259000D02*
X5998000Y-6359000D01*
X5948000Y-6309000D02*
X6048000Y-6309000D01*
X5998000Y-6513000D02*
X5998000Y-6613000D01*
X5948000Y-6563000D02*
X6048000Y-6563000D01*
X6925000Y-6525000D02*
X6925000Y-6625000D01*
X6875000Y-6575000D02*
X6975000Y-6575000D01*
X6925000Y-6779000D02*
X6925000Y-6879000D01*
X6875000Y-6829000D02*
X6975000Y-6829000D01*
X6925000Y-7033000D02*
X6925000Y-7133000D01*
X6875000Y-7083000D02*
X6975000Y-7083000D01*
X7015000Y-2437500D02*
X7015000Y-2537500D01*
X6965000Y-2487500D02*
X7065000Y-2487500D01*
X7015000Y-2691500D02*
X7015000Y-2791500D01*
X6965000Y-2741500D02*
X7065000Y-2741500D01*
X7960000Y-2382000D02*
X7960000Y-2482000D01*
X7910000Y-2432000D02*
X8010000Y-2432000D01*
X7960000Y-2636000D02*
X7960000Y-2736000D01*
X7910000Y-2686000D02*
X8010000Y-2686000D01*
X7960000Y-2890000D02*
X7960000Y-2990000D01*
X7910000Y-2940000D02*
X8010000Y-2940000D01*
X8460000Y-2706000D02*
X8460000Y-2806000D01*
X8410000Y-2756000D02*
X8510000Y-2756000D01*
X8460000Y-2960000D02*
X8460000Y-3060000D01*
X8410000Y-3010000D02*
X8510000Y-3010000D01*
X8460000Y-3214000D02*
X8460000Y-3314000D01*
X8410000Y-3264000D02*
X8510000Y-3264000D01*
X8936500Y-6468000D02*
X8936500Y-6568000D01*
X8886500Y-6518000D02*
X8986500Y-6518000D01*
X9190500Y-6468000D02*
X9190500Y-6568000D01*
X9140500Y-6518000D02*
X9240500Y-6518000D01*
X10162000Y-7610000D02*
X10162000Y-7710000D01*
X10112000Y-7660000D02*
X10212000Y-7660000D01*
X10416000Y-7610000D02*
X10416000Y-7710000D01*
X10366000Y-7660000D02*
X10466000Y-7660000D01*
X10670000Y-7610000D02*
X10670000Y-7710000D01*
X10620000Y-7660000D02*
X10720000Y-7660000D01*
X10924000Y-7610000D02*
X10924000Y-7710000D01*
X10874000Y-7660000D02*
X10974000Y-7660000D01*
D12*
X353033Y-4403034D02*
X353033Y-4296967D01*
X246966Y-4296967D01*
X246966Y-4403034D01*
X353033Y-4403034D01*
X353033Y-6163033D02*
X353033Y-6056966D01*
X246966Y-6056966D01*
X246966Y-6163033D01*
X353033Y-6163033D01*
X783033Y-6903033D02*
X783033Y-6796966D01*
X676967Y-6796966D01*
X676967Y-6903033D01*
X783033Y-6903033D01*
X1153034Y-4403034D02*
X1153034Y-4296967D01*
X1046966Y-4296967D01*
X1046966Y-4403034D01*
X1153034Y-4403034D01*
X1153034Y-6163033D02*
X1153034Y-6056966D01*
X1046966Y-6056966D01*
X1046966Y-6163033D01*
X1153034Y-6163033D01*
D13*
X730000Y-3690000D02*
X810000Y-3610000D01*
X730000Y-3530000D01*
X650000Y-3610000D01*
X730000Y-3690000D01*
D14*
X10725000Y-4855000D02*
X10975000Y-5105000D01*
X10975000Y-4855000D02*
X10725000Y-5105000D01*
X10975000Y-4980000D02*
G75*
G02*
X10725000Y-4980000I-125000J0D01*
G01*
X10725000Y-4980000D02*
G75*
G02*
X10975000Y-4980000I125000J0D01*
G01*
D15*
X1125000Y-6405000D02*
X1475000Y-6755000D01*
X1475000Y-6405000D02*
X1125000Y-6755000D01*
X1300000Y-6405000D02*
X1300000Y-6755000D01*
X1125000Y-6580000D02*
X1475000Y-6580000D01*
D10*
X240777Y-8281484D02*
X240777Y-8081484D01*
X240777Y-8081484D02*
X288396Y-8081484D01*
X288396Y-8081484D02*
X316967Y-8091008D01*
X316967Y-8091008D02*
X336015Y-8110055D01*
X336015Y-8110055D02*
X345539Y-8129103D01*
X345539Y-8129103D02*
X355062Y-8167198D01*
X355062Y-8167198D02*
X355062Y-8195769D01*
X355062Y-8195769D02*
X345539Y-8233865D01*
X345539Y-8233865D02*
X336015Y-8252912D01*
X336015Y-8252912D02*
X316967Y-8271960D01*
X316967Y-8271960D02*
X288396Y-8281484D01*
X288396Y-8281484D02*
X240777Y-8281484D01*
X440777Y-8281484D02*
X440777Y-8148150D01*
X440777Y-8186246D02*
X450301Y-8167198D01*
X450301Y-8167198D02*
X459824Y-8157674D01*
X459824Y-8157674D02*
X478872Y-8148150D01*
X478872Y-8148150D02*
X497920Y-8148150D01*
X564586Y-8281484D02*
X564586Y-8148150D01*
X564586Y-8081484D02*
X555063Y-8091008D01*
X555063Y-8091008D02*
X564586Y-8100531D01*
X564586Y-8100531D02*
X574110Y-8091008D01*
X574110Y-8091008D02*
X564586Y-8081484D01*
X564586Y-8081484D02*
X564586Y-8100531D01*
X688396Y-8281484D02*
X669348Y-8271960D01*
X669348Y-8271960D02*
X659824Y-8252912D01*
X659824Y-8252912D02*
X659824Y-8081484D01*
X793158Y-8281484D02*
X774110Y-8271960D01*
X774110Y-8271960D02*
X764586Y-8252912D01*
X764586Y-8252912D02*
X764586Y-8081484D01*
X1021729Y-8281484D02*
X1021729Y-8081484D01*
X1021729Y-8081484D02*
X1088396Y-8224341D01*
X1088396Y-8224341D02*
X1155063Y-8081484D01*
X1155063Y-8081484D02*
X1155063Y-8281484D01*
X1336015Y-8281484D02*
X1336015Y-8176722D01*
X1336015Y-8176722D02*
X1326491Y-8157674D01*
X1326491Y-8157674D02*
X1307444Y-8148150D01*
X1307444Y-8148150D02*
X1269348Y-8148150D01*
X1269348Y-8148150D02*
X1250301Y-8157674D01*
X1336015Y-8271960D02*
X1316967Y-8281484D01*
X1316967Y-8281484D02*
X1269348Y-8281484D01*
X1269348Y-8281484D02*
X1250301Y-8271960D01*
X1250301Y-8271960D02*
X1240777Y-8252912D01*
X1240777Y-8252912D02*
X1240777Y-8233865D01*
X1240777Y-8233865D02*
X1250301Y-8214817D01*
X1250301Y-8214817D02*
X1269348Y-8205293D01*
X1269348Y-8205293D02*
X1316967Y-8205293D01*
X1316967Y-8205293D02*
X1336015Y-8195769D01*
X1431253Y-8148150D02*
X1431253Y-8348150D01*
X1431253Y-8157674D02*
X1450301Y-8148150D01*
X1450301Y-8148150D02*
X1488396Y-8148150D01*
X1488396Y-8148150D02*
X1507443Y-8157674D01*
X1507443Y-8157674D02*
X1516967Y-8167198D01*
X1516967Y-8167198D02*
X1526491Y-8186246D01*
X1526491Y-8186246D02*
X1526491Y-8243388D01*
X1526491Y-8243388D02*
X1516967Y-8262436D01*
X1516967Y-8262436D02*
X1507443Y-8271960D01*
X1507443Y-8271960D02*
X1488396Y-8281484D01*
X1488396Y-8281484D02*
X1450301Y-8281484D01*
X1450301Y-8281484D02*
X1431253Y-8271960D01*
X1612205Y-8262436D02*
X1621729Y-8271960D01*
X1621729Y-8271960D02*
X1612205Y-8281484D01*
X1612205Y-8281484D02*
X1602682Y-8271960D01*
X1602682Y-8271960D02*
X1612205Y-8262436D01*
X1612205Y-8262436D02*
X1612205Y-8281484D01*
X1612205Y-8157674D02*
X1621729Y-8167198D01*
X1621729Y-8167198D02*
X1612205Y-8176722D01*
X1612205Y-8176722D02*
X1602682Y-8167198D01*
X1602682Y-8167198D02*
X1612205Y-8157674D01*
X1612205Y-8157674D02*
X1612205Y-8176722D01*
D11*
X-70000Y-8585000D02*
X-20000Y-8635000D01*
X-20000Y-8585000D02*
X-70000Y-8635000D01*
D10*
X278872Y-8501484D02*
X297920Y-8501484D01*
X297920Y-8501484D02*
X316967Y-8511008D01*
X316967Y-8511008D02*
X326491Y-8520531D01*
X326491Y-8520531D02*
X336015Y-8539579D01*
X336015Y-8539579D02*
X345539Y-8577674D01*
X345539Y-8577674D02*
X345539Y-8625293D01*
X345539Y-8625293D02*
X336015Y-8663389D01*
X336015Y-8663389D02*
X326491Y-8682436D01*
X326491Y-8682436D02*
X316967Y-8691960D01*
X316967Y-8691960D02*
X297920Y-8701484D01*
X297920Y-8701484D02*
X278872Y-8701484D01*
X278872Y-8701484D02*
X259824Y-8691960D01*
X259824Y-8691960D02*
X250301Y-8682436D01*
X250301Y-8682436D02*
X240777Y-8663389D01*
X240777Y-8663389D02*
X231253Y-8625293D01*
X231253Y-8625293D02*
X231253Y-8577674D01*
X231253Y-8577674D02*
X240777Y-8539579D01*
X240777Y-8539579D02*
X250301Y-8520531D01*
X250301Y-8520531D02*
X259824Y-8511008D01*
X259824Y-8511008D02*
X278872Y-8501484D01*
X431253Y-8682436D02*
X440777Y-8691960D01*
X440777Y-8691960D02*
X431253Y-8701484D01*
X431253Y-8701484D02*
X421729Y-8691960D01*
X421729Y-8691960D02*
X431253Y-8682436D01*
X431253Y-8682436D02*
X431253Y-8701484D01*
X621729Y-8501484D02*
X526491Y-8501484D01*
X526491Y-8501484D02*
X516967Y-8596722D01*
X516967Y-8596722D02*
X526491Y-8587198D01*
X526491Y-8587198D02*
X545539Y-8577674D01*
X545539Y-8577674D02*
X593158Y-8577674D01*
X593158Y-8577674D02*
X612205Y-8587198D01*
X612205Y-8587198D02*
X621729Y-8596722D01*
X621729Y-8596722D02*
X631253Y-8615770D01*
X631253Y-8615770D02*
X631253Y-8663389D01*
X631253Y-8663389D02*
X621729Y-8682436D01*
X621729Y-8682436D02*
X612205Y-8691960D01*
X612205Y-8691960D02*
X593158Y-8701484D01*
X593158Y-8701484D02*
X545539Y-8701484D01*
X545539Y-8701484D02*
X526491Y-8691960D01*
X526491Y-8691960D02*
X516967Y-8682436D01*
X755062Y-8501484D02*
X774110Y-8501484D01*
X774110Y-8501484D02*
X793158Y-8511008D01*
X793158Y-8511008D02*
X802682Y-8520531D01*
X802682Y-8520531D02*
X812205Y-8539579D01*
X812205Y-8539579D02*
X821729Y-8577674D01*
X821729Y-8577674D02*
X821729Y-8625293D01*
X821729Y-8625293D02*
X812205Y-8663389D01*
X812205Y-8663389D02*
X802682Y-8682436D01*
X802682Y-8682436D02*
X793158Y-8691960D01*
X793158Y-8691960D02*
X774110Y-8701484D01*
X774110Y-8701484D02*
X755062Y-8701484D01*
X755062Y-8701484D02*
X736015Y-8691960D01*
X736015Y-8691960D02*
X726491Y-8682436D01*
X726491Y-8682436D02*
X716967Y-8663389D01*
X716967Y-8663389D02*
X707443Y-8625293D01*
X707443Y-8625293D02*
X707443Y-8577674D01*
X707443Y-8577674D02*
X716967Y-8539579D01*
X716967Y-8539579D02*
X726491Y-8520531D01*
X726491Y-8520531D02*
X736015Y-8511008D01*
X736015Y-8511008D02*
X755062Y-8501484D01*
X945539Y-8501484D02*
X964586Y-8501484D01*
X964586Y-8501484D02*
X983634Y-8511008D01*
X983634Y-8511008D02*
X993158Y-8520531D01*
X993158Y-8520531D02*
X1002682Y-8539579D01*
X1002682Y-8539579D02*
X1012205Y-8577674D01*
X1012205Y-8577674D02*
X1012205Y-8625293D01*
X1012205Y-8625293D02*
X1002682Y-8663389D01*
X1002682Y-8663389D02*
X993158Y-8682436D01*
X993158Y-8682436D02*
X983634Y-8691960D01*
X983634Y-8691960D02*
X964586Y-8701484D01*
X964586Y-8701484D02*
X945539Y-8701484D01*
X945539Y-8701484D02*
X926491Y-8691960D01*
X926491Y-8691960D02*
X916967Y-8682436D01*
X916967Y-8682436D02*
X907443Y-8663389D01*
X907443Y-8663389D02*
X897920Y-8625293D01*
X897920Y-8625293D02*
X897920Y-8577674D01*
X897920Y-8577674D02*
X907443Y-8539579D01*
X907443Y-8539579D02*
X916967Y-8520531D01*
X916967Y-8520531D02*
X926491Y-8511008D01*
X926491Y-8511008D02*
X945539Y-8501484D01*
X1097920Y-8701484D02*
X1097920Y-8568150D01*
X1097920Y-8587198D02*
X1107444Y-8577674D01*
X1107444Y-8577674D02*
X1126491Y-8568150D01*
X1126491Y-8568150D02*
X1155063Y-8568150D01*
X1155063Y-8568150D02*
X1174110Y-8577674D01*
X1174110Y-8577674D02*
X1183634Y-8596722D01*
X1183634Y-8596722D02*
X1183634Y-8701484D01*
X1183634Y-8596722D02*
X1193158Y-8577674D01*
X1193158Y-8577674D02*
X1212205Y-8568150D01*
X1212205Y-8568150D02*
X1240777Y-8568150D01*
X1240777Y-8568150D02*
X1259825Y-8577674D01*
X1259825Y-8577674D02*
X1269348Y-8596722D01*
X1269348Y-8596722D02*
X1269348Y-8701484D01*
X1364586Y-8701484D02*
X1364586Y-8568150D01*
X1364586Y-8587198D02*
X1374110Y-8577674D01*
X1374110Y-8577674D02*
X1393158Y-8568150D01*
X1393158Y-8568150D02*
X1421729Y-8568150D01*
X1421729Y-8568150D02*
X1440777Y-8577674D01*
X1440777Y-8577674D02*
X1450301Y-8596722D01*
X1450301Y-8596722D02*
X1450301Y-8701484D01*
X1450301Y-8596722D02*
X1459824Y-8577674D01*
X1459824Y-8577674D02*
X1478872Y-8568150D01*
X1478872Y-8568150D02*
X1507443Y-8568150D01*
X1507443Y-8568150D02*
X1526491Y-8577674D01*
X1526491Y-8577674D02*
X1536015Y-8596722D01*
X1536015Y-8596722D02*
X1536015Y-8701484D01*
X1926491Y-8491960D02*
X1755063Y-8749103D01*
X2183634Y-8501484D02*
X2202682Y-8501484D01*
X2202682Y-8501484D02*
X2221729Y-8511008D01*
X2221729Y-8511008D02*
X2231253Y-8520531D01*
X2231253Y-8520531D02*
X2240777Y-8539579D01*
X2240777Y-8539579D02*
X2250301Y-8577674D01*
X2250301Y-8577674D02*
X2250301Y-8625293D01*
X2250301Y-8625293D02*
X2240777Y-8663389D01*
X2240777Y-8663389D02*
X2231253Y-8682436D01*
X2231253Y-8682436D02*
X2221729Y-8691960D01*
X2221729Y-8691960D02*
X2202682Y-8701484D01*
X2202682Y-8701484D02*
X2183634Y-8701484D01*
X2183634Y-8701484D02*
X2164587Y-8691960D01*
X2164587Y-8691960D02*
X2155063Y-8682436D01*
X2155063Y-8682436D02*
X2145539Y-8663389D01*
X2145539Y-8663389D02*
X2136015Y-8625293D01*
X2136015Y-8625293D02*
X2136015Y-8577674D01*
X2136015Y-8577674D02*
X2145539Y-8539579D01*
X2145539Y-8539579D02*
X2155063Y-8520531D01*
X2155063Y-8520531D02*
X2164587Y-8511008D01*
X2164587Y-8511008D02*
X2183634Y-8501484D01*
X2336015Y-8682436D02*
X2345539Y-8691960D01*
X2345539Y-8691960D02*
X2336015Y-8701484D01*
X2336015Y-8701484D02*
X2326491Y-8691960D01*
X2326491Y-8691960D02*
X2336015Y-8682436D01*
X2336015Y-8682436D02*
X2336015Y-8701484D01*
X2469348Y-8501484D02*
X2488396Y-8501484D01*
X2488396Y-8501484D02*
X2507444Y-8511008D01*
X2507444Y-8511008D02*
X2516968Y-8520531D01*
X2516968Y-8520531D02*
X2526491Y-8539579D01*
X2526491Y-8539579D02*
X2536015Y-8577674D01*
X2536015Y-8577674D02*
X2536015Y-8625293D01*
X2536015Y-8625293D02*
X2526491Y-8663389D01*
X2526491Y-8663389D02*
X2516968Y-8682436D01*
X2516968Y-8682436D02*
X2507444Y-8691960D01*
X2507444Y-8691960D02*
X2488396Y-8701484D01*
X2488396Y-8701484D02*
X2469348Y-8701484D01*
X2469348Y-8701484D02*
X2450301Y-8691960D01*
X2450301Y-8691960D02*
X2440777Y-8682436D01*
X2440777Y-8682436D02*
X2431253Y-8663389D01*
X2431253Y-8663389D02*
X2421729Y-8625293D01*
X2421729Y-8625293D02*
X2421729Y-8577674D01*
X2421729Y-8577674D02*
X2431253Y-8539579D01*
X2431253Y-8539579D02*
X2440777Y-8520531D01*
X2440777Y-8520531D02*
X2450301Y-8511008D01*
X2450301Y-8511008D02*
X2469348Y-8501484D01*
X2726491Y-8701484D02*
X2612206Y-8701484D01*
X2669348Y-8701484D02*
X2669348Y-8501484D01*
X2669348Y-8501484D02*
X2650301Y-8530055D01*
X2650301Y-8530055D02*
X2631253Y-8549103D01*
X2631253Y-8549103D02*
X2612206Y-8558627D01*
X2821729Y-8701484D02*
X2859825Y-8701484D01*
X2859825Y-8701484D02*
X2878872Y-8691960D01*
X2878872Y-8691960D02*
X2888396Y-8682436D01*
X2888396Y-8682436D02*
X2907444Y-8653865D01*
X2907444Y-8653865D02*
X2916967Y-8615770D01*
X2916967Y-8615770D02*
X2916967Y-8539579D01*
X2916967Y-8539579D02*
X2907444Y-8520531D01*
X2907444Y-8520531D02*
X2897920Y-8511008D01*
X2897920Y-8511008D02*
X2878872Y-8501484D01*
X2878872Y-8501484D02*
X2840777Y-8501484D01*
X2840777Y-8501484D02*
X2821729Y-8511008D01*
X2821729Y-8511008D02*
X2812206Y-8520531D01*
X2812206Y-8520531D02*
X2802682Y-8539579D01*
X2802682Y-8539579D02*
X2802682Y-8587198D01*
X2802682Y-8587198D02*
X2812206Y-8606246D01*
X2812206Y-8606246D02*
X2821729Y-8615770D01*
X2821729Y-8615770D02*
X2840777Y-8625293D01*
X2840777Y-8625293D02*
X2878872Y-8625293D01*
X2878872Y-8625293D02*
X2897920Y-8615770D01*
X2897920Y-8615770D02*
X2907444Y-8606246D01*
X2907444Y-8606246D02*
X2916967Y-8587198D01*
X2983634Y-8501484D02*
X3116967Y-8501484D01*
X3116967Y-8501484D02*
X3031253Y-8701484D01*
X3183634Y-8501484D02*
X3183634Y-8539579D01*
X3259825Y-8501484D02*
X3259825Y-8539579D01*
X3555063Y-8777674D02*
X3545539Y-8768150D01*
X3545539Y-8768150D02*
X3526491Y-8739579D01*
X3526491Y-8739579D02*
X3516968Y-8720531D01*
X3516968Y-8720531D02*
X3507444Y-8691960D01*
X3507444Y-8691960D02*
X3497920Y-8644341D01*
X3497920Y-8644341D02*
X3497920Y-8606246D01*
X3497920Y-8606246D02*
X3507444Y-8558627D01*
X3507444Y-8558627D02*
X3516968Y-8530055D01*
X3516968Y-8530055D02*
X3526491Y-8511008D01*
X3526491Y-8511008D02*
X3545539Y-8482436D01*
X3545539Y-8482436D02*
X3555063Y-8472912D01*
X3612206Y-8501484D02*
X3736015Y-8501484D01*
X3736015Y-8501484D02*
X3669348Y-8577674D01*
X3669348Y-8577674D02*
X3697920Y-8577674D01*
X3697920Y-8577674D02*
X3716968Y-8587198D01*
X3716968Y-8587198D02*
X3726491Y-8596722D01*
X3726491Y-8596722D02*
X3736015Y-8615770D01*
X3736015Y-8615770D02*
X3736015Y-8663389D01*
X3736015Y-8663389D02*
X3726491Y-8682436D01*
X3726491Y-8682436D02*
X3716968Y-8691960D01*
X3716968Y-8691960D02*
X3697920Y-8701484D01*
X3697920Y-8701484D02*
X3640777Y-8701484D01*
X3640777Y-8701484D02*
X3621729Y-8691960D01*
X3621729Y-8691960D02*
X3612206Y-8682436D01*
X3859825Y-8501484D02*
X3878872Y-8501484D01*
X3878872Y-8501484D02*
X3897920Y-8511008D01*
X3897920Y-8511008D02*
X3907444Y-8520531D01*
X3907444Y-8520531D02*
X3916968Y-8539579D01*
X3916968Y-8539579D02*
X3926491Y-8577674D01*
X3926491Y-8577674D02*
X3926491Y-8625293D01*
X3926491Y-8625293D02*
X3916968Y-8663389D01*
X3916968Y-8663389D02*
X3907444Y-8682436D01*
X3907444Y-8682436D02*
X3897920Y-8691960D01*
X3897920Y-8691960D02*
X3878872Y-8701484D01*
X3878872Y-8701484D02*
X3859825Y-8701484D01*
X3859825Y-8701484D02*
X3840777Y-8691960D01*
X3840777Y-8691960D02*
X3831253Y-8682436D01*
X3831253Y-8682436D02*
X3821729Y-8663389D01*
X3821729Y-8663389D02*
X3812206Y-8625293D01*
X3812206Y-8625293D02*
X3812206Y-8577674D01*
X3812206Y-8577674D02*
X3821729Y-8539579D01*
X3821729Y-8539579D02*
X3831253Y-8520531D01*
X3831253Y-8520531D02*
X3840777Y-8511008D01*
X3840777Y-8511008D02*
X3859825Y-8501484D01*
X4164587Y-8701484D02*
X4164587Y-8501484D01*
X4250301Y-8701484D02*
X4250301Y-8596722D01*
X4250301Y-8596722D02*
X4240777Y-8577674D01*
X4240777Y-8577674D02*
X4221730Y-8568150D01*
X4221730Y-8568150D02*
X4193158Y-8568150D01*
X4193158Y-8568150D02*
X4174110Y-8577674D01*
X4174110Y-8577674D02*
X4164587Y-8587198D01*
X4374111Y-8701484D02*
X4355063Y-8691960D01*
X4355063Y-8691960D02*
X4345539Y-8682436D01*
X4345539Y-8682436D02*
X4336015Y-8663389D01*
X4336015Y-8663389D02*
X4336015Y-8606246D01*
X4336015Y-8606246D02*
X4345539Y-8587198D01*
X4345539Y-8587198D02*
X4355063Y-8577674D01*
X4355063Y-8577674D02*
X4374111Y-8568150D01*
X4374111Y-8568150D02*
X4402682Y-8568150D01*
X4402682Y-8568150D02*
X4421730Y-8577674D01*
X4421730Y-8577674D02*
X4431253Y-8587198D01*
X4431253Y-8587198D02*
X4440777Y-8606246D01*
X4440777Y-8606246D02*
X4440777Y-8663389D01*
X4440777Y-8663389D02*
X4431253Y-8682436D01*
X4431253Y-8682436D02*
X4421730Y-8691960D01*
X4421730Y-8691960D02*
X4402682Y-8701484D01*
X4402682Y-8701484D02*
X4374111Y-8701484D01*
X4555063Y-8701484D02*
X4536015Y-8691960D01*
X4536015Y-8691960D02*
X4526492Y-8672912D01*
X4526492Y-8672912D02*
X4526492Y-8501484D01*
X4707444Y-8691960D02*
X4688396Y-8701484D01*
X4688396Y-8701484D02*
X4650301Y-8701484D01*
X4650301Y-8701484D02*
X4631253Y-8691960D01*
X4631253Y-8691960D02*
X4621730Y-8672912D01*
X4621730Y-8672912D02*
X4621730Y-8596722D01*
X4621730Y-8596722D02*
X4631253Y-8577674D01*
X4631253Y-8577674D02*
X4650301Y-8568150D01*
X4650301Y-8568150D02*
X4688396Y-8568150D01*
X4688396Y-8568150D02*
X4707444Y-8577674D01*
X4707444Y-8577674D02*
X4716968Y-8596722D01*
X4716968Y-8596722D02*
X4716968Y-8615770D01*
X4716968Y-8615770D02*
X4621730Y-8634817D01*
X4793158Y-8691960D02*
X4812206Y-8701484D01*
X4812206Y-8701484D02*
X4850301Y-8701484D01*
X4850301Y-8701484D02*
X4869349Y-8691960D01*
X4869349Y-8691960D02*
X4878873Y-8672912D01*
X4878873Y-8672912D02*
X4878873Y-8663389D01*
X4878873Y-8663389D02*
X4869349Y-8644341D01*
X4869349Y-8644341D02*
X4850301Y-8634817D01*
X4850301Y-8634817D02*
X4821730Y-8634817D01*
X4821730Y-8634817D02*
X4802682Y-8625293D01*
X4802682Y-8625293D02*
X4793158Y-8606246D01*
X4793158Y-8606246D02*
X4793158Y-8596722D01*
X4793158Y-8596722D02*
X4802682Y-8577674D01*
X4802682Y-8577674D02*
X4821730Y-8568150D01*
X4821730Y-8568150D02*
X4850301Y-8568150D01*
X4850301Y-8568150D02*
X4869349Y-8577674D01*
X4945539Y-8777674D02*
X4955063Y-8768150D01*
X4955063Y-8768150D02*
X4974111Y-8739579D01*
X4974111Y-8739579D02*
X4983634Y-8720531D01*
X4983634Y-8720531D02*
X4993158Y-8691960D01*
X4993158Y-8691960D02*
X5002682Y-8644341D01*
X5002682Y-8644341D02*
X5002682Y-8606246D01*
X5002682Y-8606246D02*
X4993158Y-8558627D01*
X4993158Y-8558627D02*
X4983634Y-8530055D01*
X4983634Y-8530055D02*
X4974111Y-8511008D01*
X4974111Y-8511008D02*
X4955063Y-8482436D01*
X4955063Y-8482436D02*
X4945539Y-8472912D01*
D11*
X-20000Y-8874000D02*
G75*
G02*
X-100000Y-8874000I-40000J0D01*
G01*
X-100000Y-8874000D02*
G75*
G02*
X-20000Y-8874000I40000J0D01*
G01*
D10*
X278872Y-8765484D02*
X297920Y-8765484D01*
X297920Y-8765484D02*
X316967Y-8775008D01*
X316967Y-8775008D02*
X326491Y-8784531D01*
X326491Y-8784531D02*
X336015Y-8803579D01*
X336015Y-8803579D02*
X345539Y-8841674D01*
X345539Y-8841674D02*
X345539Y-8889293D01*
X345539Y-8889293D02*
X336015Y-8927389D01*
X336015Y-8927389D02*
X326491Y-8946436D01*
X326491Y-8946436D02*
X316967Y-8955960D01*
X316967Y-8955960D02*
X297920Y-8965484D01*
X297920Y-8965484D02*
X278872Y-8965484D01*
X278872Y-8965484D02*
X259824Y-8955960D01*
X259824Y-8955960D02*
X250301Y-8946436D01*
X250301Y-8946436D02*
X240777Y-8927389D01*
X240777Y-8927389D02*
X231253Y-8889293D01*
X231253Y-8889293D02*
X231253Y-8841674D01*
X231253Y-8841674D02*
X240777Y-8803579D01*
X240777Y-8803579D02*
X250301Y-8784531D01*
X250301Y-8784531D02*
X259824Y-8775008D01*
X259824Y-8775008D02*
X278872Y-8765484D01*
X431253Y-8946436D02*
X440777Y-8955960D01*
X440777Y-8955960D02*
X431253Y-8965484D01*
X431253Y-8965484D02*
X421729Y-8955960D01*
X421729Y-8955960D02*
X431253Y-8946436D01*
X431253Y-8946436D02*
X431253Y-8965484D01*
X555063Y-8851198D02*
X536015Y-8841674D01*
X536015Y-8841674D02*
X526491Y-8832150D01*
X526491Y-8832150D02*
X516967Y-8813103D01*
X516967Y-8813103D02*
X516967Y-8803579D01*
X516967Y-8803579D02*
X526491Y-8784531D01*
X526491Y-8784531D02*
X536015Y-8775008D01*
X536015Y-8775008D02*
X555063Y-8765484D01*
X555063Y-8765484D02*
X593158Y-8765484D01*
X593158Y-8765484D02*
X612205Y-8775008D01*
X612205Y-8775008D02*
X621729Y-8784531D01*
X621729Y-8784531D02*
X631253Y-8803579D01*
X631253Y-8803579D02*
X631253Y-8813103D01*
X631253Y-8813103D02*
X621729Y-8832150D01*
X621729Y-8832150D02*
X612205Y-8841674D01*
X612205Y-8841674D02*
X593158Y-8851198D01*
X593158Y-8851198D02*
X555063Y-8851198D01*
X555063Y-8851198D02*
X536015Y-8860722D01*
X536015Y-8860722D02*
X526491Y-8870246D01*
X526491Y-8870246D02*
X516967Y-8889293D01*
X516967Y-8889293D02*
X516967Y-8927389D01*
X516967Y-8927389D02*
X526491Y-8946436D01*
X526491Y-8946436D02*
X536015Y-8955960D01*
X536015Y-8955960D02*
X555063Y-8965484D01*
X555063Y-8965484D02*
X593158Y-8965484D01*
X593158Y-8965484D02*
X612205Y-8955960D01*
X612205Y-8955960D02*
X621729Y-8946436D01*
X621729Y-8946436D02*
X631253Y-8927389D01*
X631253Y-8927389D02*
X631253Y-8889293D01*
X631253Y-8889293D02*
X621729Y-8870246D01*
X621729Y-8870246D02*
X612205Y-8860722D01*
X612205Y-8860722D02*
X593158Y-8851198D01*
X755062Y-8765484D02*
X774110Y-8765484D01*
X774110Y-8765484D02*
X793158Y-8775008D01*
X793158Y-8775008D02*
X802682Y-8784531D01*
X802682Y-8784531D02*
X812205Y-8803579D01*
X812205Y-8803579D02*
X821729Y-8841674D01*
X821729Y-8841674D02*
X821729Y-8889293D01*
X821729Y-8889293D02*
X812205Y-8927389D01*
X812205Y-8927389D02*
X802682Y-8946436D01*
X802682Y-8946436D02*
X793158Y-8955960D01*
X793158Y-8955960D02*
X774110Y-8965484D01*
X774110Y-8965484D02*
X755062Y-8965484D01*
X755062Y-8965484D02*
X736015Y-8955960D01*
X736015Y-8955960D02*
X726491Y-8946436D01*
X726491Y-8946436D02*
X716967Y-8927389D01*
X716967Y-8927389D02*
X707443Y-8889293D01*
X707443Y-8889293D02*
X707443Y-8841674D01*
X707443Y-8841674D02*
X716967Y-8803579D01*
X716967Y-8803579D02*
X726491Y-8784531D01*
X726491Y-8784531D02*
X736015Y-8775008D01*
X736015Y-8775008D02*
X755062Y-8765484D01*
X945539Y-8765484D02*
X964586Y-8765484D01*
X964586Y-8765484D02*
X983634Y-8775008D01*
X983634Y-8775008D02*
X993158Y-8784531D01*
X993158Y-8784531D02*
X1002682Y-8803579D01*
X1002682Y-8803579D02*
X1012205Y-8841674D01*
X1012205Y-8841674D02*
X1012205Y-8889293D01*
X1012205Y-8889293D02*
X1002682Y-8927389D01*
X1002682Y-8927389D02*
X993158Y-8946436D01*
X993158Y-8946436D02*
X983634Y-8955960D01*
X983634Y-8955960D02*
X964586Y-8965484D01*
X964586Y-8965484D02*
X945539Y-8965484D01*
X945539Y-8965484D02*
X926491Y-8955960D01*
X926491Y-8955960D02*
X916967Y-8946436D01*
X916967Y-8946436D02*
X907443Y-8927389D01*
X907443Y-8927389D02*
X897920Y-8889293D01*
X897920Y-8889293D02*
X897920Y-8841674D01*
X897920Y-8841674D02*
X907443Y-8803579D01*
X907443Y-8803579D02*
X916967Y-8784531D01*
X916967Y-8784531D02*
X926491Y-8775008D01*
X926491Y-8775008D02*
X945539Y-8765484D01*
X1097920Y-8965484D02*
X1097920Y-8832150D01*
X1097920Y-8851198D02*
X1107444Y-8841674D01*
X1107444Y-8841674D02*
X1126491Y-8832150D01*
X1126491Y-8832150D02*
X1155063Y-8832150D01*
X1155063Y-8832150D02*
X1174110Y-8841674D01*
X1174110Y-8841674D02*
X1183634Y-8860722D01*
X1183634Y-8860722D02*
X1183634Y-8965484D01*
X1183634Y-8860722D02*
X1193158Y-8841674D01*
X1193158Y-8841674D02*
X1212205Y-8832150D01*
X1212205Y-8832150D02*
X1240777Y-8832150D01*
X1240777Y-8832150D02*
X1259825Y-8841674D01*
X1259825Y-8841674D02*
X1269348Y-8860722D01*
X1269348Y-8860722D02*
X1269348Y-8965484D01*
X1364586Y-8965484D02*
X1364586Y-8832150D01*
X1364586Y-8851198D02*
X1374110Y-8841674D01*
X1374110Y-8841674D02*
X1393158Y-8832150D01*
X1393158Y-8832150D02*
X1421729Y-8832150D01*
X1421729Y-8832150D02*
X1440777Y-8841674D01*
X1440777Y-8841674D02*
X1450301Y-8860722D01*
X1450301Y-8860722D02*
X1450301Y-8965484D01*
X1450301Y-8860722D02*
X1459824Y-8841674D01*
X1459824Y-8841674D02*
X1478872Y-8832150D01*
X1478872Y-8832150D02*
X1507443Y-8832150D01*
X1507443Y-8832150D02*
X1526491Y-8841674D01*
X1526491Y-8841674D02*
X1536015Y-8860722D01*
X1536015Y-8860722D02*
X1536015Y-8965484D01*
X1926491Y-8755960D02*
X1755063Y-9013103D01*
X2183634Y-8765484D02*
X2202682Y-8765484D01*
X2202682Y-8765484D02*
X2221729Y-8775008D01*
X2221729Y-8775008D02*
X2231253Y-8784531D01*
X2231253Y-8784531D02*
X2240777Y-8803579D01*
X2240777Y-8803579D02*
X2250301Y-8841674D01*
X2250301Y-8841674D02*
X2250301Y-8889293D01*
X2250301Y-8889293D02*
X2240777Y-8927389D01*
X2240777Y-8927389D02*
X2231253Y-8946436D01*
X2231253Y-8946436D02*
X2221729Y-8955960D01*
X2221729Y-8955960D02*
X2202682Y-8965484D01*
X2202682Y-8965484D02*
X2183634Y-8965484D01*
X2183634Y-8965484D02*
X2164587Y-8955960D01*
X2164587Y-8955960D02*
X2155063Y-8946436D01*
X2155063Y-8946436D02*
X2145539Y-8927389D01*
X2145539Y-8927389D02*
X2136015Y-8889293D01*
X2136015Y-8889293D02*
X2136015Y-8841674D01*
X2136015Y-8841674D02*
X2145539Y-8803579D01*
X2145539Y-8803579D02*
X2155063Y-8784531D01*
X2155063Y-8784531D02*
X2164587Y-8775008D01*
X2164587Y-8775008D02*
X2183634Y-8765484D01*
X2336015Y-8946436D02*
X2345539Y-8955960D01*
X2345539Y-8955960D02*
X2336015Y-8965484D01*
X2336015Y-8965484D02*
X2326491Y-8955960D01*
X2326491Y-8955960D02*
X2336015Y-8946436D01*
X2336015Y-8946436D02*
X2336015Y-8965484D01*
X2469348Y-8765484D02*
X2488396Y-8765484D01*
X2488396Y-8765484D02*
X2507444Y-8775008D01*
X2507444Y-8775008D02*
X2516968Y-8784531D01*
X2516968Y-8784531D02*
X2526491Y-8803579D01*
X2526491Y-8803579D02*
X2536015Y-8841674D01*
X2536015Y-8841674D02*
X2536015Y-8889293D01*
X2536015Y-8889293D02*
X2526491Y-8927389D01*
X2526491Y-8927389D02*
X2516968Y-8946436D01*
X2516968Y-8946436D02*
X2507444Y-8955960D01*
X2507444Y-8955960D02*
X2488396Y-8965484D01*
X2488396Y-8965484D02*
X2469348Y-8965484D01*
X2469348Y-8965484D02*
X2450301Y-8955960D01*
X2450301Y-8955960D02*
X2440777Y-8946436D01*
X2440777Y-8946436D02*
X2431253Y-8927389D01*
X2431253Y-8927389D02*
X2421729Y-8889293D01*
X2421729Y-8889293D02*
X2421729Y-8841674D01*
X2421729Y-8841674D02*
X2431253Y-8803579D01*
X2431253Y-8803579D02*
X2440777Y-8784531D01*
X2440777Y-8784531D02*
X2450301Y-8775008D01*
X2450301Y-8775008D02*
X2469348Y-8765484D01*
X2602682Y-8765484D02*
X2726491Y-8765484D01*
X2726491Y-8765484D02*
X2659825Y-8841674D01*
X2659825Y-8841674D02*
X2688396Y-8841674D01*
X2688396Y-8841674D02*
X2707444Y-8851198D01*
X2707444Y-8851198D02*
X2716968Y-8860722D01*
X2716968Y-8860722D02*
X2726491Y-8879770D01*
X2726491Y-8879770D02*
X2726491Y-8927389D01*
X2726491Y-8927389D02*
X2716968Y-8946436D01*
X2716968Y-8946436D02*
X2707444Y-8955960D01*
X2707444Y-8955960D02*
X2688396Y-8965484D01*
X2688396Y-8965484D02*
X2631253Y-8965484D01*
X2631253Y-8965484D02*
X2612206Y-8955960D01*
X2612206Y-8955960D02*
X2602682Y-8946436D01*
X2916967Y-8965484D02*
X2802682Y-8965484D01*
X2859825Y-8965484D02*
X2859825Y-8765484D01*
X2859825Y-8765484D02*
X2840777Y-8794055D01*
X2840777Y-8794055D02*
X2821729Y-8813103D01*
X2821729Y-8813103D02*
X2802682Y-8822627D01*
X3097920Y-8765484D02*
X3002682Y-8765484D01*
X3002682Y-8765484D02*
X2993158Y-8860722D01*
X2993158Y-8860722D02*
X3002682Y-8851198D01*
X3002682Y-8851198D02*
X3021729Y-8841674D01*
X3021729Y-8841674D02*
X3069348Y-8841674D01*
X3069348Y-8841674D02*
X3088396Y-8851198D01*
X3088396Y-8851198D02*
X3097920Y-8860722D01*
X3097920Y-8860722D02*
X3107444Y-8879770D01*
X3107444Y-8879770D02*
X3107444Y-8927389D01*
X3107444Y-8927389D02*
X3097920Y-8946436D01*
X3097920Y-8946436D02*
X3088396Y-8955960D01*
X3088396Y-8955960D02*
X3069348Y-8965484D01*
X3069348Y-8965484D02*
X3021729Y-8965484D01*
X3021729Y-8965484D02*
X3002682Y-8955960D01*
X3002682Y-8955960D02*
X2993158Y-8946436D01*
X3183634Y-8765484D02*
X3183634Y-8803579D01*
X3259825Y-8765484D02*
X3259825Y-8803579D01*
X3555063Y-9041674D02*
X3545539Y-9032150D01*
X3545539Y-9032150D02*
X3526491Y-9003579D01*
X3526491Y-9003579D02*
X3516968Y-8984531D01*
X3516968Y-8984531D02*
X3507444Y-8955960D01*
X3507444Y-8955960D02*
X3497920Y-8908341D01*
X3497920Y-8908341D02*
X3497920Y-8870246D01*
X3497920Y-8870246D02*
X3507444Y-8822627D01*
X3507444Y-8822627D02*
X3516968Y-8794055D01*
X3516968Y-8794055D02*
X3526491Y-8775008D01*
X3526491Y-8775008D02*
X3545539Y-8746436D01*
X3545539Y-8746436D02*
X3555063Y-8736912D01*
X3726491Y-8765484D02*
X3631253Y-8765484D01*
X3631253Y-8765484D02*
X3621729Y-8860722D01*
X3621729Y-8860722D02*
X3631253Y-8851198D01*
X3631253Y-8851198D02*
X3650301Y-8841674D01*
X3650301Y-8841674D02*
X3697920Y-8841674D01*
X3697920Y-8841674D02*
X3716968Y-8851198D01*
X3716968Y-8851198D02*
X3726491Y-8860722D01*
X3726491Y-8860722D02*
X3736015Y-8879770D01*
X3736015Y-8879770D02*
X3736015Y-8927389D01*
X3736015Y-8927389D02*
X3726491Y-8946436D01*
X3726491Y-8946436D02*
X3716968Y-8955960D01*
X3716968Y-8955960D02*
X3697920Y-8965484D01*
X3697920Y-8965484D02*
X3650301Y-8965484D01*
X3650301Y-8965484D02*
X3631253Y-8955960D01*
X3631253Y-8955960D02*
X3621729Y-8946436D01*
X3812206Y-8784531D02*
X3821729Y-8775008D01*
X3821729Y-8775008D02*
X3840777Y-8765484D01*
X3840777Y-8765484D02*
X3888396Y-8765484D01*
X3888396Y-8765484D02*
X3907444Y-8775008D01*
X3907444Y-8775008D02*
X3916968Y-8784531D01*
X3916968Y-8784531D02*
X3926491Y-8803579D01*
X3926491Y-8803579D02*
X3926491Y-8822627D01*
X3926491Y-8822627D02*
X3916968Y-8851198D01*
X3916968Y-8851198D02*
X3802682Y-8965484D01*
X3802682Y-8965484D02*
X3926491Y-8965484D01*
X4164587Y-8965484D02*
X4164587Y-8765484D01*
X4250301Y-8965484D02*
X4250301Y-8860722D01*
X4250301Y-8860722D02*
X4240777Y-8841674D01*
X4240777Y-8841674D02*
X4221730Y-8832150D01*
X4221730Y-8832150D02*
X4193158Y-8832150D01*
X4193158Y-8832150D02*
X4174110Y-8841674D01*
X4174110Y-8841674D02*
X4164587Y-8851198D01*
X4374111Y-8965484D02*
X4355063Y-8955960D01*
X4355063Y-8955960D02*
X4345539Y-8946436D01*
X4345539Y-8946436D02*
X4336015Y-8927389D01*
X4336015Y-8927389D02*
X4336015Y-8870246D01*
X4336015Y-8870246D02*
X4345539Y-8851198D01*
X4345539Y-8851198D02*
X4355063Y-8841674D01*
X4355063Y-8841674D02*
X4374111Y-8832150D01*
X4374111Y-8832150D02*
X4402682Y-8832150D01*
X4402682Y-8832150D02*
X4421730Y-8841674D01*
X4421730Y-8841674D02*
X4431253Y-8851198D01*
X4431253Y-8851198D02*
X4440777Y-8870246D01*
X4440777Y-8870246D02*
X4440777Y-8927389D01*
X4440777Y-8927389D02*
X4431253Y-8946436D01*
X4431253Y-8946436D02*
X4421730Y-8955960D01*
X4421730Y-8955960D02*
X4402682Y-8965484D01*
X4402682Y-8965484D02*
X4374111Y-8965484D01*
X4555063Y-8965484D02*
X4536015Y-8955960D01*
X4536015Y-8955960D02*
X4526492Y-8936912D01*
X4526492Y-8936912D02*
X4526492Y-8765484D01*
X4707444Y-8955960D02*
X4688396Y-8965484D01*
X4688396Y-8965484D02*
X4650301Y-8965484D01*
X4650301Y-8965484D02*
X4631253Y-8955960D01*
X4631253Y-8955960D02*
X4621730Y-8936912D01*
X4621730Y-8936912D02*
X4621730Y-8860722D01*
X4621730Y-8860722D02*
X4631253Y-8841674D01*
X4631253Y-8841674D02*
X4650301Y-8832150D01*
X4650301Y-8832150D02*
X4688396Y-8832150D01*
X4688396Y-8832150D02*
X4707444Y-8841674D01*
X4707444Y-8841674D02*
X4716968Y-8860722D01*
X4716968Y-8860722D02*
X4716968Y-8879770D01*
X4716968Y-8879770D02*
X4621730Y-8898817D01*
X4793158Y-8955960D02*
X4812206Y-8965484D01*
X4812206Y-8965484D02*
X4850301Y-8965484D01*
X4850301Y-8965484D02*
X4869349Y-8955960D01*
X4869349Y-8955960D02*
X4878873Y-8936912D01*
X4878873Y-8936912D02*
X4878873Y-8927389D01*
X4878873Y-8927389D02*
X4869349Y-8908341D01*
X4869349Y-8908341D02*
X4850301Y-8898817D01*
X4850301Y-8898817D02*
X4821730Y-8898817D01*
X4821730Y-8898817D02*
X4802682Y-8889293D01*
X4802682Y-8889293D02*
X4793158Y-8870246D01*
X4793158Y-8870246D02*
X4793158Y-8860722D01*
X4793158Y-8860722D02*
X4802682Y-8841674D01*
X4802682Y-8841674D02*
X4821730Y-8832150D01*
X4821730Y-8832150D02*
X4850301Y-8832150D01*
X4850301Y-8832150D02*
X4869349Y-8841674D01*
X4945539Y-9041674D02*
X4955063Y-9032150D01*
X4955063Y-9032150D02*
X4974111Y-9003579D01*
X4974111Y-9003579D02*
X4983634Y-8984531D01*
X4983634Y-8984531D02*
X4993158Y-8955960D01*
X4993158Y-8955960D02*
X5002682Y-8908341D01*
X5002682Y-8908341D02*
X5002682Y-8870246D01*
X5002682Y-8870246D02*
X4993158Y-8822627D01*
X4993158Y-8822627D02*
X4983634Y-8794055D01*
X4983634Y-8794055D02*
X4974111Y-8775008D01*
X4974111Y-8775008D02*
X4955063Y-8746436D01*
X4955063Y-8746436D02*
X4945539Y-8736912D01*
D11*
X-70000Y-9088000D02*
X-70000Y-9188000D01*
X-120000Y-9138000D02*
X-20000Y-9138000D01*
D10*
X345539Y-9229484D02*
X231253Y-9229484D01*
X288396Y-9229484D02*
X288396Y-9029484D01*
X288396Y-9029484D02*
X269348Y-9058055D01*
X269348Y-9058055D02*
X250301Y-9077103D01*
X250301Y-9077103D02*
X231253Y-9086627D01*
X431253Y-9210436D02*
X440777Y-9219960D01*
X440777Y-9219960D02*
X431253Y-9229484D01*
X431253Y-9229484D02*
X421729Y-9219960D01*
X421729Y-9219960D02*
X431253Y-9210436D01*
X431253Y-9210436D02*
X431253Y-9229484D01*
X564586Y-9029484D02*
X583634Y-9029484D01*
X583634Y-9029484D02*
X602682Y-9039008D01*
X602682Y-9039008D02*
X612205Y-9048531D01*
X612205Y-9048531D02*
X621729Y-9067579D01*
X621729Y-9067579D02*
X631253Y-9105674D01*
X631253Y-9105674D02*
X631253Y-9153293D01*
X631253Y-9153293D02*
X621729Y-9191389D01*
X621729Y-9191389D02*
X612205Y-9210436D01*
X612205Y-9210436D02*
X602682Y-9219960D01*
X602682Y-9219960D02*
X583634Y-9229484D01*
X583634Y-9229484D02*
X564586Y-9229484D01*
X564586Y-9229484D02*
X545539Y-9219960D01*
X545539Y-9219960D02*
X536015Y-9210436D01*
X536015Y-9210436D02*
X526491Y-9191389D01*
X526491Y-9191389D02*
X516967Y-9153293D01*
X516967Y-9153293D02*
X516967Y-9105674D01*
X516967Y-9105674D02*
X526491Y-9067579D01*
X526491Y-9067579D02*
X536015Y-9048531D01*
X536015Y-9048531D02*
X545539Y-9039008D01*
X545539Y-9039008D02*
X564586Y-9029484D01*
X755062Y-9029484D02*
X774110Y-9029484D01*
X774110Y-9029484D02*
X793158Y-9039008D01*
X793158Y-9039008D02*
X802682Y-9048531D01*
X802682Y-9048531D02*
X812205Y-9067579D01*
X812205Y-9067579D02*
X821729Y-9105674D01*
X821729Y-9105674D02*
X821729Y-9153293D01*
X821729Y-9153293D02*
X812205Y-9191389D01*
X812205Y-9191389D02*
X802682Y-9210436D01*
X802682Y-9210436D02*
X793158Y-9219960D01*
X793158Y-9219960D02*
X774110Y-9229484D01*
X774110Y-9229484D02*
X755062Y-9229484D01*
X755062Y-9229484D02*
X736015Y-9219960D01*
X736015Y-9219960D02*
X726491Y-9210436D01*
X726491Y-9210436D02*
X716967Y-9191389D01*
X716967Y-9191389D02*
X707443Y-9153293D01*
X707443Y-9153293D02*
X707443Y-9105674D01*
X707443Y-9105674D02*
X716967Y-9067579D01*
X716967Y-9067579D02*
X726491Y-9048531D01*
X726491Y-9048531D02*
X736015Y-9039008D01*
X736015Y-9039008D02*
X755062Y-9029484D01*
X945539Y-9029484D02*
X964586Y-9029484D01*
X964586Y-9029484D02*
X983634Y-9039008D01*
X983634Y-9039008D02*
X993158Y-9048531D01*
X993158Y-9048531D02*
X1002682Y-9067579D01*
X1002682Y-9067579D02*
X1012205Y-9105674D01*
X1012205Y-9105674D02*
X1012205Y-9153293D01*
X1012205Y-9153293D02*
X1002682Y-9191389D01*
X1002682Y-9191389D02*
X993158Y-9210436D01*
X993158Y-9210436D02*
X983634Y-9219960D01*
X983634Y-9219960D02*
X964586Y-9229484D01*
X964586Y-9229484D02*
X945539Y-9229484D01*
X945539Y-9229484D02*
X926491Y-9219960D01*
X926491Y-9219960D02*
X916967Y-9210436D01*
X916967Y-9210436D02*
X907443Y-9191389D01*
X907443Y-9191389D02*
X897920Y-9153293D01*
X897920Y-9153293D02*
X897920Y-9105674D01*
X897920Y-9105674D02*
X907443Y-9067579D01*
X907443Y-9067579D02*
X916967Y-9048531D01*
X916967Y-9048531D02*
X926491Y-9039008D01*
X926491Y-9039008D02*
X945539Y-9029484D01*
X1097920Y-9229484D02*
X1097920Y-9096150D01*
X1097920Y-9115198D02*
X1107444Y-9105674D01*
X1107444Y-9105674D02*
X1126491Y-9096150D01*
X1126491Y-9096150D02*
X1155063Y-9096150D01*
X1155063Y-9096150D02*
X1174110Y-9105674D01*
X1174110Y-9105674D02*
X1183634Y-9124722D01*
X1183634Y-9124722D02*
X1183634Y-9229484D01*
X1183634Y-9124722D02*
X1193158Y-9105674D01*
X1193158Y-9105674D02*
X1212205Y-9096150D01*
X1212205Y-9096150D02*
X1240777Y-9096150D01*
X1240777Y-9096150D02*
X1259825Y-9105674D01*
X1259825Y-9105674D02*
X1269348Y-9124722D01*
X1269348Y-9124722D02*
X1269348Y-9229484D01*
X1364586Y-9229484D02*
X1364586Y-9096150D01*
X1364586Y-9115198D02*
X1374110Y-9105674D01*
X1374110Y-9105674D02*
X1393158Y-9096150D01*
X1393158Y-9096150D02*
X1421729Y-9096150D01*
X1421729Y-9096150D02*
X1440777Y-9105674D01*
X1440777Y-9105674D02*
X1450301Y-9124722D01*
X1450301Y-9124722D02*
X1450301Y-9229484D01*
X1450301Y-9124722D02*
X1459824Y-9105674D01*
X1459824Y-9105674D02*
X1478872Y-9096150D01*
X1478872Y-9096150D02*
X1507443Y-9096150D01*
X1507443Y-9096150D02*
X1526491Y-9105674D01*
X1526491Y-9105674D02*
X1536015Y-9124722D01*
X1536015Y-9124722D02*
X1536015Y-9229484D01*
X1926491Y-9019960D02*
X1755063Y-9277103D01*
X2183634Y-9029484D02*
X2202682Y-9029484D01*
X2202682Y-9029484D02*
X2221729Y-9039008D01*
X2221729Y-9039008D02*
X2231253Y-9048531D01*
X2231253Y-9048531D02*
X2240777Y-9067579D01*
X2240777Y-9067579D02*
X2250301Y-9105674D01*
X2250301Y-9105674D02*
X2250301Y-9153293D01*
X2250301Y-9153293D02*
X2240777Y-9191389D01*
X2240777Y-9191389D02*
X2231253Y-9210436D01*
X2231253Y-9210436D02*
X2221729Y-9219960D01*
X2221729Y-9219960D02*
X2202682Y-9229484D01*
X2202682Y-9229484D02*
X2183634Y-9229484D01*
X2183634Y-9229484D02*
X2164587Y-9219960D01*
X2164587Y-9219960D02*
X2155063Y-9210436D01*
X2155063Y-9210436D02*
X2145539Y-9191389D01*
X2145539Y-9191389D02*
X2136015Y-9153293D01*
X2136015Y-9153293D02*
X2136015Y-9105674D01*
X2136015Y-9105674D02*
X2145539Y-9067579D01*
X2145539Y-9067579D02*
X2155063Y-9048531D01*
X2155063Y-9048531D02*
X2164587Y-9039008D01*
X2164587Y-9039008D02*
X2183634Y-9029484D01*
X2336015Y-9210436D02*
X2345539Y-9219960D01*
X2345539Y-9219960D02*
X2336015Y-9229484D01*
X2336015Y-9229484D02*
X2326491Y-9219960D01*
X2326491Y-9219960D02*
X2336015Y-9210436D01*
X2336015Y-9210436D02*
X2336015Y-9229484D01*
X2469348Y-9029484D02*
X2488396Y-9029484D01*
X2488396Y-9029484D02*
X2507444Y-9039008D01*
X2507444Y-9039008D02*
X2516968Y-9048531D01*
X2516968Y-9048531D02*
X2526491Y-9067579D01*
X2526491Y-9067579D02*
X2536015Y-9105674D01*
X2536015Y-9105674D02*
X2536015Y-9153293D01*
X2536015Y-9153293D02*
X2526491Y-9191389D01*
X2526491Y-9191389D02*
X2516968Y-9210436D01*
X2516968Y-9210436D02*
X2507444Y-9219960D01*
X2507444Y-9219960D02*
X2488396Y-9229484D01*
X2488396Y-9229484D02*
X2469348Y-9229484D01*
X2469348Y-9229484D02*
X2450301Y-9219960D01*
X2450301Y-9219960D02*
X2440777Y-9210436D01*
X2440777Y-9210436D02*
X2431253Y-9191389D01*
X2431253Y-9191389D02*
X2421729Y-9153293D01*
X2421729Y-9153293D02*
X2421729Y-9105674D01*
X2421729Y-9105674D02*
X2431253Y-9067579D01*
X2431253Y-9067579D02*
X2440777Y-9048531D01*
X2440777Y-9048531D02*
X2450301Y-9039008D01*
X2450301Y-9039008D02*
X2469348Y-9029484D01*
X2602682Y-9029484D02*
X2726491Y-9029484D01*
X2726491Y-9029484D02*
X2659825Y-9105674D01*
X2659825Y-9105674D02*
X2688396Y-9105674D01*
X2688396Y-9105674D02*
X2707444Y-9115198D01*
X2707444Y-9115198D02*
X2716968Y-9124722D01*
X2716968Y-9124722D02*
X2726491Y-9143770D01*
X2726491Y-9143770D02*
X2726491Y-9191389D01*
X2726491Y-9191389D02*
X2716968Y-9210436D01*
X2716968Y-9210436D02*
X2707444Y-9219960D01*
X2707444Y-9219960D02*
X2688396Y-9229484D01*
X2688396Y-9229484D02*
X2631253Y-9229484D01*
X2631253Y-9229484D02*
X2612206Y-9219960D01*
X2612206Y-9219960D02*
X2602682Y-9210436D01*
X2821729Y-9229484D02*
X2859825Y-9229484D01*
X2859825Y-9229484D02*
X2878872Y-9219960D01*
X2878872Y-9219960D02*
X2888396Y-9210436D01*
X2888396Y-9210436D02*
X2907444Y-9181865D01*
X2907444Y-9181865D02*
X2916967Y-9143770D01*
X2916967Y-9143770D02*
X2916967Y-9067579D01*
X2916967Y-9067579D02*
X2907444Y-9048531D01*
X2907444Y-9048531D02*
X2897920Y-9039008D01*
X2897920Y-9039008D02*
X2878872Y-9029484D01*
X2878872Y-9029484D02*
X2840777Y-9029484D01*
X2840777Y-9029484D02*
X2821729Y-9039008D01*
X2821729Y-9039008D02*
X2812206Y-9048531D01*
X2812206Y-9048531D02*
X2802682Y-9067579D01*
X2802682Y-9067579D02*
X2802682Y-9115198D01*
X2802682Y-9115198D02*
X2812206Y-9134246D01*
X2812206Y-9134246D02*
X2821729Y-9143770D01*
X2821729Y-9143770D02*
X2840777Y-9153293D01*
X2840777Y-9153293D02*
X2878872Y-9153293D01*
X2878872Y-9153293D02*
X2897920Y-9143770D01*
X2897920Y-9143770D02*
X2907444Y-9134246D01*
X2907444Y-9134246D02*
X2916967Y-9115198D01*
X3088396Y-9096150D02*
X3088396Y-9229484D01*
X3040777Y-9019960D02*
X2993158Y-9162817D01*
X2993158Y-9162817D02*
X3116967Y-9162817D01*
X3183634Y-9029484D02*
X3183634Y-9067579D01*
X3259825Y-9029484D02*
X3259825Y-9067579D01*
X3555063Y-9305674D02*
X3545539Y-9296150D01*
X3545539Y-9296150D02*
X3526491Y-9267579D01*
X3526491Y-9267579D02*
X3516968Y-9248531D01*
X3516968Y-9248531D02*
X3507444Y-9219960D01*
X3507444Y-9219960D02*
X3497920Y-9172341D01*
X3497920Y-9172341D02*
X3497920Y-9134246D01*
X3497920Y-9134246D02*
X3507444Y-9086627D01*
X3507444Y-9086627D02*
X3516968Y-9058055D01*
X3516968Y-9058055D02*
X3526491Y-9039008D01*
X3526491Y-9039008D02*
X3545539Y-9010436D01*
X3545539Y-9010436D02*
X3555063Y-9000912D01*
X3716968Y-9096150D02*
X3716968Y-9229484D01*
X3669348Y-9019960D02*
X3621729Y-9162817D01*
X3621729Y-9162817D02*
X3745539Y-9162817D01*
X3907444Y-9096150D02*
X3907444Y-9229484D01*
X3859825Y-9019960D02*
X3812206Y-9162817D01*
X3812206Y-9162817D02*
X3936015Y-9162817D01*
X4164587Y-9229484D02*
X4164587Y-9029484D01*
X4250301Y-9229484D02*
X4250301Y-9124722D01*
X4250301Y-9124722D02*
X4240777Y-9105674D01*
X4240777Y-9105674D02*
X4221730Y-9096150D01*
X4221730Y-9096150D02*
X4193158Y-9096150D01*
X4193158Y-9096150D02*
X4174110Y-9105674D01*
X4174110Y-9105674D02*
X4164587Y-9115198D01*
X4374111Y-9229484D02*
X4355063Y-9219960D01*
X4355063Y-9219960D02*
X4345539Y-9210436D01*
X4345539Y-9210436D02*
X4336015Y-9191389D01*
X4336015Y-9191389D02*
X4336015Y-9134246D01*
X4336015Y-9134246D02*
X4345539Y-9115198D01*
X4345539Y-9115198D02*
X4355063Y-9105674D01*
X4355063Y-9105674D02*
X4374111Y-9096150D01*
X4374111Y-9096150D02*
X4402682Y-9096150D01*
X4402682Y-9096150D02*
X4421730Y-9105674D01*
X4421730Y-9105674D02*
X4431253Y-9115198D01*
X4431253Y-9115198D02*
X4440777Y-9134246D01*
X4440777Y-9134246D02*
X4440777Y-9191389D01*
X4440777Y-9191389D02*
X4431253Y-9210436D01*
X4431253Y-9210436D02*
X4421730Y-9219960D01*
X4421730Y-9219960D02*
X4402682Y-9229484D01*
X4402682Y-9229484D02*
X4374111Y-9229484D01*
X4555063Y-9229484D02*
X4536015Y-9219960D01*
X4536015Y-9219960D02*
X4526492Y-9200912D01*
X4526492Y-9200912D02*
X4526492Y-9029484D01*
X4707444Y-9219960D02*
X4688396Y-9229484D01*
X4688396Y-9229484D02*
X4650301Y-9229484D01*
X4650301Y-9229484D02*
X4631253Y-9219960D01*
X4631253Y-9219960D02*
X4621730Y-9200912D01*
X4621730Y-9200912D02*
X4621730Y-9124722D01*
X4621730Y-9124722D02*
X4631253Y-9105674D01*
X4631253Y-9105674D02*
X4650301Y-9096150D01*
X4650301Y-9096150D02*
X4688396Y-9096150D01*
X4688396Y-9096150D02*
X4707444Y-9105674D01*
X4707444Y-9105674D02*
X4716968Y-9124722D01*
X4716968Y-9124722D02*
X4716968Y-9143770D01*
X4716968Y-9143770D02*
X4621730Y-9162817D01*
X4793158Y-9219960D02*
X4812206Y-9229484D01*
X4812206Y-9229484D02*
X4850301Y-9229484D01*
X4850301Y-9229484D02*
X4869349Y-9219960D01*
X4869349Y-9219960D02*
X4878873Y-9200912D01*
X4878873Y-9200912D02*
X4878873Y-9191389D01*
X4878873Y-9191389D02*
X4869349Y-9172341D01*
X4869349Y-9172341D02*
X4850301Y-9162817D01*
X4850301Y-9162817D02*
X4821730Y-9162817D01*
X4821730Y-9162817D02*
X4802682Y-9153293D01*
X4802682Y-9153293D02*
X4793158Y-9134246D01*
X4793158Y-9134246D02*
X4793158Y-9124722D01*
X4793158Y-9124722D02*
X4802682Y-9105674D01*
X4802682Y-9105674D02*
X4821730Y-9096150D01*
X4821730Y-9096150D02*
X4850301Y-9096150D01*
X4850301Y-9096150D02*
X4869349Y-9105674D01*
X4945539Y-9305674D02*
X4955063Y-9296150D01*
X4955063Y-9296150D02*
X4974111Y-9267579D01*
X4974111Y-9267579D02*
X4983634Y-9248531D01*
X4983634Y-9248531D02*
X4993158Y-9219960D01*
X4993158Y-9219960D02*
X5002682Y-9172341D01*
X5002682Y-9172341D02*
X5002682Y-9134246D01*
X5002682Y-9134246D02*
X4993158Y-9086627D01*
X4993158Y-9086627D02*
X4983634Y-9058055D01*
X4983634Y-9058055D02*
X4974111Y-9039008D01*
X4974111Y-9039008D02*
X4955063Y-9010436D01*
X4955063Y-9010436D02*
X4945539Y-9000912D01*
D12*
X-41967Y-9455034D02*
X-41967Y-9348967D01*
X-148034Y-9348967D01*
X-148034Y-9455034D01*
X-41967Y-9455034D01*
D10*
X345539Y-9493484D02*
X231253Y-9493484D01*
X288396Y-9493484D02*
X288396Y-9293484D01*
X288396Y-9293484D02*
X269348Y-9322055D01*
X269348Y-9322055D02*
X250301Y-9341103D01*
X250301Y-9341103D02*
X231253Y-9350627D01*
X431253Y-9474436D02*
X440777Y-9483960D01*
X440777Y-9483960D02*
X431253Y-9493484D01*
X431253Y-9493484D02*
X421729Y-9483960D01*
X421729Y-9483960D02*
X431253Y-9474436D01*
X431253Y-9474436D02*
X431253Y-9493484D01*
X621729Y-9293484D02*
X526491Y-9293484D01*
X526491Y-9293484D02*
X516967Y-9388722D01*
X516967Y-9388722D02*
X526491Y-9379198D01*
X526491Y-9379198D02*
X545539Y-9369674D01*
X545539Y-9369674D02*
X593158Y-9369674D01*
X593158Y-9369674D02*
X612205Y-9379198D01*
X612205Y-9379198D02*
X621729Y-9388722D01*
X621729Y-9388722D02*
X631253Y-9407770D01*
X631253Y-9407770D02*
X631253Y-9455389D01*
X631253Y-9455389D02*
X621729Y-9474436D01*
X621729Y-9474436D02*
X612205Y-9483960D01*
X612205Y-9483960D02*
X593158Y-9493484D01*
X593158Y-9493484D02*
X545539Y-9493484D01*
X545539Y-9493484D02*
X526491Y-9483960D01*
X526491Y-9483960D02*
X516967Y-9474436D01*
X755062Y-9293484D02*
X774110Y-9293484D01*
X774110Y-9293484D02*
X793158Y-9303008D01*
X793158Y-9303008D02*
X802682Y-9312531D01*
X802682Y-9312531D02*
X812205Y-9331579D01*
X812205Y-9331579D02*
X821729Y-9369674D01*
X821729Y-9369674D02*
X821729Y-9417293D01*
X821729Y-9417293D02*
X812205Y-9455389D01*
X812205Y-9455389D02*
X802682Y-9474436D01*
X802682Y-9474436D02*
X793158Y-9483960D01*
X793158Y-9483960D02*
X774110Y-9493484D01*
X774110Y-9493484D02*
X755062Y-9493484D01*
X755062Y-9493484D02*
X736015Y-9483960D01*
X736015Y-9483960D02*
X726491Y-9474436D01*
X726491Y-9474436D02*
X716967Y-9455389D01*
X716967Y-9455389D02*
X707443Y-9417293D01*
X707443Y-9417293D02*
X707443Y-9369674D01*
X707443Y-9369674D02*
X716967Y-9331579D01*
X716967Y-9331579D02*
X726491Y-9312531D01*
X726491Y-9312531D02*
X736015Y-9303008D01*
X736015Y-9303008D02*
X755062Y-9293484D01*
X945539Y-9293484D02*
X964586Y-9293484D01*
X964586Y-9293484D02*
X983634Y-9303008D01*
X983634Y-9303008D02*
X993158Y-9312531D01*
X993158Y-9312531D02*
X1002682Y-9331579D01*
X1002682Y-9331579D02*
X1012205Y-9369674D01*
X1012205Y-9369674D02*
X1012205Y-9417293D01*
X1012205Y-9417293D02*
X1002682Y-9455389D01*
X1002682Y-9455389D02*
X993158Y-9474436D01*
X993158Y-9474436D02*
X983634Y-9483960D01*
X983634Y-9483960D02*
X964586Y-9493484D01*
X964586Y-9493484D02*
X945539Y-9493484D01*
X945539Y-9493484D02*
X926491Y-9483960D01*
X926491Y-9483960D02*
X916967Y-9474436D01*
X916967Y-9474436D02*
X907443Y-9455389D01*
X907443Y-9455389D02*
X897920Y-9417293D01*
X897920Y-9417293D02*
X897920Y-9369674D01*
X897920Y-9369674D02*
X907443Y-9331579D01*
X907443Y-9331579D02*
X916967Y-9312531D01*
X916967Y-9312531D02*
X926491Y-9303008D01*
X926491Y-9303008D02*
X945539Y-9293484D01*
X1097920Y-9493484D02*
X1097920Y-9360150D01*
X1097920Y-9379198D02*
X1107444Y-9369674D01*
X1107444Y-9369674D02*
X1126491Y-9360150D01*
X1126491Y-9360150D02*
X1155063Y-9360150D01*
X1155063Y-9360150D02*
X1174110Y-9369674D01*
X1174110Y-9369674D02*
X1183634Y-9388722D01*
X1183634Y-9388722D02*
X1183634Y-9493484D01*
X1183634Y-9388722D02*
X1193158Y-9369674D01*
X1193158Y-9369674D02*
X1212205Y-9360150D01*
X1212205Y-9360150D02*
X1240777Y-9360150D01*
X1240777Y-9360150D02*
X1259825Y-9369674D01*
X1259825Y-9369674D02*
X1269348Y-9388722D01*
X1269348Y-9388722D02*
X1269348Y-9493484D01*
X1364586Y-9493484D02*
X1364586Y-9360150D01*
X1364586Y-9379198D02*
X1374110Y-9369674D01*
X1374110Y-9369674D02*
X1393158Y-9360150D01*
X1393158Y-9360150D02*
X1421729Y-9360150D01*
X1421729Y-9360150D02*
X1440777Y-9369674D01*
X1440777Y-9369674D02*
X1450301Y-9388722D01*
X1450301Y-9388722D02*
X1450301Y-9493484D01*
X1450301Y-9388722D02*
X1459824Y-9369674D01*
X1459824Y-9369674D02*
X1478872Y-9360150D01*
X1478872Y-9360150D02*
X1507443Y-9360150D01*
X1507443Y-9360150D02*
X1526491Y-9369674D01*
X1526491Y-9369674D02*
X1536015Y-9388722D01*
X1536015Y-9388722D02*
X1536015Y-9493484D01*
X1926491Y-9283960D02*
X1755063Y-9541103D01*
X2183634Y-9293484D02*
X2202682Y-9293484D01*
X2202682Y-9293484D02*
X2221729Y-9303008D01*
X2221729Y-9303008D02*
X2231253Y-9312531D01*
X2231253Y-9312531D02*
X2240777Y-9331579D01*
X2240777Y-9331579D02*
X2250301Y-9369674D01*
X2250301Y-9369674D02*
X2250301Y-9417293D01*
X2250301Y-9417293D02*
X2240777Y-9455389D01*
X2240777Y-9455389D02*
X2231253Y-9474436D01*
X2231253Y-9474436D02*
X2221729Y-9483960D01*
X2221729Y-9483960D02*
X2202682Y-9493484D01*
X2202682Y-9493484D02*
X2183634Y-9493484D01*
X2183634Y-9493484D02*
X2164587Y-9483960D01*
X2164587Y-9483960D02*
X2155063Y-9474436D01*
X2155063Y-9474436D02*
X2145539Y-9455389D01*
X2145539Y-9455389D02*
X2136015Y-9417293D01*
X2136015Y-9417293D02*
X2136015Y-9369674D01*
X2136015Y-9369674D02*
X2145539Y-9331579D01*
X2145539Y-9331579D02*
X2155063Y-9312531D01*
X2155063Y-9312531D02*
X2164587Y-9303008D01*
X2164587Y-9303008D02*
X2183634Y-9293484D01*
X2336015Y-9474436D02*
X2345539Y-9483960D01*
X2345539Y-9483960D02*
X2336015Y-9493484D01*
X2336015Y-9493484D02*
X2326491Y-9483960D01*
X2326491Y-9483960D02*
X2336015Y-9474436D01*
X2336015Y-9474436D02*
X2336015Y-9493484D01*
X2469348Y-9293484D02*
X2488396Y-9293484D01*
X2488396Y-9293484D02*
X2507444Y-9303008D01*
X2507444Y-9303008D02*
X2516968Y-9312531D01*
X2516968Y-9312531D02*
X2526491Y-9331579D01*
X2526491Y-9331579D02*
X2536015Y-9369674D01*
X2536015Y-9369674D02*
X2536015Y-9417293D01*
X2536015Y-9417293D02*
X2526491Y-9455389D01*
X2526491Y-9455389D02*
X2516968Y-9474436D01*
X2516968Y-9474436D02*
X2507444Y-9483960D01*
X2507444Y-9483960D02*
X2488396Y-9493484D01*
X2488396Y-9493484D02*
X2469348Y-9493484D01*
X2469348Y-9493484D02*
X2450301Y-9483960D01*
X2450301Y-9483960D02*
X2440777Y-9474436D01*
X2440777Y-9474436D02*
X2431253Y-9455389D01*
X2431253Y-9455389D02*
X2421729Y-9417293D01*
X2421729Y-9417293D02*
X2421729Y-9369674D01*
X2421729Y-9369674D02*
X2431253Y-9331579D01*
X2431253Y-9331579D02*
X2440777Y-9312531D01*
X2440777Y-9312531D02*
X2450301Y-9303008D01*
X2450301Y-9303008D02*
X2469348Y-9293484D01*
X2716968Y-9293484D02*
X2621729Y-9293484D01*
X2621729Y-9293484D02*
X2612206Y-9388722D01*
X2612206Y-9388722D02*
X2621729Y-9379198D01*
X2621729Y-9379198D02*
X2640777Y-9369674D01*
X2640777Y-9369674D02*
X2688396Y-9369674D01*
X2688396Y-9369674D02*
X2707444Y-9379198D01*
X2707444Y-9379198D02*
X2716968Y-9388722D01*
X2716968Y-9388722D02*
X2726491Y-9407770D01*
X2726491Y-9407770D02*
X2726491Y-9455389D01*
X2726491Y-9455389D02*
X2716968Y-9474436D01*
X2716968Y-9474436D02*
X2707444Y-9483960D01*
X2707444Y-9483960D02*
X2688396Y-9493484D01*
X2688396Y-9493484D02*
X2640777Y-9493484D01*
X2640777Y-9493484D02*
X2621729Y-9483960D01*
X2621729Y-9483960D02*
X2612206Y-9474436D01*
X2821729Y-9493484D02*
X2859825Y-9493484D01*
X2859825Y-9493484D02*
X2878872Y-9483960D01*
X2878872Y-9483960D02*
X2888396Y-9474436D01*
X2888396Y-9474436D02*
X2907444Y-9445865D01*
X2907444Y-9445865D02*
X2916967Y-9407770D01*
X2916967Y-9407770D02*
X2916967Y-9331579D01*
X2916967Y-9331579D02*
X2907444Y-9312531D01*
X2907444Y-9312531D02*
X2897920Y-9303008D01*
X2897920Y-9303008D02*
X2878872Y-9293484D01*
X2878872Y-9293484D02*
X2840777Y-9293484D01*
X2840777Y-9293484D02*
X2821729Y-9303008D01*
X2821729Y-9303008D02*
X2812206Y-9312531D01*
X2812206Y-9312531D02*
X2802682Y-9331579D01*
X2802682Y-9331579D02*
X2802682Y-9379198D01*
X2802682Y-9379198D02*
X2812206Y-9398246D01*
X2812206Y-9398246D02*
X2821729Y-9407770D01*
X2821729Y-9407770D02*
X2840777Y-9417293D01*
X2840777Y-9417293D02*
X2878872Y-9417293D01*
X2878872Y-9417293D02*
X2897920Y-9407770D01*
X2897920Y-9407770D02*
X2907444Y-9398246D01*
X2907444Y-9398246D02*
X2916967Y-9379198D01*
X3107444Y-9493484D02*
X2993158Y-9493484D01*
X3050301Y-9493484D02*
X3050301Y-9293484D01*
X3050301Y-9293484D02*
X3031253Y-9322055D01*
X3031253Y-9322055D02*
X3012206Y-9341103D01*
X3012206Y-9341103D02*
X2993158Y-9350627D01*
X3183634Y-9293484D02*
X3183634Y-9331579D01*
X3259825Y-9293484D02*
X3259825Y-9331579D01*
X3555063Y-9569674D02*
X3545539Y-9560150D01*
X3545539Y-9560150D02*
X3526491Y-9531579D01*
X3526491Y-9531579D02*
X3516968Y-9512531D01*
X3516968Y-9512531D02*
X3507444Y-9483960D01*
X3507444Y-9483960D02*
X3497920Y-9436341D01*
X3497920Y-9436341D02*
X3497920Y-9398246D01*
X3497920Y-9398246D02*
X3507444Y-9350627D01*
X3507444Y-9350627D02*
X3516968Y-9322055D01*
X3516968Y-9322055D02*
X3526491Y-9303008D01*
X3526491Y-9303008D02*
X3545539Y-9274436D01*
X3545539Y-9274436D02*
X3555063Y-9264912D01*
X3726491Y-9293484D02*
X3631253Y-9293484D01*
X3631253Y-9293484D02*
X3621729Y-9388722D01*
X3621729Y-9388722D02*
X3631253Y-9379198D01*
X3631253Y-9379198D02*
X3650301Y-9369674D01*
X3650301Y-9369674D02*
X3697920Y-9369674D01*
X3697920Y-9369674D02*
X3716968Y-9379198D01*
X3716968Y-9379198D02*
X3726491Y-9388722D01*
X3726491Y-9388722D02*
X3736015Y-9407770D01*
X3736015Y-9407770D02*
X3736015Y-9455389D01*
X3736015Y-9455389D02*
X3726491Y-9474436D01*
X3726491Y-9474436D02*
X3716968Y-9483960D01*
X3716968Y-9483960D02*
X3697920Y-9493484D01*
X3697920Y-9493484D02*
X3650301Y-9493484D01*
X3650301Y-9493484D02*
X3631253Y-9483960D01*
X3631253Y-9483960D02*
X3621729Y-9474436D01*
X3974110Y-9493484D02*
X3974110Y-9293484D01*
X4059825Y-9493484D02*
X4059825Y-9388722D01*
X4059825Y-9388722D02*
X4050301Y-9369674D01*
X4050301Y-9369674D02*
X4031253Y-9360150D01*
X4031253Y-9360150D02*
X4002682Y-9360150D01*
X4002682Y-9360150D02*
X3983634Y-9369674D01*
X3983634Y-9369674D02*
X3974110Y-9379198D01*
X4183634Y-9493484D02*
X4164587Y-9483960D01*
X4164587Y-9483960D02*
X4155063Y-9474436D01*
X4155063Y-9474436D02*
X4145539Y-9455389D01*
X4145539Y-9455389D02*
X4145539Y-9398246D01*
X4145539Y-9398246D02*
X4155063Y-9379198D01*
X4155063Y-9379198D02*
X4164587Y-9369674D01*
X4164587Y-9369674D02*
X4183634Y-9360150D01*
X4183634Y-9360150D02*
X4212206Y-9360150D01*
X4212206Y-9360150D02*
X4231253Y-9369674D01*
X4231253Y-9369674D02*
X4240777Y-9379198D01*
X4240777Y-9379198D02*
X4250301Y-9398246D01*
X4250301Y-9398246D02*
X4250301Y-9455389D01*
X4250301Y-9455389D02*
X4240777Y-9474436D01*
X4240777Y-9474436D02*
X4231253Y-9483960D01*
X4231253Y-9483960D02*
X4212206Y-9493484D01*
X4212206Y-9493484D02*
X4183634Y-9493484D01*
X4364587Y-9493484D02*
X4345539Y-9483960D01*
X4345539Y-9483960D02*
X4336015Y-9464912D01*
X4336015Y-9464912D02*
X4336015Y-9293484D01*
X4516968Y-9483960D02*
X4497920Y-9493484D01*
X4497920Y-9493484D02*
X4459825Y-9493484D01*
X4459825Y-9493484D02*
X4440777Y-9483960D01*
X4440777Y-9483960D02*
X4431253Y-9464912D01*
X4431253Y-9464912D02*
X4431253Y-9388722D01*
X4431253Y-9388722D02*
X4440777Y-9369674D01*
X4440777Y-9369674D02*
X4459825Y-9360150D01*
X4459825Y-9360150D02*
X4497920Y-9360150D01*
X4497920Y-9360150D02*
X4516968Y-9369674D01*
X4516968Y-9369674D02*
X4526492Y-9388722D01*
X4526492Y-9388722D02*
X4526492Y-9407770D01*
X4526492Y-9407770D02*
X4431253Y-9426817D01*
X4602682Y-9483960D02*
X4621730Y-9493484D01*
X4621730Y-9493484D02*
X4659825Y-9493484D01*
X4659825Y-9493484D02*
X4678873Y-9483960D01*
X4678873Y-9483960D02*
X4688396Y-9464912D01*
X4688396Y-9464912D02*
X4688396Y-9455389D01*
X4688396Y-9455389D02*
X4678873Y-9436341D01*
X4678873Y-9436341D02*
X4659825Y-9426817D01*
X4659825Y-9426817D02*
X4631253Y-9426817D01*
X4631253Y-9426817D02*
X4612206Y-9417293D01*
X4612206Y-9417293D02*
X4602682Y-9398246D01*
X4602682Y-9398246D02*
X4602682Y-9388722D01*
X4602682Y-9388722D02*
X4612206Y-9369674D01*
X4612206Y-9369674D02*
X4631253Y-9360150D01*
X4631253Y-9360150D02*
X4659825Y-9360150D01*
X4659825Y-9360150D02*
X4678873Y-9369674D01*
X4755063Y-9569674D02*
X4764587Y-9560150D01*
X4764587Y-9560150D02*
X4783634Y-9531579D01*
X4783634Y-9531579D02*
X4793158Y-9512531D01*
X4793158Y-9512531D02*
X4802682Y-9483960D01*
X4802682Y-9483960D02*
X4812206Y-9436341D01*
X4812206Y-9436341D02*
X4812206Y-9398246D01*
X4812206Y-9398246D02*
X4802682Y-9350627D01*
X4802682Y-9350627D02*
X4793158Y-9322055D01*
X4793158Y-9322055D02*
X4783634Y-9303008D01*
X4783634Y-9303008D02*
X4764587Y-9274436D01*
X4764587Y-9274436D02*
X4755063Y-9264912D01*
D13*
X-100000Y-9752000D02*
X-20000Y-9672000D01*
X-100000Y-9592000D01*
X-180000Y-9672000D01*
X-100000Y-9752000D01*
D10*
X345539Y-9763484D02*
X231253Y-9763484D01*
X288396Y-9763484D02*
X288396Y-9563484D01*
X288396Y-9563484D02*
X269348Y-9592055D01*
X269348Y-9592055D02*
X250301Y-9611103D01*
X250301Y-9611103D02*
X231253Y-9620627D01*
X431253Y-9744436D02*
X440777Y-9753960D01*
X440777Y-9753960D02*
X431253Y-9763484D01*
X431253Y-9763484D02*
X421729Y-9753960D01*
X421729Y-9753960D02*
X431253Y-9744436D01*
X431253Y-9744436D02*
X431253Y-9763484D01*
X612205Y-9563484D02*
X574110Y-9563484D01*
X574110Y-9563484D02*
X555063Y-9573008D01*
X555063Y-9573008D02*
X545539Y-9582531D01*
X545539Y-9582531D02*
X526491Y-9611103D01*
X526491Y-9611103D02*
X516967Y-9649198D01*
X516967Y-9649198D02*
X516967Y-9725389D01*
X516967Y-9725389D02*
X526491Y-9744436D01*
X526491Y-9744436D02*
X536015Y-9753960D01*
X536015Y-9753960D02*
X555063Y-9763484D01*
X555063Y-9763484D02*
X593158Y-9763484D01*
X593158Y-9763484D02*
X612205Y-9753960D01*
X612205Y-9753960D02*
X621729Y-9744436D01*
X621729Y-9744436D02*
X631253Y-9725389D01*
X631253Y-9725389D02*
X631253Y-9677770D01*
X631253Y-9677770D02*
X621729Y-9658722D01*
X621729Y-9658722D02*
X612205Y-9649198D01*
X612205Y-9649198D02*
X593158Y-9639674D01*
X593158Y-9639674D02*
X555063Y-9639674D01*
X555063Y-9639674D02*
X536015Y-9649198D01*
X536015Y-9649198D02*
X526491Y-9658722D01*
X526491Y-9658722D02*
X516967Y-9677770D01*
X755062Y-9563484D02*
X774110Y-9563484D01*
X774110Y-9563484D02*
X793158Y-9573008D01*
X793158Y-9573008D02*
X802682Y-9582531D01*
X802682Y-9582531D02*
X812205Y-9601579D01*
X812205Y-9601579D02*
X821729Y-9639674D01*
X821729Y-9639674D02*
X821729Y-9687293D01*
X821729Y-9687293D02*
X812205Y-9725389D01*
X812205Y-9725389D02*
X802682Y-9744436D01*
X802682Y-9744436D02*
X793158Y-9753960D01*
X793158Y-9753960D02*
X774110Y-9763484D01*
X774110Y-9763484D02*
X755062Y-9763484D01*
X755062Y-9763484D02*
X736015Y-9753960D01*
X736015Y-9753960D02*
X726491Y-9744436D01*
X726491Y-9744436D02*
X716967Y-9725389D01*
X716967Y-9725389D02*
X707443Y-9687293D01*
X707443Y-9687293D02*
X707443Y-9639674D01*
X707443Y-9639674D02*
X716967Y-9601579D01*
X716967Y-9601579D02*
X726491Y-9582531D01*
X726491Y-9582531D02*
X736015Y-9573008D01*
X736015Y-9573008D02*
X755062Y-9563484D01*
X945539Y-9563484D02*
X964586Y-9563484D01*
X964586Y-9563484D02*
X983634Y-9573008D01*
X983634Y-9573008D02*
X993158Y-9582531D01*
X993158Y-9582531D02*
X1002682Y-9601579D01*
X1002682Y-9601579D02*
X1012205Y-9639674D01*
X1012205Y-9639674D02*
X1012205Y-9687293D01*
X1012205Y-9687293D02*
X1002682Y-9725389D01*
X1002682Y-9725389D02*
X993158Y-9744436D01*
X993158Y-9744436D02*
X983634Y-9753960D01*
X983634Y-9753960D02*
X964586Y-9763484D01*
X964586Y-9763484D02*
X945539Y-9763484D01*
X945539Y-9763484D02*
X926491Y-9753960D01*
X926491Y-9753960D02*
X916967Y-9744436D01*
X916967Y-9744436D02*
X907443Y-9725389D01*
X907443Y-9725389D02*
X897920Y-9687293D01*
X897920Y-9687293D02*
X897920Y-9639674D01*
X897920Y-9639674D02*
X907443Y-9601579D01*
X907443Y-9601579D02*
X916967Y-9582531D01*
X916967Y-9582531D02*
X926491Y-9573008D01*
X926491Y-9573008D02*
X945539Y-9563484D01*
X1097920Y-9763484D02*
X1097920Y-9630150D01*
X1097920Y-9649198D02*
X1107444Y-9639674D01*
X1107444Y-9639674D02*
X1126491Y-9630150D01*
X1126491Y-9630150D02*
X1155063Y-9630150D01*
X1155063Y-9630150D02*
X1174110Y-9639674D01*
X1174110Y-9639674D02*
X1183634Y-9658722D01*
X1183634Y-9658722D02*
X1183634Y-9763484D01*
X1183634Y-9658722D02*
X1193158Y-9639674D01*
X1193158Y-9639674D02*
X1212205Y-9630150D01*
X1212205Y-9630150D02*
X1240777Y-9630150D01*
X1240777Y-9630150D02*
X1259825Y-9639674D01*
X1259825Y-9639674D02*
X1269348Y-9658722D01*
X1269348Y-9658722D02*
X1269348Y-9763484D01*
X1364586Y-9763484D02*
X1364586Y-9630150D01*
X1364586Y-9649198D02*
X1374110Y-9639674D01*
X1374110Y-9639674D02*
X1393158Y-9630150D01*
X1393158Y-9630150D02*
X1421729Y-9630150D01*
X1421729Y-9630150D02*
X1440777Y-9639674D01*
X1440777Y-9639674D02*
X1450301Y-9658722D01*
X1450301Y-9658722D02*
X1450301Y-9763484D01*
X1450301Y-9658722D02*
X1459824Y-9639674D01*
X1459824Y-9639674D02*
X1478872Y-9630150D01*
X1478872Y-9630150D02*
X1507443Y-9630150D01*
X1507443Y-9630150D02*
X1526491Y-9639674D01*
X1526491Y-9639674D02*
X1536015Y-9658722D01*
X1536015Y-9658722D02*
X1536015Y-9763484D01*
X1926491Y-9553960D02*
X1755063Y-9811103D01*
X2183634Y-9563484D02*
X2202682Y-9563484D01*
X2202682Y-9563484D02*
X2221729Y-9573008D01*
X2221729Y-9573008D02*
X2231253Y-9582531D01*
X2231253Y-9582531D02*
X2240777Y-9601579D01*
X2240777Y-9601579D02*
X2250301Y-9639674D01*
X2250301Y-9639674D02*
X2250301Y-9687293D01*
X2250301Y-9687293D02*
X2240777Y-9725389D01*
X2240777Y-9725389D02*
X2231253Y-9744436D01*
X2231253Y-9744436D02*
X2221729Y-9753960D01*
X2221729Y-9753960D02*
X2202682Y-9763484D01*
X2202682Y-9763484D02*
X2183634Y-9763484D01*
X2183634Y-9763484D02*
X2164587Y-9753960D01*
X2164587Y-9753960D02*
X2155063Y-9744436D01*
X2155063Y-9744436D02*
X2145539Y-9725389D01*
X2145539Y-9725389D02*
X2136015Y-9687293D01*
X2136015Y-9687293D02*
X2136015Y-9639674D01*
X2136015Y-9639674D02*
X2145539Y-9601579D01*
X2145539Y-9601579D02*
X2155063Y-9582531D01*
X2155063Y-9582531D02*
X2164587Y-9573008D01*
X2164587Y-9573008D02*
X2183634Y-9563484D01*
X2336015Y-9744436D02*
X2345539Y-9753960D01*
X2345539Y-9753960D02*
X2336015Y-9763484D01*
X2336015Y-9763484D02*
X2326491Y-9753960D01*
X2326491Y-9753960D02*
X2336015Y-9744436D01*
X2336015Y-9744436D02*
X2336015Y-9763484D01*
X2469348Y-9563484D02*
X2488396Y-9563484D01*
X2488396Y-9563484D02*
X2507444Y-9573008D01*
X2507444Y-9573008D02*
X2516968Y-9582531D01*
X2516968Y-9582531D02*
X2526491Y-9601579D01*
X2526491Y-9601579D02*
X2536015Y-9639674D01*
X2536015Y-9639674D02*
X2536015Y-9687293D01*
X2536015Y-9687293D02*
X2526491Y-9725389D01*
X2526491Y-9725389D02*
X2516968Y-9744436D01*
X2516968Y-9744436D02*
X2507444Y-9753960D01*
X2507444Y-9753960D02*
X2488396Y-9763484D01*
X2488396Y-9763484D02*
X2469348Y-9763484D01*
X2469348Y-9763484D02*
X2450301Y-9753960D01*
X2450301Y-9753960D02*
X2440777Y-9744436D01*
X2440777Y-9744436D02*
X2431253Y-9725389D01*
X2431253Y-9725389D02*
X2421729Y-9687293D01*
X2421729Y-9687293D02*
X2421729Y-9639674D01*
X2421729Y-9639674D02*
X2431253Y-9601579D01*
X2431253Y-9601579D02*
X2440777Y-9582531D01*
X2440777Y-9582531D02*
X2450301Y-9573008D01*
X2450301Y-9573008D02*
X2469348Y-9563484D01*
X2707444Y-9563484D02*
X2669348Y-9563484D01*
X2669348Y-9563484D02*
X2650301Y-9573008D01*
X2650301Y-9573008D02*
X2640777Y-9582531D01*
X2640777Y-9582531D02*
X2621729Y-9611103D01*
X2621729Y-9611103D02*
X2612206Y-9649198D01*
X2612206Y-9649198D02*
X2612206Y-9725389D01*
X2612206Y-9725389D02*
X2621729Y-9744436D01*
X2621729Y-9744436D02*
X2631253Y-9753960D01*
X2631253Y-9753960D02*
X2650301Y-9763484D01*
X2650301Y-9763484D02*
X2688396Y-9763484D01*
X2688396Y-9763484D02*
X2707444Y-9753960D01*
X2707444Y-9753960D02*
X2716968Y-9744436D01*
X2716968Y-9744436D02*
X2726491Y-9725389D01*
X2726491Y-9725389D02*
X2726491Y-9677770D01*
X2726491Y-9677770D02*
X2716968Y-9658722D01*
X2716968Y-9658722D02*
X2707444Y-9649198D01*
X2707444Y-9649198D02*
X2688396Y-9639674D01*
X2688396Y-9639674D02*
X2650301Y-9639674D01*
X2650301Y-9639674D02*
X2631253Y-9649198D01*
X2631253Y-9649198D02*
X2621729Y-9658722D01*
X2621729Y-9658722D02*
X2612206Y-9677770D01*
X2793158Y-9563484D02*
X2916967Y-9563484D01*
X2916967Y-9563484D02*
X2850301Y-9639674D01*
X2850301Y-9639674D02*
X2878872Y-9639674D01*
X2878872Y-9639674D02*
X2897920Y-9649198D01*
X2897920Y-9649198D02*
X2907444Y-9658722D01*
X2907444Y-9658722D02*
X2916967Y-9677770D01*
X2916967Y-9677770D02*
X2916967Y-9725389D01*
X2916967Y-9725389D02*
X2907444Y-9744436D01*
X2907444Y-9744436D02*
X2897920Y-9753960D01*
X2897920Y-9753960D02*
X2878872Y-9763484D01*
X2878872Y-9763484D02*
X2821729Y-9763484D01*
X2821729Y-9763484D02*
X2802682Y-9753960D01*
X2802682Y-9753960D02*
X2793158Y-9744436D01*
X3040777Y-9563484D02*
X3059825Y-9563484D01*
X3059825Y-9563484D02*
X3078872Y-9573008D01*
X3078872Y-9573008D02*
X3088396Y-9582531D01*
X3088396Y-9582531D02*
X3097920Y-9601579D01*
X3097920Y-9601579D02*
X3107444Y-9639674D01*
X3107444Y-9639674D02*
X3107444Y-9687293D01*
X3107444Y-9687293D02*
X3097920Y-9725389D01*
X3097920Y-9725389D02*
X3088396Y-9744436D01*
X3088396Y-9744436D02*
X3078872Y-9753960D01*
X3078872Y-9753960D02*
X3059825Y-9763484D01*
X3059825Y-9763484D02*
X3040777Y-9763484D01*
X3040777Y-9763484D02*
X3021729Y-9753960D01*
X3021729Y-9753960D02*
X3012206Y-9744436D01*
X3012206Y-9744436D02*
X3002682Y-9725389D01*
X3002682Y-9725389D02*
X2993158Y-9687293D01*
X2993158Y-9687293D02*
X2993158Y-9639674D01*
X2993158Y-9639674D02*
X3002682Y-9601579D01*
X3002682Y-9601579D02*
X3012206Y-9582531D01*
X3012206Y-9582531D02*
X3021729Y-9573008D01*
X3021729Y-9573008D02*
X3040777Y-9563484D01*
X3183634Y-9563484D02*
X3183634Y-9601579D01*
X3259825Y-9563484D02*
X3259825Y-9601579D01*
X3555063Y-9839674D02*
X3545539Y-9830150D01*
X3545539Y-9830150D02*
X3526491Y-9801579D01*
X3526491Y-9801579D02*
X3516968Y-9782531D01*
X3516968Y-9782531D02*
X3507444Y-9753960D01*
X3507444Y-9753960D02*
X3497920Y-9706341D01*
X3497920Y-9706341D02*
X3497920Y-9668246D01*
X3497920Y-9668246D02*
X3507444Y-9620627D01*
X3507444Y-9620627D02*
X3516968Y-9592055D01*
X3516968Y-9592055D02*
X3526491Y-9573008D01*
X3526491Y-9573008D02*
X3545539Y-9544436D01*
X3545539Y-9544436D02*
X3555063Y-9534912D01*
X3736015Y-9763484D02*
X3621729Y-9763484D01*
X3678872Y-9763484D02*
X3678872Y-9563484D01*
X3678872Y-9563484D02*
X3659825Y-9592055D01*
X3659825Y-9592055D02*
X3640777Y-9611103D01*
X3640777Y-9611103D02*
X3621729Y-9620627D01*
X3974110Y-9763484D02*
X3974110Y-9563484D01*
X4059825Y-9763484D02*
X4059825Y-9658722D01*
X4059825Y-9658722D02*
X4050301Y-9639674D01*
X4050301Y-9639674D02*
X4031253Y-9630150D01*
X4031253Y-9630150D02*
X4002682Y-9630150D01*
X4002682Y-9630150D02*
X3983634Y-9639674D01*
X3983634Y-9639674D02*
X3974110Y-9649198D01*
X4183634Y-9763484D02*
X4164587Y-9753960D01*
X4164587Y-9753960D02*
X4155063Y-9744436D01*
X4155063Y-9744436D02*
X4145539Y-9725389D01*
X4145539Y-9725389D02*
X4145539Y-9668246D01*
X4145539Y-9668246D02*
X4155063Y-9649198D01*
X4155063Y-9649198D02*
X4164587Y-9639674D01*
X4164587Y-9639674D02*
X4183634Y-9630150D01*
X4183634Y-9630150D02*
X4212206Y-9630150D01*
X4212206Y-9630150D02*
X4231253Y-9639674D01*
X4231253Y-9639674D02*
X4240777Y-9649198D01*
X4240777Y-9649198D02*
X4250301Y-9668246D01*
X4250301Y-9668246D02*
X4250301Y-9725389D01*
X4250301Y-9725389D02*
X4240777Y-9744436D01*
X4240777Y-9744436D02*
X4231253Y-9753960D01*
X4231253Y-9753960D02*
X4212206Y-9763484D01*
X4212206Y-9763484D02*
X4183634Y-9763484D01*
X4364587Y-9763484D02*
X4345539Y-9753960D01*
X4345539Y-9753960D02*
X4336015Y-9734912D01*
X4336015Y-9734912D02*
X4336015Y-9563484D01*
X4516968Y-9753960D02*
X4497920Y-9763484D01*
X4497920Y-9763484D02*
X4459825Y-9763484D01*
X4459825Y-9763484D02*
X4440777Y-9753960D01*
X4440777Y-9753960D02*
X4431253Y-9734912D01*
X4431253Y-9734912D02*
X4431253Y-9658722D01*
X4431253Y-9658722D02*
X4440777Y-9639674D01*
X4440777Y-9639674D02*
X4459825Y-9630150D01*
X4459825Y-9630150D02*
X4497920Y-9630150D01*
X4497920Y-9630150D02*
X4516968Y-9639674D01*
X4516968Y-9639674D02*
X4526492Y-9658722D01*
X4526492Y-9658722D02*
X4526492Y-9677770D01*
X4526492Y-9677770D02*
X4431253Y-9696817D01*
X4593158Y-9839674D02*
X4602682Y-9830150D01*
X4602682Y-9830150D02*
X4621730Y-9801579D01*
X4621730Y-9801579D02*
X4631253Y-9782531D01*
X4631253Y-9782531D02*
X4640777Y-9753960D01*
X4640777Y-9753960D02*
X4650301Y-9706341D01*
X4650301Y-9706341D02*
X4650301Y-9668246D01*
X4650301Y-9668246D02*
X4640777Y-9620627D01*
X4640777Y-9620627D02*
X4631253Y-9592055D01*
X4631253Y-9592055D02*
X4621730Y-9573008D01*
X4621730Y-9573008D02*
X4602682Y-9544436D01*
X4602682Y-9544436D02*
X4593158Y-9534912D01*
X-220000Y-9852000D02*
X-20000Y-10052000D01*
X-20000Y-9852000D02*
X-220000Y-10052000D01*
X-20000Y-9952000D02*
G75*
G02*
X-220000Y-9952000I-100000J0D01*
G01*
X-220000Y-9952000D02*
G75*
G02*
X-20000Y-9952000I100000J0D01*
G01*
X231253Y-9862531D02*
X240777Y-9853008D01*
X240777Y-9853008D02*
X259824Y-9843484D01*
X259824Y-9843484D02*
X307444Y-9843484D01*
X307444Y-9843484D02*
X326491Y-9853008D01*
X326491Y-9853008D02*
X336015Y-9862531D01*
X336015Y-9862531D02*
X345539Y-9881579D01*
X345539Y-9881579D02*
X345539Y-9900627D01*
X345539Y-9900627D02*
X336015Y-9929198D01*
X336015Y-9929198D02*
X221729Y-10043484D01*
X221729Y-10043484D02*
X345539Y-10043484D01*
X431253Y-10024436D02*
X440777Y-10033960D01*
X440777Y-10033960D02*
X431253Y-10043484D01*
X431253Y-10043484D02*
X421729Y-10033960D01*
X421729Y-10033960D02*
X431253Y-10024436D01*
X431253Y-10024436D02*
X431253Y-10043484D01*
X621729Y-9843484D02*
X526491Y-9843484D01*
X526491Y-9843484D02*
X516967Y-9938722D01*
X516967Y-9938722D02*
X526491Y-9929198D01*
X526491Y-9929198D02*
X545539Y-9919674D01*
X545539Y-9919674D02*
X593158Y-9919674D01*
X593158Y-9919674D02*
X612205Y-9929198D01*
X612205Y-9929198D02*
X621729Y-9938722D01*
X621729Y-9938722D02*
X631253Y-9957770D01*
X631253Y-9957770D02*
X631253Y-10005389D01*
X631253Y-10005389D02*
X621729Y-10024436D01*
X621729Y-10024436D02*
X612205Y-10033960D01*
X612205Y-10033960D02*
X593158Y-10043484D01*
X593158Y-10043484D02*
X545539Y-10043484D01*
X545539Y-10043484D02*
X526491Y-10033960D01*
X526491Y-10033960D02*
X516967Y-10024436D01*
X755062Y-9843484D02*
X774110Y-9843484D01*
X774110Y-9843484D02*
X793158Y-9853008D01*
X793158Y-9853008D02*
X802682Y-9862531D01*
X802682Y-9862531D02*
X812205Y-9881579D01*
X812205Y-9881579D02*
X821729Y-9919674D01*
X821729Y-9919674D02*
X821729Y-9967293D01*
X821729Y-9967293D02*
X812205Y-10005389D01*
X812205Y-10005389D02*
X802682Y-10024436D01*
X802682Y-10024436D02*
X793158Y-10033960D01*
X793158Y-10033960D02*
X774110Y-10043484D01*
X774110Y-10043484D02*
X755062Y-10043484D01*
X755062Y-10043484D02*
X736015Y-10033960D01*
X736015Y-10033960D02*
X726491Y-10024436D01*
X726491Y-10024436D02*
X716967Y-10005389D01*
X716967Y-10005389D02*
X707443Y-9967293D01*
X707443Y-9967293D02*
X707443Y-9919674D01*
X707443Y-9919674D02*
X716967Y-9881579D01*
X716967Y-9881579D02*
X726491Y-9862531D01*
X726491Y-9862531D02*
X736015Y-9853008D01*
X736015Y-9853008D02*
X755062Y-9843484D01*
X945539Y-9843484D02*
X964586Y-9843484D01*
X964586Y-9843484D02*
X983634Y-9853008D01*
X983634Y-9853008D02*
X993158Y-9862531D01*
X993158Y-9862531D02*
X1002682Y-9881579D01*
X1002682Y-9881579D02*
X1012205Y-9919674D01*
X1012205Y-9919674D02*
X1012205Y-9967293D01*
X1012205Y-9967293D02*
X1002682Y-10005389D01*
X1002682Y-10005389D02*
X993158Y-10024436D01*
X993158Y-10024436D02*
X983634Y-10033960D01*
X983634Y-10033960D02*
X964586Y-10043484D01*
X964586Y-10043484D02*
X945539Y-10043484D01*
X945539Y-10043484D02*
X926491Y-10033960D01*
X926491Y-10033960D02*
X916967Y-10024436D01*
X916967Y-10024436D02*
X907443Y-10005389D01*
X907443Y-10005389D02*
X897920Y-9967293D01*
X897920Y-9967293D02*
X897920Y-9919674D01*
X897920Y-9919674D02*
X907443Y-9881579D01*
X907443Y-9881579D02*
X916967Y-9862531D01*
X916967Y-9862531D02*
X926491Y-9853008D01*
X926491Y-9853008D02*
X945539Y-9843484D01*
X1097920Y-10043484D02*
X1097920Y-9910150D01*
X1097920Y-9929198D02*
X1107444Y-9919674D01*
X1107444Y-9919674D02*
X1126491Y-9910150D01*
X1126491Y-9910150D02*
X1155063Y-9910150D01*
X1155063Y-9910150D02*
X1174110Y-9919674D01*
X1174110Y-9919674D02*
X1183634Y-9938722D01*
X1183634Y-9938722D02*
X1183634Y-10043484D01*
X1183634Y-9938722D02*
X1193158Y-9919674D01*
X1193158Y-9919674D02*
X1212205Y-9910150D01*
X1212205Y-9910150D02*
X1240777Y-9910150D01*
X1240777Y-9910150D02*
X1259825Y-9919674D01*
X1259825Y-9919674D02*
X1269348Y-9938722D01*
X1269348Y-9938722D02*
X1269348Y-10043484D01*
X1364586Y-10043484D02*
X1364586Y-9910150D01*
X1364586Y-9929198D02*
X1374110Y-9919674D01*
X1374110Y-9919674D02*
X1393158Y-9910150D01*
X1393158Y-9910150D02*
X1421729Y-9910150D01*
X1421729Y-9910150D02*
X1440777Y-9919674D01*
X1440777Y-9919674D02*
X1450301Y-9938722D01*
X1450301Y-9938722D02*
X1450301Y-10043484D01*
X1450301Y-9938722D02*
X1459824Y-9919674D01*
X1459824Y-9919674D02*
X1478872Y-9910150D01*
X1478872Y-9910150D02*
X1507443Y-9910150D01*
X1507443Y-9910150D02*
X1526491Y-9919674D01*
X1526491Y-9919674D02*
X1536015Y-9938722D01*
X1536015Y-9938722D02*
X1536015Y-10043484D01*
X1926491Y-9833960D02*
X1755063Y-10091103D01*
X2183634Y-9843484D02*
X2202682Y-9843484D01*
X2202682Y-9843484D02*
X2221729Y-9853008D01*
X2221729Y-9853008D02*
X2231253Y-9862531D01*
X2231253Y-9862531D02*
X2240777Y-9881579D01*
X2240777Y-9881579D02*
X2250301Y-9919674D01*
X2250301Y-9919674D02*
X2250301Y-9967293D01*
X2250301Y-9967293D02*
X2240777Y-10005389D01*
X2240777Y-10005389D02*
X2231253Y-10024436D01*
X2231253Y-10024436D02*
X2221729Y-10033960D01*
X2221729Y-10033960D02*
X2202682Y-10043484D01*
X2202682Y-10043484D02*
X2183634Y-10043484D01*
X2183634Y-10043484D02*
X2164587Y-10033960D01*
X2164587Y-10033960D02*
X2155063Y-10024436D01*
X2155063Y-10024436D02*
X2145539Y-10005389D01*
X2145539Y-10005389D02*
X2136015Y-9967293D01*
X2136015Y-9967293D02*
X2136015Y-9919674D01*
X2136015Y-9919674D02*
X2145539Y-9881579D01*
X2145539Y-9881579D02*
X2155063Y-9862531D01*
X2155063Y-9862531D02*
X2164587Y-9853008D01*
X2164587Y-9853008D02*
X2183634Y-9843484D01*
X2336015Y-10024436D02*
X2345539Y-10033960D01*
X2345539Y-10033960D02*
X2336015Y-10043484D01*
X2336015Y-10043484D02*
X2326491Y-10033960D01*
X2326491Y-10033960D02*
X2336015Y-10024436D01*
X2336015Y-10024436D02*
X2336015Y-10043484D01*
X2469348Y-9843484D02*
X2488396Y-9843484D01*
X2488396Y-9843484D02*
X2507444Y-9853008D01*
X2507444Y-9853008D02*
X2516968Y-9862531D01*
X2516968Y-9862531D02*
X2526491Y-9881579D01*
X2526491Y-9881579D02*
X2536015Y-9919674D01*
X2536015Y-9919674D02*
X2536015Y-9967293D01*
X2536015Y-9967293D02*
X2526491Y-10005389D01*
X2526491Y-10005389D02*
X2516968Y-10024436D01*
X2516968Y-10024436D02*
X2507444Y-10033960D01*
X2507444Y-10033960D02*
X2488396Y-10043484D01*
X2488396Y-10043484D02*
X2469348Y-10043484D01*
X2469348Y-10043484D02*
X2450301Y-10033960D01*
X2450301Y-10033960D02*
X2440777Y-10024436D01*
X2440777Y-10024436D02*
X2431253Y-10005389D01*
X2431253Y-10005389D02*
X2421729Y-9967293D01*
X2421729Y-9967293D02*
X2421729Y-9919674D01*
X2421729Y-9919674D02*
X2431253Y-9881579D01*
X2431253Y-9881579D02*
X2440777Y-9862531D01*
X2440777Y-9862531D02*
X2450301Y-9853008D01*
X2450301Y-9853008D02*
X2469348Y-9843484D01*
X2631253Y-10043484D02*
X2669348Y-10043484D01*
X2669348Y-10043484D02*
X2688396Y-10033960D01*
X2688396Y-10033960D02*
X2697920Y-10024436D01*
X2697920Y-10024436D02*
X2716968Y-9995865D01*
X2716968Y-9995865D02*
X2726491Y-9957770D01*
X2726491Y-9957770D02*
X2726491Y-9881579D01*
X2726491Y-9881579D02*
X2716968Y-9862531D01*
X2716968Y-9862531D02*
X2707444Y-9853008D01*
X2707444Y-9853008D02*
X2688396Y-9843484D01*
X2688396Y-9843484D02*
X2650301Y-9843484D01*
X2650301Y-9843484D02*
X2631253Y-9853008D01*
X2631253Y-9853008D02*
X2621729Y-9862531D01*
X2621729Y-9862531D02*
X2612206Y-9881579D01*
X2612206Y-9881579D02*
X2612206Y-9929198D01*
X2612206Y-9929198D02*
X2621729Y-9948246D01*
X2621729Y-9948246D02*
X2631253Y-9957770D01*
X2631253Y-9957770D02*
X2650301Y-9967293D01*
X2650301Y-9967293D02*
X2688396Y-9967293D01*
X2688396Y-9967293D02*
X2707444Y-9957770D01*
X2707444Y-9957770D02*
X2716968Y-9948246D01*
X2716968Y-9948246D02*
X2726491Y-9929198D01*
X2840777Y-9929198D02*
X2821729Y-9919674D01*
X2821729Y-9919674D02*
X2812206Y-9910150D01*
X2812206Y-9910150D02*
X2802682Y-9891103D01*
X2802682Y-9891103D02*
X2802682Y-9881579D01*
X2802682Y-9881579D02*
X2812206Y-9862531D01*
X2812206Y-9862531D02*
X2821729Y-9853008D01*
X2821729Y-9853008D02*
X2840777Y-9843484D01*
X2840777Y-9843484D02*
X2878872Y-9843484D01*
X2878872Y-9843484D02*
X2897920Y-9853008D01*
X2897920Y-9853008D02*
X2907444Y-9862531D01*
X2907444Y-9862531D02*
X2916967Y-9881579D01*
X2916967Y-9881579D02*
X2916967Y-9891103D01*
X2916967Y-9891103D02*
X2907444Y-9910150D01*
X2907444Y-9910150D02*
X2897920Y-9919674D01*
X2897920Y-9919674D02*
X2878872Y-9929198D01*
X2878872Y-9929198D02*
X2840777Y-9929198D01*
X2840777Y-9929198D02*
X2821729Y-9938722D01*
X2821729Y-9938722D02*
X2812206Y-9948246D01*
X2812206Y-9948246D02*
X2802682Y-9967293D01*
X2802682Y-9967293D02*
X2802682Y-10005389D01*
X2802682Y-10005389D02*
X2812206Y-10024436D01*
X2812206Y-10024436D02*
X2821729Y-10033960D01*
X2821729Y-10033960D02*
X2840777Y-10043484D01*
X2840777Y-10043484D02*
X2878872Y-10043484D01*
X2878872Y-10043484D02*
X2897920Y-10033960D01*
X2897920Y-10033960D02*
X2907444Y-10024436D01*
X2907444Y-10024436D02*
X2916967Y-10005389D01*
X2916967Y-10005389D02*
X2916967Y-9967293D01*
X2916967Y-9967293D02*
X2907444Y-9948246D01*
X2907444Y-9948246D02*
X2897920Y-9938722D01*
X2897920Y-9938722D02*
X2878872Y-9929198D01*
X3088396Y-9910150D02*
X3088396Y-10043484D01*
X3040777Y-9833960D02*
X2993158Y-9976817D01*
X2993158Y-9976817D02*
X3116967Y-9976817D01*
X3183634Y-9843484D02*
X3183634Y-9881579D01*
X3259825Y-9843484D02*
X3259825Y-9881579D01*
X3555063Y-10119674D02*
X3545539Y-10110150D01*
X3545539Y-10110150D02*
X3526491Y-10081579D01*
X3526491Y-10081579D02*
X3516968Y-10062531D01*
X3516968Y-10062531D02*
X3507444Y-10033960D01*
X3507444Y-10033960D02*
X3497920Y-9986341D01*
X3497920Y-9986341D02*
X3497920Y-9948246D01*
X3497920Y-9948246D02*
X3507444Y-9900627D01*
X3507444Y-9900627D02*
X3516968Y-9872055D01*
X3516968Y-9872055D02*
X3526491Y-9853008D01*
X3526491Y-9853008D02*
X3545539Y-9824436D01*
X3545539Y-9824436D02*
X3555063Y-9814912D01*
X3736015Y-10043484D02*
X3621729Y-10043484D01*
X3678872Y-10043484D02*
X3678872Y-9843484D01*
X3678872Y-9843484D02*
X3659825Y-9872055D01*
X3659825Y-9872055D02*
X3640777Y-9891103D01*
X3640777Y-9891103D02*
X3621729Y-9900627D01*
X3974110Y-10043484D02*
X3974110Y-9843484D01*
X4059825Y-10043484D02*
X4059825Y-9938722D01*
X4059825Y-9938722D02*
X4050301Y-9919674D01*
X4050301Y-9919674D02*
X4031253Y-9910150D01*
X4031253Y-9910150D02*
X4002682Y-9910150D01*
X4002682Y-9910150D02*
X3983634Y-9919674D01*
X3983634Y-9919674D02*
X3974110Y-9929198D01*
X4183634Y-10043484D02*
X4164587Y-10033960D01*
X4164587Y-10033960D02*
X4155063Y-10024436D01*
X4155063Y-10024436D02*
X4145539Y-10005389D01*
X4145539Y-10005389D02*
X4145539Y-9948246D01*
X4145539Y-9948246D02*
X4155063Y-9929198D01*
X4155063Y-9929198D02*
X4164587Y-9919674D01*
X4164587Y-9919674D02*
X4183634Y-9910150D01*
X4183634Y-9910150D02*
X4212206Y-9910150D01*
X4212206Y-9910150D02*
X4231253Y-9919674D01*
X4231253Y-9919674D02*
X4240777Y-9929198D01*
X4240777Y-9929198D02*
X4250301Y-9948246D01*
X4250301Y-9948246D02*
X4250301Y-10005389D01*
X4250301Y-10005389D02*
X4240777Y-10024436D01*
X4240777Y-10024436D02*
X4231253Y-10033960D01*
X4231253Y-10033960D02*
X4212206Y-10043484D01*
X4212206Y-10043484D02*
X4183634Y-10043484D01*
X4364587Y-10043484D02*
X4345539Y-10033960D01*
X4345539Y-10033960D02*
X4336015Y-10014912D01*
X4336015Y-10014912D02*
X4336015Y-9843484D01*
X4516968Y-10033960D02*
X4497920Y-10043484D01*
X4497920Y-10043484D02*
X4459825Y-10043484D01*
X4459825Y-10043484D02*
X4440777Y-10033960D01*
X4440777Y-10033960D02*
X4431253Y-10014912D01*
X4431253Y-10014912D02*
X4431253Y-9938722D01*
X4431253Y-9938722D02*
X4440777Y-9919674D01*
X4440777Y-9919674D02*
X4459825Y-9910150D01*
X4459825Y-9910150D02*
X4497920Y-9910150D01*
X4497920Y-9910150D02*
X4516968Y-9919674D01*
X4516968Y-9919674D02*
X4526492Y-9938722D01*
X4526492Y-9938722D02*
X4526492Y-9957770D01*
X4526492Y-9957770D02*
X4431253Y-9976817D01*
X4593158Y-10119674D02*
X4602682Y-10110150D01*
X4602682Y-10110150D02*
X4621730Y-10081579D01*
X4621730Y-10081579D02*
X4631253Y-10062531D01*
X4631253Y-10062531D02*
X4640777Y-10033960D01*
X4640777Y-10033960D02*
X4650301Y-9986341D01*
X4650301Y-9986341D02*
X4650301Y-9948246D01*
X4650301Y-9948246D02*
X4640777Y-9900627D01*
X4640777Y-9900627D02*
X4631253Y-9872055D01*
X4631253Y-9872055D02*
X4621730Y-9853008D01*
X4621730Y-9853008D02*
X4602682Y-9824436D01*
X4602682Y-9824436D02*
X4593158Y-9814912D01*
X-220000Y-10172000D02*
X-20000Y-10372000D01*
X-20000Y-10172000D02*
X-220000Y-10372000D01*
X-120000Y-10172000D02*
X-120000Y-10372000D01*
X-220000Y-10272000D02*
X-20000Y-10272000D01*
X221729Y-10163484D02*
X345539Y-10163484D01*
X345539Y-10163484D02*
X278872Y-10239674D01*
X278872Y-10239674D02*
X307444Y-10239674D01*
X307444Y-10239674D02*
X326491Y-10249198D01*
X326491Y-10249198D02*
X336015Y-10258722D01*
X336015Y-10258722D02*
X345539Y-10277770D01*
X345539Y-10277770D02*
X345539Y-10325389D01*
X345539Y-10325389D02*
X336015Y-10344436D01*
X336015Y-10344436D02*
X326491Y-10353960D01*
X326491Y-10353960D02*
X307444Y-10363484D01*
X307444Y-10363484D02*
X250301Y-10363484D01*
X250301Y-10363484D02*
X231253Y-10353960D01*
X231253Y-10353960D02*
X221729Y-10344436D01*
X431253Y-10344436D02*
X440777Y-10353960D01*
X440777Y-10353960D02*
X431253Y-10363484D01*
X431253Y-10363484D02*
X421729Y-10353960D01*
X421729Y-10353960D02*
X431253Y-10344436D01*
X431253Y-10344436D02*
X431253Y-10363484D01*
X621729Y-10163484D02*
X526491Y-10163484D01*
X526491Y-10163484D02*
X516967Y-10258722D01*
X516967Y-10258722D02*
X526491Y-10249198D01*
X526491Y-10249198D02*
X545539Y-10239674D01*
X545539Y-10239674D02*
X593158Y-10239674D01*
X593158Y-10239674D02*
X612205Y-10249198D01*
X612205Y-10249198D02*
X621729Y-10258722D01*
X621729Y-10258722D02*
X631253Y-10277770D01*
X631253Y-10277770D02*
X631253Y-10325389D01*
X631253Y-10325389D02*
X621729Y-10344436D01*
X621729Y-10344436D02*
X612205Y-10353960D01*
X612205Y-10353960D02*
X593158Y-10363484D01*
X593158Y-10363484D02*
X545539Y-10363484D01*
X545539Y-10363484D02*
X526491Y-10353960D01*
X526491Y-10353960D02*
X516967Y-10344436D01*
X755062Y-10163484D02*
X774110Y-10163484D01*
X774110Y-10163484D02*
X793158Y-10173008D01*
X793158Y-10173008D02*
X802682Y-10182531D01*
X802682Y-10182531D02*
X812205Y-10201579D01*
X812205Y-10201579D02*
X821729Y-10239674D01*
X821729Y-10239674D02*
X821729Y-10287293D01*
X821729Y-10287293D02*
X812205Y-10325389D01*
X812205Y-10325389D02*
X802682Y-10344436D01*
X802682Y-10344436D02*
X793158Y-10353960D01*
X793158Y-10353960D02*
X774110Y-10363484D01*
X774110Y-10363484D02*
X755062Y-10363484D01*
X755062Y-10363484D02*
X736015Y-10353960D01*
X736015Y-10353960D02*
X726491Y-10344436D01*
X726491Y-10344436D02*
X716967Y-10325389D01*
X716967Y-10325389D02*
X707443Y-10287293D01*
X707443Y-10287293D02*
X707443Y-10239674D01*
X707443Y-10239674D02*
X716967Y-10201579D01*
X716967Y-10201579D02*
X726491Y-10182531D01*
X726491Y-10182531D02*
X736015Y-10173008D01*
X736015Y-10173008D02*
X755062Y-10163484D01*
X945539Y-10163484D02*
X964586Y-10163484D01*
X964586Y-10163484D02*
X983634Y-10173008D01*
X983634Y-10173008D02*
X993158Y-10182531D01*
X993158Y-10182531D02*
X1002682Y-10201579D01*
X1002682Y-10201579D02*
X1012205Y-10239674D01*
X1012205Y-10239674D02*
X1012205Y-10287293D01*
X1012205Y-10287293D02*
X1002682Y-10325389D01*
X1002682Y-10325389D02*
X993158Y-10344436D01*
X993158Y-10344436D02*
X983634Y-10353960D01*
X983634Y-10353960D02*
X964586Y-10363484D01*
X964586Y-10363484D02*
X945539Y-10363484D01*
X945539Y-10363484D02*
X926491Y-10353960D01*
X926491Y-10353960D02*
X916967Y-10344436D01*
X916967Y-10344436D02*
X907443Y-10325389D01*
X907443Y-10325389D02*
X897920Y-10287293D01*
X897920Y-10287293D02*
X897920Y-10239674D01*
X897920Y-10239674D02*
X907443Y-10201579D01*
X907443Y-10201579D02*
X916967Y-10182531D01*
X916967Y-10182531D02*
X926491Y-10173008D01*
X926491Y-10173008D02*
X945539Y-10163484D01*
X1097920Y-10363484D02*
X1097920Y-10230150D01*
X1097920Y-10249198D02*
X1107444Y-10239674D01*
X1107444Y-10239674D02*
X1126491Y-10230150D01*
X1126491Y-10230150D02*
X1155063Y-10230150D01*
X1155063Y-10230150D02*
X1174110Y-10239674D01*
X1174110Y-10239674D02*
X1183634Y-10258722D01*
X1183634Y-10258722D02*
X1183634Y-10363484D01*
X1183634Y-10258722D02*
X1193158Y-10239674D01*
X1193158Y-10239674D02*
X1212205Y-10230150D01*
X1212205Y-10230150D02*
X1240777Y-10230150D01*
X1240777Y-10230150D02*
X1259825Y-10239674D01*
X1259825Y-10239674D02*
X1269348Y-10258722D01*
X1269348Y-10258722D02*
X1269348Y-10363484D01*
X1364586Y-10363484D02*
X1364586Y-10230150D01*
X1364586Y-10249198D02*
X1374110Y-10239674D01*
X1374110Y-10239674D02*
X1393158Y-10230150D01*
X1393158Y-10230150D02*
X1421729Y-10230150D01*
X1421729Y-10230150D02*
X1440777Y-10239674D01*
X1440777Y-10239674D02*
X1450301Y-10258722D01*
X1450301Y-10258722D02*
X1450301Y-10363484D01*
X1450301Y-10258722D02*
X1459824Y-10239674D01*
X1459824Y-10239674D02*
X1478872Y-10230150D01*
X1478872Y-10230150D02*
X1507443Y-10230150D01*
X1507443Y-10230150D02*
X1526491Y-10239674D01*
X1526491Y-10239674D02*
X1536015Y-10258722D01*
X1536015Y-10258722D02*
X1536015Y-10363484D01*
X1926491Y-10153960D02*
X1755063Y-10411103D01*
X2183634Y-10163484D02*
X2202682Y-10163484D01*
X2202682Y-10163484D02*
X2221729Y-10173008D01*
X2221729Y-10173008D02*
X2231253Y-10182531D01*
X2231253Y-10182531D02*
X2240777Y-10201579D01*
X2240777Y-10201579D02*
X2250301Y-10239674D01*
X2250301Y-10239674D02*
X2250301Y-10287293D01*
X2250301Y-10287293D02*
X2240777Y-10325389D01*
X2240777Y-10325389D02*
X2231253Y-10344436D01*
X2231253Y-10344436D02*
X2221729Y-10353960D01*
X2221729Y-10353960D02*
X2202682Y-10363484D01*
X2202682Y-10363484D02*
X2183634Y-10363484D01*
X2183634Y-10363484D02*
X2164587Y-10353960D01*
X2164587Y-10353960D02*
X2155063Y-10344436D01*
X2155063Y-10344436D02*
X2145539Y-10325389D01*
X2145539Y-10325389D02*
X2136015Y-10287293D01*
X2136015Y-10287293D02*
X2136015Y-10239674D01*
X2136015Y-10239674D02*
X2145539Y-10201579D01*
X2145539Y-10201579D02*
X2155063Y-10182531D01*
X2155063Y-10182531D02*
X2164587Y-10173008D01*
X2164587Y-10173008D02*
X2183634Y-10163484D01*
X2336015Y-10344436D02*
X2345539Y-10353960D01*
X2345539Y-10353960D02*
X2336015Y-10363484D01*
X2336015Y-10363484D02*
X2326491Y-10353960D01*
X2326491Y-10353960D02*
X2336015Y-10344436D01*
X2336015Y-10344436D02*
X2336015Y-10363484D01*
X2536015Y-10363484D02*
X2421729Y-10363484D01*
X2478872Y-10363484D02*
X2478872Y-10163484D01*
X2478872Y-10163484D02*
X2459825Y-10192055D01*
X2459825Y-10192055D02*
X2440777Y-10211103D01*
X2440777Y-10211103D02*
X2421729Y-10220627D01*
X2602682Y-10163484D02*
X2726491Y-10163484D01*
X2726491Y-10163484D02*
X2659825Y-10239674D01*
X2659825Y-10239674D02*
X2688396Y-10239674D01*
X2688396Y-10239674D02*
X2707444Y-10249198D01*
X2707444Y-10249198D02*
X2716968Y-10258722D01*
X2716968Y-10258722D02*
X2726491Y-10277770D01*
X2726491Y-10277770D02*
X2726491Y-10325389D01*
X2726491Y-10325389D02*
X2716968Y-10344436D01*
X2716968Y-10344436D02*
X2707444Y-10353960D01*
X2707444Y-10353960D02*
X2688396Y-10363484D01*
X2688396Y-10363484D02*
X2631253Y-10363484D01*
X2631253Y-10363484D02*
X2612206Y-10353960D01*
X2612206Y-10353960D02*
X2602682Y-10344436D01*
X2793158Y-10163484D02*
X2926491Y-10163484D01*
X2926491Y-10163484D02*
X2840777Y-10363484D01*
X3031253Y-10249198D02*
X3012206Y-10239674D01*
X3012206Y-10239674D02*
X3002682Y-10230150D01*
X3002682Y-10230150D02*
X2993158Y-10211103D01*
X2993158Y-10211103D02*
X2993158Y-10201579D01*
X2993158Y-10201579D02*
X3002682Y-10182531D01*
X3002682Y-10182531D02*
X3012206Y-10173008D01*
X3012206Y-10173008D02*
X3031253Y-10163484D01*
X3031253Y-10163484D02*
X3069348Y-10163484D01*
X3069348Y-10163484D02*
X3088396Y-10173008D01*
X3088396Y-10173008D02*
X3097920Y-10182531D01*
X3097920Y-10182531D02*
X3107444Y-10201579D01*
X3107444Y-10201579D02*
X3107444Y-10211103D01*
X3107444Y-10211103D02*
X3097920Y-10230150D01*
X3097920Y-10230150D02*
X3088396Y-10239674D01*
X3088396Y-10239674D02*
X3069348Y-10249198D01*
X3069348Y-10249198D02*
X3031253Y-10249198D01*
X3031253Y-10249198D02*
X3012206Y-10258722D01*
X3012206Y-10258722D02*
X3002682Y-10268246D01*
X3002682Y-10268246D02*
X2993158Y-10287293D01*
X2993158Y-10287293D02*
X2993158Y-10325389D01*
X2993158Y-10325389D02*
X3002682Y-10344436D01*
X3002682Y-10344436D02*
X3012206Y-10353960D01*
X3012206Y-10353960D02*
X3031253Y-10363484D01*
X3031253Y-10363484D02*
X3069348Y-10363484D01*
X3069348Y-10363484D02*
X3088396Y-10353960D01*
X3088396Y-10353960D02*
X3097920Y-10344436D01*
X3097920Y-10344436D02*
X3107444Y-10325389D01*
X3107444Y-10325389D02*
X3107444Y-10287293D01*
X3107444Y-10287293D02*
X3097920Y-10268246D01*
X3097920Y-10268246D02*
X3088396Y-10258722D01*
X3088396Y-10258722D02*
X3069348Y-10249198D01*
X3183634Y-10163484D02*
X3183634Y-10201579D01*
X3259825Y-10163484D02*
X3259825Y-10201579D01*
X3555063Y-10439674D02*
X3545539Y-10430150D01*
X3545539Y-10430150D02*
X3526491Y-10401579D01*
X3526491Y-10401579D02*
X3516968Y-10382531D01*
X3516968Y-10382531D02*
X3507444Y-10353960D01*
X3507444Y-10353960D02*
X3497920Y-10306341D01*
X3497920Y-10306341D02*
X3497920Y-10268246D01*
X3497920Y-10268246D02*
X3507444Y-10220627D01*
X3507444Y-10220627D02*
X3516968Y-10192055D01*
X3516968Y-10192055D02*
X3526491Y-10173008D01*
X3526491Y-10173008D02*
X3545539Y-10144436D01*
X3545539Y-10144436D02*
X3555063Y-10134912D01*
X3736015Y-10363484D02*
X3621729Y-10363484D01*
X3678872Y-10363484D02*
X3678872Y-10163484D01*
X3678872Y-10163484D02*
X3659825Y-10192055D01*
X3659825Y-10192055D02*
X3640777Y-10211103D01*
X3640777Y-10211103D02*
X3621729Y-10220627D01*
X3974110Y-10363484D02*
X3974110Y-10163484D01*
X4059825Y-10363484D02*
X4059825Y-10258722D01*
X4059825Y-10258722D02*
X4050301Y-10239674D01*
X4050301Y-10239674D02*
X4031253Y-10230150D01*
X4031253Y-10230150D02*
X4002682Y-10230150D01*
X4002682Y-10230150D02*
X3983634Y-10239674D01*
X3983634Y-10239674D02*
X3974110Y-10249198D01*
X4183634Y-10363484D02*
X4164587Y-10353960D01*
X4164587Y-10353960D02*
X4155063Y-10344436D01*
X4155063Y-10344436D02*
X4145539Y-10325389D01*
X4145539Y-10325389D02*
X4145539Y-10268246D01*
X4145539Y-10268246D02*
X4155063Y-10249198D01*
X4155063Y-10249198D02*
X4164587Y-10239674D01*
X4164587Y-10239674D02*
X4183634Y-10230150D01*
X4183634Y-10230150D02*
X4212206Y-10230150D01*
X4212206Y-10230150D02*
X4231253Y-10239674D01*
X4231253Y-10239674D02*
X4240777Y-10249198D01*
X4240777Y-10249198D02*
X4250301Y-10268246D01*
X4250301Y-10268246D02*
X4250301Y-10325389D01*
X4250301Y-10325389D02*
X4240777Y-10344436D01*
X4240777Y-10344436D02*
X4231253Y-10353960D01*
X4231253Y-10353960D02*
X4212206Y-10363484D01*
X4212206Y-10363484D02*
X4183634Y-10363484D01*
X4364587Y-10363484D02*
X4345539Y-10353960D01*
X4345539Y-10353960D02*
X4336015Y-10334912D01*
X4336015Y-10334912D02*
X4336015Y-10163484D01*
X4516968Y-10353960D02*
X4497920Y-10363484D01*
X4497920Y-10363484D02*
X4459825Y-10363484D01*
X4459825Y-10363484D02*
X4440777Y-10353960D01*
X4440777Y-10353960D02*
X4431253Y-10334912D01*
X4431253Y-10334912D02*
X4431253Y-10258722D01*
X4431253Y-10258722D02*
X4440777Y-10239674D01*
X4440777Y-10239674D02*
X4459825Y-10230150D01*
X4459825Y-10230150D02*
X4497920Y-10230150D01*
X4497920Y-10230150D02*
X4516968Y-10239674D01*
X4516968Y-10239674D02*
X4526492Y-10258722D01*
X4526492Y-10258722D02*
X4526492Y-10277770D01*
X4526492Y-10277770D02*
X4431253Y-10296817D01*
X4593158Y-10439674D02*
X4602682Y-10430150D01*
X4602682Y-10430150D02*
X4621730Y-10401579D01*
X4621730Y-10401579D02*
X4631253Y-10382531D01*
X4631253Y-10382531D02*
X4640777Y-10353960D01*
X4640777Y-10353960D02*
X4650301Y-10306341D01*
X4650301Y-10306341D02*
X4650301Y-10268246D01*
X4650301Y-10268246D02*
X4640777Y-10220627D01*
X4640777Y-10220627D02*
X4631253Y-10192055D01*
X4631253Y-10192055D02*
X4621730Y-10173008D01*
X4621730Y-10173008D02*
X4602682Y-10144436D01*
X4602682Y-10144436D02*
X4593158Y-10134912D01*
M02*
