%TF.GenerationSoftware,KiCad,Pcbnew,8.0.8+dfsg-1*%
%TF.CreationDate,2025-02-21T17:29:10+00:00*%
%TF.ProjectId,a4_to_adf10_econet,61345f74-6f5f-4616-9466-31305f65636f,rev?*%
%TF.SameCoordinates,Original*%
%TF.FileFunction,Legend,Top*%
%TF.FilePolarity,Positive*%
%FSLAX46Y46*%
G04 Gerber Fmt 4.6, Leading zero omitted, Abs format (unit mm)*
G04 Created by KiCad (PCBNEW 8.0.8+dfsg-1) date 2025-02-21 17:29:10*
%MOMM*%
%LPD*%
G01*
G04 APERTURE LIST*
%ADD10C,0.300000*%
%ADD11C,0.150000*%
%ADD12C,0.120000*%
G04 APERTURE END LIST*
D10*
X88523082Y-69507341D02*
X89237368Y-69507341D01*
X88380225Y-69935912D02*
X88880225Y-68435912D01*
X88880225Y-68435912D02*
X89380225Y-69935912D01*
X90523082Y-68935912D02*
X90523082Y-69935912D01*
X90165939Y-68364484D02*
X89808796Y-69435912D01*
X89808796Y-69435912D02*
X90737367Y-69435912D01*
X92237367Y-68935912D02*
X92808795Y-68935912D01*
X92451652Y-68435912D02*
X92451652Y-69721626D01*
X92451652Y-69721626D02*
X92523081Y-69864484D01*
X92523081Y-69864484D02*
X92665938Y-69935912D01*
X92665938Y-69935912D02*
X92808795Y-69935912D01*
X93523081Y-69935912D02*
X93380224Y-69864484D01*
X93380224Y-69864484D02*
X93308795Y-69793055D01*
X93308795Y-69793055D02*
X93237367Y-69650198D01*
X93237367Y-69650198D02*
X93237367Y-69221626D01*
X93237367Y-69221626D02*
X93308795Y-69078769D01*
X93308795Y-69078769D02*
X93380224Y-69007341D01*
X93380224Y-69007341D02*
X93523081Y-68935912D01*
X93523081Y-68935912D02*
X93737367Y-68935912D01*
X93737367Y-68935912D02*
X93880224Y-69007341D01*
X93880224Y-69007341D02*
X93951653Y-69078769D01*
X93951653Y-69078769D02*
X94023081Y-69221626D01*
X94023081Y-69221626D02*
X94023081Y-69650198D01*
X94023081Y-69650198D02*
X93951653Y-69793055D01*
X93951653Y-69793055D02*
X93880224Y-69864484D01*
X93880224Y-69864484D02*
X93737367Y-69935912D01*
X93737367Y-69935912D02*
X93523081Y-69935912D01*
X95737367Y-69507341D02*
X96451653Y-69507341D01*
X95594510Y-69935912D02*
X96094510Y-68435912D01*
X96094510Y-68435912D02*
X96594510Y-69935912D01*
X97094509Y-69935912D02*
X97094509Y-68435912D01*
X97094509Y-68435912D02*
X97451652Y-68435912D01*
X97451652Y-68435912D02*
X97665938Y-68507341D01*
X97665938Y-68507341D02*
X97808795Y-68650198D01*
X97808795Y-68650198D02*
X97880224Y-68793055D01*
X97880224Y-68793055D02*
X97951652Y-69078769D01*
X97951652Y-69078769D02*
X97951652Y-69293055D01*
X97951652Y-69293055D02*
X97880224Y-69578769D01*
X97880224Y-69578769D02*
X97808795Y-69721626D01*
X97808795Y-69721626D02*
X97665938Y-69864484D01*
X97665938Y-69864484D02*
X97451652Y-69935912D01*
X97451652Y-69935912D02*
X97094509Y-69935912D01*
X99094509Y-69150198D02*
X98594509Y-69150198D01*
X98594509Y-69935912D02*
X98594509Y-68435912D01*
X98594509Y-68435912D02*
X99308795Y-68435912D01*
X100665938Y-69935912D02*
X99808795Y-69935912D01*
X100237366Y-69935912D02*
X100237366Y-68435912D01*
X100237366Y-68435912D02*
X100094509Y-68650198D01*
X100094509Y-68650198D02*
X99951652Y-68793055D01*
X99951652Y-68793055D02*
X99808795Y-68864484D01*
X101594509Y-68435912D02*
X101737366Y-68435912D01*
X101737366Y-68435912D02*
X101880223Y-68507341D01*
X101880223Y-68507341D02*
X101951652Y-68578769D01*
X101951652Y-68578769D02*
X102023080Y-68721626D01*
X102023080Y-68721626D02*
X102094509Y-69007341D01*
X102094509Y-69007341D02*
X102094509Y-69364484D01*
X102094509Y-69364484D02*
X102023080Y-69650198D01*
X102023080Y-69650198D02*
X101951652Y-69793055D01*
X101951652Y-69793055D02*
X101880223Y-69864484D01*
X101880223Y-69864484D02*
X101737366Y-69935912D01*
X101737366Y-69935912D02*
X101594509Y-69935912D01*
X101594509Y-69935912D02*
X101451652Y-69864484D01*
X101451652Y-69864484D02*
X101380223Y-69793055D01*
X101380223Y-69793055D02*
X101308794Y-69650198D01*
X101308794Y-69650198D02*
X101237366Y-69364484D01*
X101237366Y-69364484D02*
X101237366Y-69007341D01*
X101237366Y-69007341D02*
X101308794Y-68721626D01*
X101308794Y-68721626D02*
X101380223Y-68578769D01*
X101380223Y-68578769D02*
X101451652Y-68507341D01*
X101451652Y-68507341D02*
X101594509Y-68435912D01*
X104451651Y-69864484D02*
X104308794Y-69935912D01*
X104308794Y-69935912D02*
X104023080Y-69935912D01*
X104023080Y-69935912D02*
X103880222Y-69864484D01*
X103880222Y-69864484D02*
X103808794Y-69721626D01*
X103808794Y-69721626D02*
X103808794Y-69150198D01*
X103808794Y-69150198D02*
X103880222Y-69007341D01*
X103880222Y-69007341D02*
X104023080Y-68935912D01*
X104023080Y-68935912D02*
X104308794Y-68935912D01*
X104308794Y-68935912D02*
X104451651Y-69007341D01*
X104451651Y-69007341D02*
X104523080Y-69150198D01*
X104523080Y-69150198D02*
X104523080Y-69293055D01*
X104523080Y-69293055D02*
X103808794Y-69435912D01*
X105808794Y-69864484D02*
X105665936Y-69935912D01*
X105665936Y-69935912D02*
X105380222Y-69935912D01*
X105380222Y-69935912D02*
X105237365Y-69864484D01*
X105237365Y-69864484D02*
X105165936Y-69793055D01*
X105165936Y-69793055D02*
X105094508Y-69650198D01*
X105094508Y-69650198D02*
X105094508Y-69221626D01*
X105094508Y-69221626D02*
X105165936Y-69078769D01*
X105165936Y-69078769D02*
X105237365Y-69007341D01*
X105237365Y-69007341D02*
X105380222Y-68935912D01*
X105380222Y-68935912D02*
X105665936Y-68935912D01*
X105665936Y-68935912D02*
X105808794Y-69007341D01*
X106665936Y-69935912D02*
X106523079Y-69864484D01*
X106523079Y-69864484D02*
X106451650Y-69793055D01*
X106451650Y-69793055D02*
X106380222Y-69650198D01*
X106380222Y-69650198D02*
X106380222Y-69221626D01*
X106380222Y-69221626D02*
X106451650Y-69078769D01*
X106451650Y-69078769D02*
X106523079Y-69007341D01*
X106523079Y-69007341D02*
X106665936Y-68935912D01*
X106665936Y-68935912D02*
X106880222Y-68935912D01*
X106880222Y-68935912D02*
X107023079Y-69007341D01*
X107023079Y-69007341D02*
X107094508Y-69078769D01*
X107094508Y-69078769D02*
X107165936Y-69221626D01*
X107165936Y-69221626D02*
X107165936Y-69650198D01*
X107165936Y-69650198D02*
X107094508Y-69793055D01*
X107094508Y-69793055D02*
X107023079Y-69864484D01*
X107023079Y-69864484D02*
X106880222Y-69935912D01*
X106880222Y-69935912D02*
X106665936Y-69935912D01*
X107808793Y-68935912D02*
X107808793Y-69935912D01*
X107808793Y-69078769D02*
X107880222Y-69007341D01*
X107880222Y-69007341D02*
X108023079Y-68935912D01*
X108023079Y-68935912D02*
X108237365Y-68935912D01*
X108237365Y-68935912D02*
X108380222Y-69007341D01*
X108380222Y-69007341D02*
X108451651Y-69150198D01*
X108451651Y-69150198D02*
X108451651Y-69935912D01*
X109737365Y-69864484D02*
X109594508Y-69935912D01*
X109594508Y-69935912D02*
X109308794Y-69935912D01*
X109308794Y-69935912D02*
X109165936Y-69864484D01*
X109165936Y-69864484D02*
X109094508Y-69721626D01*
X109094508Y-69721626D02*
X109094508Y-69150198D01*
X109094508Y-69150198D02*
X109165936Y-69007341D01*
X109165936Y-69007341D02*
X109308794Y-68935912D01*
X109308794Y-68935912D02*
X109594508Y-68935912D01*
X109594508Y-68935912D02*
X109737365Y-69007341D01*
X109737365Y-69007341D02*
X109808794Y-69150198D01*
X109808794Y-69150198D02*
X109808794Y-69293055D01*
X109808794Y-69293055D02*
X109094508Y-69435912D01*
X110237365Y-68935912D02*
X110808793Y-68935912D01*
X110451650Y-68435912D02*
X110451650Y-69721626D01*
X110451650Y-69721626D02*
X110523079Y-69864484D01*
X110523079Y-69864484D02*
X110665936Y-69935912D01*
X110665936Y-69935912D02*
X110808793Y-69935912D01*
X89023082Y-72922257D02*
X88951653Y-72850828D01*
X88951653Y-72850828D02*
X88808796Y-72636542D01*
X88808796Y-72636542D02*
X88737368Y-72493685D01*
X88737368Y-72493685D02*
X88665939Y-72279400D01*
X88665939Y-72279400D02*
X88594510Y-71922257D01*
X88594510Y-71922257D02*
X88594510Y-71636542D01*
X88594510Y-71636542D02*
X88665939Y-71279400D01*
X88665939Y-71279400D02*
X88737368Y-71065114D01*
X88737368Y-71065114D02*
X88808796Y-70922257D01*
X88808796Y-70922257D02*
X88951653Y-70707971D01*
X88951653Y-70707971D02*
X89023082Y-70636542D01*
X90237368Y-72279400D02*
X90094510Y-72350828D01*
X90094510Y-72350828D02*
X89808796Y-72350828D01*
X89808796Y-72350828D02*
X89665939Y-72279400D01*
X89665939Y-72279400D02*
X89594510Y-72207971D01*
X89594510Y-72207971D02*
X89523082Y-72065114D01*
X89523082Y-72065114D02*
X89523082Y-71636542D01*
X89523082Y-71636542D02*
X89594510Y-71493685D01*
X89594510Y-71493685D02*
X89665939Y-71422257D01*
X89665939Y-71422257D02*
X89808796Y-71350828D01*
X89808796Y-71350828D02*
X90094510Y-71350828D01*
X90094510Y-71350828D02*
X90237368Y-71422257D01*
X90737367Y-72922257D02*
X90808796Y-72850828D01*
X90808796Y-72850828D02*
X90951653Y-72636542D01*
X90951653Y-72636542D02*
X91023082Y-72493685D01*
X91023082Y-72493685D02*
X91094510Y-72279400D01*
X91094510Y-72279400D02*
X91165939Y-71922257D01*
X91165939Y-71922257D02*
X91165939Y-71636542D01*
X91165939Y-71636542D02*
X91094510Y-71279400D01*
X91094510Y-71279400D02*
X91023082Y-71065114D01*
X91023082Y-71065114D02*
X90951653Y-70922257D01*
X90951653Y-70922257D02*
X90808796Y-70707971D01*
X90808796Y-70707971D02*
X90737367Y-70636542D01*
X92951653Y-70993685D02*
X93023081Y-70922257D01*
X93023081Y-70922257D02*
X93165939Y-70850828D01*
X93165939Y-70850828D02*
X93523081Y-70850828D01*
X93523081Y-70850828D02*
X93665939Y-70922257D01*
X93665939Y-70922257D02*
X93737367Y-70993685D01*
X93737367Y-70993685D02*
X93808796Y-71136542D01*
X93808796Y-71136542D02*
X93808796Y-71279400D01*
X93808796Y-71279400D02*
X93737367Y-71493685D01*
X93737367Y-71493685D02*
X92880224Y-72350828D01*
X92880224Y-72350828D02*
X93808796Y-72350828D01*
X94737367Y-70850828D02*
X94880224Y-70850828D01*
X94880224Y-70850828D02*
X95023081Y-70922257D01*
X95023081Y-70922257D02*
X95094510Y-70993685D01*
X95094510Y-70993685D02*
X95165938Y-71136542D01*
X95165938Y-71136542D02*
X95237367Y-71422257D01*
X95237367Y-71422257D02*
X95237367Y-71779400D01*
X95237367Y-71779400D02*
X95165938Y-72065114D01*
X95165938Y-72065114D02*
X95094510Y-72207971D01*
X95094510Y-72207971D02*
X95023081Y-72279400D01*
X95023081Y-72279400D02*
X94880224Y-72350828D01*
X94880224Y-72350828D02*
X94737367Y-72350828D01*
X94737367Y-72350828D02*
X94594510Y-72279400D01*
X94594510Y-72279400D02*
X94523081Y-72207971D01*
X94523081Y-72207971D02*
X94451652Y-72065114D01*
X94451652Y-72065114D02*
X94380224Y-71779400D01*
X94380224Y-71779400D02*
X94380224Y-71422257D01*
X94380224Y-71422257D02*
X94451652Y-71136542D01*
X94451652Y-71136542D02*
X94523081Y-70993685D01*
X94523081Y-70993685D02*
X94594510Y-70922257D01*
X94594510Y-70922257D02*
X94737367Y-70850828D01*
X95808795Y-70993685D02*
X95880223Y-70922257D01*
X95880223Y-70922257D02*
X96023081Y-70850828D01*
X96023081Y-70850828D02*
X96380223Y-70850828D01*
X96380223Y-70850828D02*
X96523081Y-70922257D01*
X96523081Y-70922257D02*
X96594509Y-70993685D01*
X96594509Y-70993685D02*
X96665938Y-71136542D01*
X96665938Y-71136542D02*
X96665938Y-71279400D01*
X96665938Y-71279400D02*
X96594509Y-71493685D01*
X96594509Y-71493685D02*
X95737366Y-72350828D01*
X95737366Y-72350828D02*
X96665938Y-72350828D01*
X98023080Y-70850828D02*
X97308794Y-70850828D01*
X97308794Y-70850828D02*
X97237366Y-71565114D01*
X97237366Y-71565114D02*
X97308794Y-71493685D01*
X97308794Y-71493685D02*
X97451652Y-71422257D01*
X97451652Y-71422257D02*
X97808794Y-71422257D01*
X97808794Y-71422257D02*
X97951652Y-71493685D01*
X97951652Y-71493685D02*
X98023080Y-71565114D01*
X98023080Y-71565114D02*
X98094509Y-71707971D01*
X98094509Y-71707971D02*
X98094509Y-72065114D01*
X98094509Y-72065114D02*
X98023080Y-72207971D01*
X98023080Y-72207971D02*
X97951652Y-72279400D01*
X97951652Y-72279400D02*
X97808794Y-72350828D01*
X97808794Y-72350828D02*
X97451652Y-72350828D01*
X97451652Y-72350828D02*
X97308794Y-72279400D01*
X97308794Y-72279400D02*
X97237366Y-72207971D01*
X100380222Y-71565114D02*
X100594508Y-71636542D01*
X100594508Y-71636542D02*
X100665937Y-71707971D01*
X100665937Y-71707971D02*
X100737365Y-71850828D01*
X100737365Y-71850828D02*
X100737365Y-72065114D01*
X100737365Y-72065114D02*
X100665937Y-72207971D01*
X100665937Y-72207971D02*
X100594508Y-72279400D01*
X100594508Y-72279400D02*
X100451651Y-72350828D01*
X100451651Y-72350828D02*
X99880222Y-72350828D01*
X99880222Y-72350828D02*
X99880222Y-70850828D01*
X99880222Y-70850828D02*
X100380222Y-70850828D01*
X100380222Y-70850828D02*
X100523080Y-70922257D01*
X100523080Y-70922257D02*
X100594508Y-70993685D01*
X100594508Y-70993685D02*
X100665937Y-71136542D01*
X100665937Y-71136542D02*
X100665937Y-71279400D01*
X100665937Y-71279400D02*
X100594508Y-71422257D01*
X100594508Y-71422257D02*
X100523080Y-71493685D01*
X100523080Y-71493685D02*
X100380222Y-71565114D01*
X100380222Y-71565114D02*
X99880222Y-71565114D01*
X101808794Y-70850828D02*
X101808794Y-71922257D01*
X101808794Y-71922257D02*
X101737365Y-72136542D01*
X101737365Y-72136542D02*
X101594508Y-72279400D01*
X101594508Y-72279400D02*
X101380222Y-72350828D01*
X101380222Y-72350828D02*
X101237365Y-72350828D01*
X103665936Y-72350828D02*
X103665936Y-70850828D01*
X103665936Y-70850828D02*
X104023079Y-70850828D01*
X104023079Y-70850828D02*
X104237365Y-70922257D01*
X104237365Y-70922257D02*
X104380222Y-71065114D01*
X104380222Y-71065114D02*
X104451651Y-71207971D01*
X104451651Y-71207971D02*
X104523079Y-71493685D01*
X104523079Y-71493685D02*
X104523079Y-71707971D01*
X104523079Y-71707971D02*
X104451651Y-71993685D01*
X104451651Y-71993685D02*
X104380222Y-72136542D01*
X104380222Y-72136542D02*
X104237365Y-72279400D01*
X104237365Y-72279400D02*
X104023079Y-72350828D01*
X104023079Y-72350828D02*
X103665936Y-72350828D01*
X105380222Y-72350828D02*
X105237365Y-72279400D01*
X105237365Y-72279400D02*
X105165936Y-72207971D01*
X105165936Y-72207971D02*
X105094508Y-72065114D01*
X105094508Y-72065114D02*
X105094508Y-71636542D01*
X105094508Y-71636542D02*
X105165936Y-71493685D01*
X105165936Y-71493685D02*
X105237365Y-71422257D01*
X105237365Y-71422257D02*
X105380222Y-71350828D01*
X105380222Y-71350828D02*
X105594508Y-71350828D01*
X105594508Y-71350828D02*
X105737365Y-71422257D01*
X105737365Y-71422257D02*
X105808794Y-71493685D01*
X105808794Y-71493685D02*
X105880222Y-71636542D01*
X105880222Y-71636542D02*
X105880222Y-72065114D01*
X105880222Y-72065114D02*
X105808794Y-72207971D01*
X105808794Y-72207971D02*
X105737365Y-72279400D01*
X105737365Y-72279400D02*
X105594508Y-72350828D01*
X105594508Y-72350828D02*
X105380222Y-72350828D01*
X106737365Y-72350828D02*
X106594508Y-72279400D01*
X106594508Y-72279400D02*
X106523079Y-72207971D01*
X106523079Y-72207971D02*
X106451651Y-72065114D01*
X106451651Y-72065114D02*
X106451651Y-71636542D01*
X106451651Y-71636542D02*
X106523079Y-71493685D01*
X106523079Y-71493685D02*
X106594508Y-71422257D01*
X106594508Y-71422257D02*
X106737365Y-71350828D01*
X106737365Y-71350828D02*
X106951651Y-71350828D01*
X106951651Y-71350828D02*
X107094508Y-71422257D01*
X107094508Y-71422257D02*
X107165937Y-71493685D01*
X107165937Y-71493685D02*
X107237365Y-71636542D01*
X107237365Y-71636542D02*
X107237365Y-72065114D01*
X107237365Y-72065114D02*
X107165937Y-72207971D01*
X107165937Y-72207971D02*
X107094508Y-72279400D01*
X107094508Y-72279400D02*
X106951651Y-72350828D01*
X106951651Y-72350828D02*
X106737365Y-72350828D01*
X107880222Y-72350828D02*
X107880222Y-70850828D01*
X108023080Y-71779400D02*
X108451651Y-72350828D01*
X108451651Y-71350828D02*
X107880222Y-71922257D01*
X109023080Y-72279400D02*
X109165937Y-72350828D01*
X109165937Y-72350828D02*
X109451651Y-72350828D01*
X109451651Y-72350828D02*
X109594508Y-72279400D01*
X109594508Y-72279400D02*
X109665937Y-72136542D01*
X109665937Y-72136542D02*
X109665937Y-72065114D01*
X109665937Y-72065114D02*
X109594508Y-71922257D01*
X109594508Y-71922257D02*
X109451651Y-71850828D01*
X109451651Y-71850828D02*
X109237366Y-71850828D01*
X109237366Y-71850828D02*
X109094508Y-71779400D01*
X109094508Y-71779400D02*
X109023080Y-71636542D01*
X109023080Y-71636542D02*
X109023080Y-71565114D01*
X109023080Y-71565114D02*
X109094508Y-71422257D01*
X109094508Y-71422257D02*
X109237366Y-71350828D01*
X109237366Y-71350828D02*
X109451651Y-71350828D01*
X109451651Y-71350828D02*
X109594508Y-71422257D01*
D11*
X75454819Y-72712857D02*
X74978628Y-73046190D01*
X75454819Y-73284285D02*
X74454819Y-73284285D01*
X74454819Y-73284285D02*
X74454819Y-72903333D01*
X74454819Y-72903333D02*
X74502438Y-72808095D01*
X74502438Y-72808095D02*
X74550057Y-72760476D01*
X74550057Y-72760476D02*
X74645295Y-72712857D01*
X74645295Y-72712857D02*
X74788152Y-72712857D01*
X74788152Y-72712857D02*
X74883390Y-72760476D01*
X74883390Y-72760476D02*
X74931009Y-72808095D01*
X74931009Y-72808095D02*
X74978628Y-72903333D01*
X74978628Y-72903333D02*
X74978628Y-73284285D01*
X75454819Y-71760476D02*
X75454819Y-72331904D01*
X75454819Y-72046190D02*
X74454819Y-72046190D01*
X74454819Y-72046190D02*
X74597676Y-72141428D01*
X74597676Y-72141428D02*
X74692914Y-72236666D01*
X74692914Y-72236666D02*
X74740533Y-72331904D01*
X74454819Y-71427142D02*
X74454819Y-70808095D01*
X74454819Y-70808095D02*
X74835771Y-71141428D01*
X74835771Y-71141428D02*
X74835771Y-70998571D01*
X74835771Y-70998571D02*
X74883390Y-70903333D01*
X74883390Y-70903333D02*
X74931009Y-70855714D01*
X74931009Y-70855714D02*
X75026247Y-70808095D01*
X75026247Y-70808095D02*
X75264342Y-70808095D01*
X75264342Y-70808095D02*
X75359580Y-70855714D01*
X75359580Y-70855714D02*
X75407200Y-70903333D01*
X75407200Y-70903333D02*
X75454819Y-70998571D01*
X75454819Y-70998571D02*
X75454819Y-71284285D01*
X75454819Y-71284285D02*
X75407200Y-71379523D01*
X75407200Y-71379523D02*
X75359580Y-71427142D01*
X73304761Y-67430057D02*
X73209523Y-67382438D01*
X73209523Y-67382438D02*
X73114285Y-67287200D01*
X73114285Y-67287200D02*
X72971428Y-67144342D01*
X72971428Y-67144342D02*
X72876190Y-67096723D01*
X72876190Y-67096723D02*
X72780952Y-67096723D01*
X72828571Y-67334819D02*
X72733333Y-67287200D01*
X72733333Y-67287200D02*
X72638095Y-67191961D01*
X72638095Y-67191961D02*
X72590476Y-67001485D01*
X72590476Y-67001485D02*
X72590476Y-66668152D01*
X72590476Y-66668152D02*
X72638095Y-66477676D01*
X72638095Y-66477676D02*
X72733333Y-66382438D01*
X72733333Y-66382438D02*
X72828571Y-66334819D01*
X72828571Y-66334819D02*
X73019047Y-66334819D01*
X73019047Y-66334819D02*
X73114285Y-66382438D01*
X73114285Y-66382438D02*
X73209523Y-66477676D01*
X73209523Y-66477676D02*
X73257142Y-66668152D01*
X73257142Y-66668152D02*
X73257142Y-67001485D01*
X73257142Y-67001485D02*
X73209523Y-67191961D01*
X73209523Y-67191961D02*
X73114285Y-67287200D01*
X73114285Y-67287200D02*
X73019047Y-67334819D01*
X73019047Y-67334819D02*
X72828571Y-67334819D01*
X73638095Y-66430057D02*
X73685714Y-66382438D01*
X73685714Y-66382438D02*
X73780952Y-66334819D01*
X73780952Y-66334819D02*
X74019047Y-66334819D01*
X74019047Y-66334819D02*
X74114285Y-66382438D01*
X74114285Y-66382438D02*
X74161904Y-66430057D01*
X74161904Y-66430057D02*
X74209523Y-66525295D01*
X74209523Y-66525295D02*
X74209523Y-66620533D01*
X74209523Y-66620533D02*
X74161904Y-66763390D01*
X74161904Y-66763390D02*
X73590476Y-67334819D01*
X73590476Y-67334819D02*
X74209523Y-67334819D01*
X79914819Y-72813094D02*
X78914819Y-72813094D01*
X78914819Y-72813094D02*
X78914819Y-72574999D01*
X78914819Y-72574999D02*
X78962438Y-72432142D01*
X78962438Y-72432142D02*
X79057676Y-72336904D01*
X79057676Y-72336904D02*
X79152914Y-72289285D01*
X79152914Y-72289285D02*
X79343390Y-72241666D01*
X79343390Y-72241666D02*
X79486247Y-72241666D01*
X79486247Y-72241666D02*
X79676723Y-72289285D01*
X79676723Y-72289285D02*
X79771961Y-72336904D01*
X79771961Y-72336904D02*
X79867200Y-72432142D01*
X79867200Y-72432142D02*
X79914819Y-72574999D01*
X79914819Y-72574999D02*
X79914819Y-72813094D01*
X78914819Y-71908332D02*
X78914819Y-71289285D01*
X78914819Y-71289285D02*
X79295771Y-71622618D01*
X79295771Y-71622618D02*
X79295771Y-71479761D01*
X79295771Y-71479761D02*
X79343390Y-71384523D01*
X79343390Y-71384523D02*
X79391009Y-71336904D01*
X79391009Y-71336904D02*
X79486247Y-71289285D01*
X79486247Y-71289285D02*
X79724342Y-71289285D01*
X79724342Y-71289285D02*
X79819580Y-71336904D01*
X79819580Y-71336904D02*
X79867200Y-71384523D01*
X79867200Y-71384523D02*
X79914819Y-71479761D01*
X79914819Y-71479761D02*
X79914819Y-71765475D01*
X79914819Y-71765475D02*
X79867200Y-71860713D01*
X79867200Y-71860713D02*
X79819580Y-71908332D01*
X84279580Y-65855357D02*
X84327200Y-65902976D01*
X84327200Y-65902976D02*
X84374819Y-66045833D01*
X84374819Y-66045833D02*
X84374819Y-66141071D01*
X84374819Y-66141071D02*
X84327200Y-66283928D01*
X84327200Y-66283928D02*
X84231961Y-66379166D01*
X84231961Y-66379166D02*
X84136723Y-66426785D01*
X84136723Y-66426785D02*
X83946247Y-66474404D01*
X83946247Y-66474404D02*
X83803390Y-66474404D01*
X83803390Y-66474404D02*
X83612914Y-66426785D01*
X83612914Y-66426785D02*
X83517676Y-66379166D01*
X83517676Y-66379166D02*
X83422438Y-66283928D01*
X83422438Y-66283928D02*
X83374819Y-66141071D01*
X83374819Y-66141071D02*
X83374819Y-66045833D01*
X83374819Y-66045833D02*
X83422438Y-65902976D01*
X83422438Y-65902976D02*
X83470057Y-65855357D01*
X84374819Y-64902976D02*
X84374819Y-65474404D01*
X84374819Y-65188690D02*
X83374819Y-65188690D01*
X83374819Y-65188690D02*
X83517676Y-65283928D01*
X83517676Y-65283928D02*
X83612914Y-65379166D01*
X83612914Y-65379166D02*
X83660533Y-65474404D01*
X83374819Y-64283928D02*
X83374819Y-64188690D01*
X83374819Y-64188690D02*
X83422438Y-64093452D01*
X83422438Y-64093452D02*
X83470057Y-64045833D01*
X83470057Y-64045833D02*
X83565295Y-63998214D01*
X83565295Y-63998214D02*
X83755771Y-63950595D01*
X83755771Y-63950595D02*
X83993866Y-63950595D01*
X83993866Y-63950595D02*
X84184342Y-63998214D01*
X84184342Y-63998214D02*
X84279580Y-64045833D01*
X84279580Y-64045833D02*
X84327200Y-64093452D01*
X84327200Y-64093452D02*
X84374819Y-64188690D01*
X84374819Y-64188690D02*
X84374819Y-64283928D01*
X84374819Y-64283928D02*
X84327200Y-64379166D01*
X84327200Y-64379166D02*
X84279580Y-64426785D01*
X84279580Y-64426785D02*
X84184342Y-64474404D01*
X84184342Y-64474404D02*
X83993866Y-64522023D01*
X83993866Y-64522023D02*
X83755771Y-64522023D01*
X83755771Y-64522023D02*
X83565295Y-64474404D01*
X83565295Y-64474404D02*
X83470057Y-64426785D01*
X83470057Y-64426785D02*
X83422438Y-64379166D01*
X83422438Y-64379166D02*
X83374819Y-64283928D01*
X55139580Y-27256666D02*
X55187200Y-27304285D01*
X55187200Y-27304285D02*
X55234819Y-27447142D01*
X55234819Y-27447142D02*
X55234819Y-27542380D01*
X55234819Y-27542380D02*
X55187200Y-27685237D01*
X55187200Y-27685237D02*
X55091961Y-27780475D01*
X55091961Y-27780475D02*
X54996723Y-27828094D01*
X54996723Y-27828094D02*
X54806247Y-27875713D01*
X54806247Y-27875713D02*
X54663390Y-27875713D01*
X54663390Y-27875713D02*
X54472914Y-27828094D01*
X54472914Y-27828094D02*
X54377676Y-27780475D01*
X54377676Y-27780475D02*
X54282438Y-27685237D01*
X54282438Y-27685237D02*
X54234819Y-27542380D01*
X54234819Y-27542380D02*
X54234819Y-27447142D01*
X54234819Y-27447142D02*
X54282438Y-27304285D01*
X54282438Y-27304285D02*
X54330057Y-27256666D01*
X55234819Y-26780475D02*
X55234819Y-26589999D01*
X55234819Y-26589999D02*
X55187200Y-26494761D01*
X55187200Y-26494761D02*
X55139580Y-26447142D01*
X55139580Y-26447142D02*
X54996723Y-26351904D01*
X54996723Y-26351904D02*
X54806247Y-26304285D01*
X54806247Y-26304285D02*
X54425295Y-26304285D01*
X54425295Y-26304285D02*
X54330057Y-26351904D01*
X54330057Y-26351904D02*
X54282438Y-26399523D01*
X54282438Y-26399523D02*
X54234819Y-26494761D01*
X54234819Y-26494761D02*
X54234819Y-26685237D01*
X54234819Y-26685237D02*
X54282438Y-26780475D01*
X54282438Y-26780475D02*
X54330057Y-26828094D01*
X54330057Y-26828094D02*
X54425295Y-26875713D01*
X54425295Y-26875713D02*
X54663390Y-26875713D01*
X54663390Y-26875713D02*
X54758628Y-26828094D01*
X54758628Y-26828094D02*
X54806247Y-26780475D01*
X54806247Y-26780475D02*
X54853866Y-26685237D01*
X54853866Y-26685237D02*
X54853866Y-26494761D01*
X54853866Y-26494761D02*
X54806247Y-26399523D01*
X54806247Y-26399523D02*
X54758628Y-26351904D01*
X54758628Y-26351904D02*
X54663390Y-26304285D01*
X101253333Y-55449580D02*
X101205714Y-55497200D01*
X101205714Y-55497200D02*
X101062857Y-55544819D01*
X101062857Y-55544819D02*
X100967619Y-55544819D01*
X100967619Y-55544819D02*
X100824762Y-55497200D01*
X100824762Y-55497200D02*
X100729524Y-55401961D01*
X100729524Y-55401961D02*
X100681905Y-55306723D01*
X100681905Y-55306723D02*
X100634286Y-55116247D01*
X100634286Y-55116247D02*
X100634286Y-54973390D01*
X100634286Y-54973390D02*
X100681905Y-54782914D01*
X100681905Y-54782914D02*
X100729524Y-54687676D01*
X100729524Y-54687676D02*
X100824762Y-54592438D01*
X100824762Y-54592438D02*
X100967619Y-54544819D01*
X100967619Y-54544819D02*
X101062857Y-54544819D01*
X101062857Y-54544819D02*
X101205714Y-54592438D01*
X101205714Y-54592438D02*
X101253333Y-54640057D01*
X101824762Y-54973390D02*
X101729524Y-54925771D01*
X101729524Y-54925771D02*
X101681905Y-54878152D01*
X101681905Y-54878152D02*
X101634286Y-54782914D01*
X101634286Y-54782914D02*
X101634286Y-54735295D01*
X101634286Y-54735295D02*
X101681905Y-54640057D01*
X101681905Y-54640057D02*
X101729524Y-54592438D01*
X101729524Y-54592438D02*
X101824762Y-54544819D01*
X101824762Y-54544819D02*
X102015238Y-54544819D01*
X102015238Y-54544819D02*
X102110476Y-54592438D01*
X102110476Y-54592438D02*
X102158095Y-54640057D01*
X102158095Y-54640057D02*
X102205714Y-54735295D01*
X102205714Y-54735295D02*
X102205714Y-54782914D01*
X102205714Y-54782914D02*
X102158095Y-54878152D01*
X102158095Y-54878152D02*
X102110476Y-54925771D01*
X102110476Y-54925771D02*
X102015238Y-54973390D01*
X102015238Y-54973390D02*
X101824762Y-54973390D01*
X101824762Y-54973390D02*
X101729524Y-55021009D01*
X101729524Y-55021009D02*
X101681905Y-55068628D01*
X101681905Y-55068628D02*
X101634286Y-55163866D01*
X101634286Y-55163866D02*
X101634286Y-55354342D01*
X101634286Y-55354342D02*
X101681905Y-55449580D01*
X101681905Y-55449580D02*
X101729524Y-55497200D01*
X101729524Y-55497200D02*
X101824762Y-55544819D01*
X101824762Y-55544819D02*
X102015238Y-55544819D01*
X102015238Y-55544819D02*
X102110476Y-55497200D01*
X102110476Y-55497200D02*
X102158095Y-55449580D01*
X102158095Y-55449580D02*
X102205714Y-55354342D01*
X102205714Y-55354342D02*
X102205714Y-55163866D01*
X102205714Y-55163866D02*
X102158095Y-55068628D01*
X102158095Y-55068628D02*
X102110476Y-55021009D01*
X102110476Y-55021009D02*
X102015238Y-54973390D01*
X84105833Y-21589580D02*
X84058214Y-21637200D01*
X84058214Y-21637200D02*
X83915357Y-21684819D01*
X83915357Y-21684819D02*
X83820119Y-21684819D01*
X83820119Y-21684819D02*
X83677262Y-21637200D01*
X83677262Y-21637200D02*
X83582024Y-21541961D01*
X83582024Y-21541961D02*
X83534405Y-21446723D01*
X83534405Y-21446723D02*
X83486786Y-21256247D01*
X83486786Y-21256247D02*
X83486786Y-21113390D01*
X83486786Y-21113390D02*
X83534405Y-20922914D01*
X83534405Y-20922914D02*
X83582024Y-20827676D01*
X83582024Y-20827676D02*
X83677262Y-20732438D01*
X83677262Y-20732438D02*
X83820119Y-20684819D01*
X83820119Y-20684819D02*
X83915357Y-20684819D01*
X83915357Y-20684819D02*
X84058214Y-20732438D01*
X84058214Y-20732438D02*
X84105833Y-20780057D01*
X84439167Y-20684819D02*
X85105833Y-20684819D01*
X85105833Y-20684819D02*
X84677262Y-21684819D01*
X76574819Y-31079523D02*
X77289104Y-31079523D01*
X77289104Y-31079523D02*
X77431961Y-31127142D01*
X77431961Y-31127142D02*
X77527200Y-31222380D01*
X77527200Y-31222380D02*
X77574819Y-31365237D01*
X77574819Y-31365237D02*
X77574819Y-31460475D01*
X77574819Y-30079523D02*
X77574819Y-30650951D01*
X77574819Y-30365237D02*
X76574819Y-30365237D01*
X76574819Y-30365237D02*
X76717676Y-30460475D01*
X76717676Y-30460475D02*
X76812914Y-30555713D01*
X76812914Y-30555713D02*
X76860533Y-30650951D01*
X77574819Y-29127142D02*
X77574819Y-29698570D01*
X77574819Y-29412856D02*
X76574819Y-29412856D01*
X76574819Y-29412856D02*
X76717676Y-29508094D01*
X76717676Y-29508094D02*
X76812914Y-29603332D01*
X76812914Y-29603332D02*
X76860533Y-29698570D01*
X6390476Y-44244819D02*
X6390476Y-44959104D01*
X6390476Y-44959104D02*
X6342857Y-45101961D01*
X6342857Y-45101961D02*
X6247619Y-45197200D01*
X6247619Y-45197200D02*
X6104762Y-45244819D01*
X6104762Y-45244819D02*
X6009524Y-45244819D01*
X7390476Y-45244819D02*
X6819048Y-45244819D01*
X7104762Y-45244819D02*
X7104762Y-44244819D01*
X7104762Y-44244819D02*
X7009524Y-44387676D01*
X7009524Y-44387676D02*
X6914286Y-44482914D01*
X6914286Y-44482914D02*
X6819048Y-44530533D01*
X8009524Y-44244819D02*
X8104762Y-44244819D01*
X8104762Y-44244819D02*
X8200000Y-44292438D01*
X8200000Y-44292438D02*
X8247619Y-44340057D01*
X8247619Y-44340057D02*
X8295238Y-44435295D01*
X8295238Y-44435295D02*
X8342857Y-44625771D01*
X8342857Y-44625771D02*
X8342857Y-44863866D01*
X8342857Y-44863866D02*
X8295238Y-45054342D01*
X8295238Y-45054342D02*
X8247619Y-45149580D01*
X8247619Y-45149580D02*
X8200000Y-45197200D01*
X8200000Y-45197200D02*
X8104762Y-45244819D01*
X8104762Y-45244819D02*
X8009524Y-45244819D01*
X8009524Y-45244819D02*
X7914286Y-45197200D01*
X7914286Y-45197200D02*
X7866667Y-45149580D01*
X7866667Y-45149580D02*
X7819048Y-45054342D01*
X7819048Y-45054342D02*
X7771429Y-44863866D01*
X7771429Y-44863866D02*
X7771429Y-44625771D01*
X7771429Y-44625771D02*
X7819048Y-44435295D01*
X7819048Y-44435295D02*
X7866667Y-44340057D01*
X7866667Y-44340057D02*
X7914286Y-44292438D01*
X7914286Y-44292438D02*
X8009524Y-44244819D01*
X86220833Y-56889580D02*
X86173214Y-56937200D01*
X86173214Y-56937200D02*
X86030357Y-56984819D01*
X86030357Y-56984819D02*
X85935119Y-56984819D01*
X85935119Y-56984819D02*
X85792262Y-56937200D01*
X85792262Y-56937200D02*
X85697024Y-56841961D01*
X85697024Y-56841961D02*
X85649405Y-56746723D01*
X85649405Y-56746723D02*
X85601786Y-56556247D01*
X85601786Y-56556247D02*
X85601786Y-56413390D01*
X85601786Y-56413390D02*
X85649405Y-56222914D01*
X85649405Y-56222914D02*
X85697024Y-56127676D01*
X85697024Y-56127676D02*
X85792262Y-56032438D01*
X85792262Y-56032438D02*
X85935119Y-55984819D01*
X85935119Y-55984819D02*
X86030357Y-55984819D01*
X86030357Y-55984819D02*
X86173214Y-56032438D01*
X86173214Y-56032438D02*
X86220833Y-56080057D01*
X87077976Y-55984819D02*
X86887500Y-55984819D01*
X86887500Y-55984819D02*
X86792262Y-56032438D01*
X86792262Y-56032438D02*
X86744643Y-56080057D01*
X86744643Y-56080057D02*
X86649405Y-56222914D01*
X86649405Y-56222914D02*
X86601786Y-56413390D01*
X86601786Y-56413390D02*
X86601786Y-56794342D01*
X86601786Y-56794342D02*
X86649405Y-56889580D01*
X86649405Y-56889580D02*
X86697024Y-56937200D01*
X86697024Y-56937200D02*
X86792262Y-56984819D01*
X86792262Y-56984819D02*
X86982738Y-56984819D01*
X86982738Y-56984819D02*
X87077976Y-56937200D01*
X87077976Y-56937200D02*
X87125595Y-56889580D01*
X87125595Y-56889580D02*
X87173214Y-56794342D01*
X87173214Y-56794342D02*
X87173214Y-56556247D01*
X87173214Y-56556247D02*
X87125595Y-56461009D01*
X87125595Y-56461009D02*
X87077976Y-56413390D01*
X87077976Y-56413390D02*
X86982738Y-56365771D01*
X86982738Y-56365771D02*
X86792262Y-56365771D01*
X86792262Y-56365771D02*
X86697024Y-56413390D01*
X86697024Y-56413390D02*
X86649405Y-56461009D01*
X86649405Y-56461009D02*
X86601786Y-56556247D01*
X73524761Y-28850057D02*
X73429523Y-28802438D01*
X73429523Y-28802438D02*
X73334285Y-28707200D01*
X73334285Y-28707200D02*
X73191428Y-28564342D01*
X73191428Y-28564342D02*
X73096190Y-28516723D01*
X73096190Y-28516723D02*
X73000952Y-28516723D01*
X73048571Y-28754819D02*
X72953333Y-28707200D01*
X72953333Y-28707200D02*
X72858095Y-28611961D01*
X72858095Y-28611961D02*
X72810476Y-28421485D01*
X72810476Y-28421485D02*
X72810476Y-28088152D01*
X72810476Y-28088152D02*
X72858095Y-27897676D01*
X72858095Y-27897676D02*
X72953333Y-27802438D01*
X72953333Y-27802438D02*
X73048571Y-27754819D01*
X73048571Y-27754819D02*
X73239047Y-27754819D01*
X73239047Y-27754819D02*
X73334285Y-27802438D01*
X73334285Y-27802438D02*
X73429523Y-27897676D01*
X73429523Y-27897676D02*
X73477142Y-28088152D01*
X73477142Y-28088152D02*
X73477142Y-28421485D01*
X73477142Y-28421485D02*
X73429523Y-28611961D01*
X73429523Y-28611961D02*
X73334285Y-28707200D01*
X73334285Y-28707200D02*
X73239047Y-28754819D01*
X73239047Y-28754819D02*
X73048571Y-28754819D01*
X74429523Y-28754819D02*
X73858095Y-28754819D01*
X74143809Y-28754819D02*
X74143809Y-27754819D01*
X74143809Y-27754819D02*
X74048571Y-27897676D01*
X74048571Y-27897676D02*
X73953333Y-27992914D01*
X73953333Y-27992914D02*
X73858095Y-28040533D01*
X69756666Y-21744819D02*
X69756666Y-22459104D01*
X69756666Y-22459104D02*
X69709047Y-22601961D01*
X69709047Y-22601961D02*
X69613809Y-22697200D01*
X69613809Y-22697200D02*
X69470952Y-22744819D01*
X69470952Y-22744819D02*
X69375714Y-22744819D01*
X70280476Y-22744819D02*
X70470952Y-22744819D01*
X70470952Y-22744819D02*
X70566190Y-22697200D01*
X70566190Y-22697200D02*
X70613809Y-22649580D01*
X70613809Y-22649580D02*
X70709047Y-22506723D01*
X70709047Y-22506723D02*
X70756666Y-22316247D01*
X70756666Y-22316247D02*
X70756666Y-21935295D01*
X70756666Y-21935295D02*
X70709047Y-21840057D01*
X70709047Y-21840057D02*
X70661428Y-21792438D01*
X70661428Y-21792438D02*
X70566190Y-21744819D01*
X70566190Y-21744819D02*
X70375714Y-21744819D01*
X70375714Y-21744819D02*
X70280476Y-21792438D01*
X70280476Y-21792438D02*
X70232857Y-21840057D01*
X70232857Y-21840057D02*
X70185238Y-21935295D01*
X70185238Y-21935295D02*
X70185238Y-22173390D01*
X70185238Y-22173390D02*
X70232857Y-22268628D01*
X70232857Y-22268628D02*
X70280476Y-22316247D01*
X70280476Y-22316247D02*
X70375714Y-22363866D01*
X70375714Y-22363866D02*
X70566190Y-22363866D01*
X70566190Y-22363866D02*
X70661428Y-22316247D01*
X70661428Y-22316247D02*
X70709047Y-22268628D01*
X70709047Y-22268628D02*
X70756666Y-22173390D01*
X86489819Y-65513333D02*
X87204104Y-65513333D01*
X87204104Y-65513333D02*
X87346961Y-65560952D01*
X87346961Y-65560952D02*
X87442200Y-65656190D01*
X87442200Y-65656190D02*
X87489819Y-65799047D01*
X87489819Y-65799047D02*
X87489819Y-65894285D01*
X86918390Y-64894285D02*
X86870771Y-64989523D01*
X86870771Y-64989523D02*
X86823152Y-65037142D01*
X86823152Y-65037142D02*
X86727914Y-65084761D01*
X86727914Y-65084761D02*
X86680295Y-65084761D01*
X86680295Y-65084761D02*
X86585057Y-65037142D01*
X86585057Y-65037142D02*
X86537438Y-64989523D01*
X86537438Y-64989523D02*
X86489819Y-64894285D01*
X86489819Y-64894285D02*
X86489819Y-64703809D01*
X86489819Y-64703809D02*
X86537438Y-64608571D01*
X86537438Y-64608571D02*
X86585057Y-64560952D01*
X86585057Y-64560952D02*
X86680295Y-64513333D01*
X86680295Y-64513333D02*
X86727914Y-64513333D01*
X86727914Y-64513333D02*
X86823152Y-64560952D01*
X86823152Y-64560952D02*
X86870771Y-64608571D01*
X86870771Y-64608571D02*
X86918390Y-64703809D01*
X86918390Y-64703809D02*
X86918390Y-64894285D01*
X86918390Y-64894285D02*
X86966009Y-64989523D01*
X86966009Y-64989523D02*
X87013628Y-65037142D01*
X87013628Y-65037142D02*
X87108866Y-65084761D01*
X87108866Y-65084761D02*
X87299342Y-65084761D01*
X87299342Y-65084761D02*
X87394580Y-65037142D01*
X87394580Y-65037142D02*
X87442200Y-64989523D01*
X87442200Y-64989523D02*
X87489819Y-64894285D01*
X87489819Y-64894285D02*
X87489819Y-64703809D01*
X87489819Y-64703809D02*
X87442200Y-64608571D01*
X87442200Y-64608571D02*
X87394580Y-64560952D01*
X87394580Y-64560952D02*
X87299342Y-64513333D01*
X87299342Y-64513333D02*
X87108866Y-64513333D01*
X87108866Y-64513333D02*
X87013628Y-64560952D01*
X87013628Y-64560952D02*
X86966009Y-64608571D01*
X86966009Y-64608571D02*
X86918390Y-64703809D01*
X65333333Y-61989580D02*
X65285714Y-62037200D01*
X65285714Y-62037200D02*
X65142857Y-62084819D01*
X65142857Y-62084819D02*
X65047619Y-62084819D01*
X65047619Y-62084819D02*
X64904762Y-62037200D01*
X64904762Y-62037200D02*
X64809524Y-61941961D01*
X64809524Y-61941961D02*
X64761905Y-61846723D01*
X64761905Y-61846723D02*
X64714286Y-61656247D01*
X64714286Y-61656247D02*
X64714286Y-61513390D01*
X64714286Y-61513390D02*
X64761905Y-61322914D01*
X64761905Y-61322914D02*
X64809524Y-61227676D01*
X64809524Y-61227676D02*
X64904762Y-61132438D01*
X64904762Y-61132438D02*
X65047619Y-61084819D01*
X65047619Y-61084819D02*
X65142857Y-61084819D01*
X65142857Y-61084819D02*
X65285714Y-61132438D01*
X65285714Y-61132438D02*
X65333333Y-61180057D01*
X66238095Y-61084819D02*
X65761905Y-61084819D01*
X65761905Y-61084819D02*
X65714286Y-61561009D01*
X65714286Y-61561009D02*
X65761905Y-61513390D01*
X65761905Y-61513390D02*
X65857143Y-61465771D01*
X65857143Y-61465771D02*
X66095238Y-61465771D01*
X66095238Y-61465771D02*
X66190476Y-61513390D01*
X66190476Y-61513390D02*
X66238095Y-61561009D01*
X66238095Y-61561009D02*
X66285714Y-61656247D01*
X66285714Y-61656247D02*
X66285714Y-61894342D01*
X66285714Y-61894342D02*
X66238095Y-61989580D01*
X66238095Y-61989580D02*
X66190476Y-62037200D01*
X66190476Y-62037200D02*
X66095238Y-62084819D01*
X66095238Y-62084819D02*
X65857143Y-62084819D01*
X65857143Y-62084819D02*
X65761905Y-62037200D01*
X65761905Y-62037200D02*
X65714286Y-61989580D01*
X64707142Y-64724819D02*
X64373809Y-64248628D01*
X64135714Y-64724819D02*
X64135714Y-63724819D01*
X64135714Y-63724819D02*
X64516666Y-63724819D01*
X64516666Y-63724819D02*
X64611904Y-63772438D01*
X64611904Y-63772438D02*
X64659523Y-63820057D01*
X64659523Y-63820057D02*
X64707142Y-63915295D01*
X64707142Y-63915295D02*
X64707142Y-64058152D01*
X64707142Y-64058152D02*
X64659523Y-64153390D01*
X64659523Y-64153390D02*
X64611904Y-64201009D01*
X64611904Y-64201009D02*
X64516666Y-64248628D01*
X64516666Y-64248628D02*
X64135714Y-64248628D01*
X65659523Y-64724819D02*
X65088095Y-64724819D01*
X65373809Y-64724819D02*
X65373809Y-63724819D01*
X65373809Y-63724819D02*
X65278571Y-63867676D01*
X65278571Y-63867676D02*
X65183333Y-63962914D01*
X65183333Y-63962914D02*
X65088095Y-64010533D01*
X66611904Y-64724819D02*
X66040476Y-64724819D01*
X66326190Y-64724819D02*
X66326190Y-63724819D01*
X66326190Y-63724819D02*
X66230952Y-63867676D01*
X66230952Y-63867676D02*
X66135714Y-63962914D01*
X66135714Y-63962914D02*
X66040476Y-64010533D01*
X64086905Y-33584819D02*
X64086905Y-32584819D01*
X64086905Y-32584819D02*
X64325000Y-32584819D01*
X64325000Y-32584819D02*
X64467857Y-32632438D01*
X64467857Y-32632438D02*
X64563095Y-32727676D01*
X64563095Y-32727676D02*
X64610714Y-32822914D01*
X64610714Y-32822914D02*
X64658333Y-33013390D01*
X64658333Y-33013390D02*
X64658333Y-33156247D01*
X64658333Y-33156247D02*
X64610714Y-33346723D01*
X64610714Y-33346723D02*
X64563095Y-33441961D01*
X64563095Y-33441961D02*
X64467857Y-33537200D01*
X64467857Y-33537200D02*
X64325000Y-33584819D01*
X64325000Y-33584819D02*
X64086905Y-33584819D01*
X65039286Y-32680057D02*
X65086905Y-32632438D01*
X65086905Y-32632438D02*
X65182143Y-32584819D01*
X65182143Y-32584819D02*
X65420238Y-32584819D01*
X65420238Y-32584819D02*
X65515476Y-32632438D01*
X65515476Y-32632438D02*
X65563095Y-32680057D01*
X65563095Y-32680057D02*
X65610714Y-32775295D01*
X65610714Y-32775295D02*
X65610714Y-32870533D01*
X65610714Y-32870533D02*
X65563095Y-33013390D01*
X65563095Y-33013390D02*
X64991667Y-33584819D01*
X64991667Y-33584819D02*
X65610714Y-33584819D01*
X61938095Y-70404819D02*
X61938095Y-71214342D01*
X61938095Y-71214342D02*
X61985714Y-71309580D01*
X61985714Y-71309580D02*
X62033333Y-71357200D01*
X62033333Y-71357200D02*
X62128571Y-71404819D01*
X62128571Y-71404819D02*
X62319047Y-71404819D01*
X62319047Y-71404819D02*
X62414285Y-71357200D01*
X62414285Y-71357200D02*
X62461904Y-71309580D01*
X62461904Y-71309580D02*
X62509523Y-71214342D01*
X62509523Y-71214342D02*
X62509523Y-70404819D01*
X63414285Y-70738152D02*
X63414285Y-71404819D01*
X63176190Y-70357200D02*
X62938095Y-71071485D01*
X62938095Y-71071485D02*
X63557142Y-71071485D01*
X55445833Y-64624819D02*
X55112500Y-64148628D01*
X54874405Y-64624819D02*
X54874405Y-63624819D01*
X54874405Y-63624819D02*
X55255357Y-63624819D01*
X55255357Y-63624819D02*
X55350595Y-63672438D01*
X55350595Y-63672438D02*
X55398214Y-63720057D01*
X55398214Y-63720057D02*
X55445833Y-63815295D01*
X55445833Y-63815295D02*
X55445833Y-63958152D01*
X55445833Y-63958152D02*
X55398214Y-64053390D01*
X55398214Y-64053390D02*
X55350595Y-64101009D01*
X55350595Y-64101009D02*
X55255357Y-64148628D01*
X55255357Y-64148628D02*
X54874405Y-64148628D01*
X56398214Y-64624819D02*
X55826786Y-64624819D01*
X56112500Y-64624819D02*
X56112500Y-63624819D01*
X56112500Y-63624819D02*
X56017262Y-63767676D01*
X56017262Y-63767676D02*
X55922024Y-63862914D01*
X55922024Y-63862914D02*
X55826786Y-63910533D01*
X90926666Y-52724819D02*
X90926666Y-53439104D01*
X90926666Y-53439104D02*
X90879047Y-53581961D01*
X90879047Y-53581961D02*
X90783809Y-53677200D01*
X90783809Y-53677200D02*
X90640952Y-53724819D01*
X90640952Y-53724819D02*
X90545714Y-53724819D01*
X91355238Y-52820057D02*
X91402857Y-52772438D01*
X91402857Y-52772438D02*
X91498095Y-52724819D01*
X91498095Y-52724819D02*
X91736190Y-52724819D01*
X91736190Y-52724819D02*
X91831428Y-52772438D01*
X91831428Y-52772438D02*
X91879047Y-52820057D01*
X91879047Y-52820057D02*
X91926666Y-52915295D01*
X91926666Y-52915295D02*
X91926666Y-53010533D01*
X91926666Y-53010533D02*
X91879047Y-53153390D01*
X91879047Y-53153390D02*
X91307619Y-53724819D01*
X91307619Y-53724819D02*
X91926666Y-53724819D01*
X89083155Y-61584819D02*
X89083155Y-60584819D01*
X89083155Y-60584819D02*
X89321250Y-60584819D01*
X89321250Y-60584819D02*
X89464107Y-60632438D01*
X89464107Y-60632438D02*
X89559345Y-60727676D01*
X89559345Y-60727676D02*
X89606964Y-60822914D01*
X89606964Y-60822914D02*
X89654583Y-61013390D01*
X89654583Y-61013390D02*
X89654583Y-61156247D01*
X89654583Y-61156247D02*
X89606964Y-61346723D01*
X89606964Y-61346723D02*
X89559345Y-61441961D01*
X89559345Y-61441961D02*
X89464107Y-61537200D01*
X89464107Y-61537200D02*
X89321250Y-61584819D01*
X89321250Y-61584819D02*
X89083155Y-61584819D01*
X90606964Y-61584819D02*
X90035536Y-61584819D01*
X90321250Y-61584819D02*
X90321250Y-60584819D01*
X90321250Y-60584819D02*
X90226012Y-60727676D01*
X90226012Y-60727676D02*
X90130774Y-60822914D01*
X90130774Y-60822914D02*
X90035536Y-60870533D01*
X9666667Y-59056819D02*
X9666667Y-58056819D01*
X9666667Y-58056819D02*
X10000000Y-58771104D01*
X10000000Y-58771104D02*
X10333333Y-58056819D01*
X10333333Y-58056819D02*
X10333333Y-59056819D01*
X10809524Y-59056819D02*
X10809524Y-58056819D01*
X10809524Y-58533009D02*
X11380952Y-58533009D01*
X11380952Y-59056819D02*
X11380952Y-58056819D01*
X12333333Y-58056819D02*
X11857143Y-58056819D01*
X11857143Y-58056819D02*
X11809524Y-58533009D01*
X11809524Y-58533009D02*
X11857143Y-58485390D01*
X11857143Y-58485390D02*
X11952381Y-58437771D01*
X11952381Y-58437771D02*
X12190476Y-58437771D01*
X12190476Y-58437771D02*
X12285714Y-58485390D01*
X12285714Y-58485390D02*
X12333333Y-58533009D01*
X12333333Y-58533009D02*
X12380952Y-58628247D01*
X12380952Y-58628247D02*
X12380952Y-58866342D01*
X12380952Y-58866342D02*
X12333333Y-58961580D01*
X12333333Y-58961580D02*
X12285714Y-59009200D01*
X12285714Y-59009200D02*
X12190476Y-59056819D01*
X12190476Y-59056819D02*
X11952381Y-59056819D01*
X11952381Y-59056819D02*
X11857143Y-59009200D01*
X11857143Y-59009200D02*
X11809524Y-58961580D01*
X12238095Y-61754819D02*
X12238095Y-60754819D01*
X12238095Y-61231009D02*
X12809523Y-61231009D01*
X12809523Y-61754819D02*
X12809523Y-60754819D01*
X13238095Y-60850057D02*
X13285714Y-60802438D01*
X13285714Y-60802438D02*
X13380952Y-60754819D01*
X13380952Y-60754819D02*
X13619047Y-60754819D01*
X13619047Y-60754819D02*
X13714285Y-60802438D01*
X13714285Y-60802438D02*
X13761904Y-60850057D01*
X13761904Y-60850057D02*
X13809523Y-60945295D01*
X13809523Y-60945295D02*
X13809523Y-61040533D01*
X13809523Y-61040533D02*
X13761904Y-61183390D01*
X13761904Y-61183390D02*
X13190476Y-61754819D01*
X13190476Y-61754819D02*
X13809523Y-61754819D01*
X71846666Y-71574819D02*
X71846666Y-72289104D01*
X71846666Y-72289104D02*
X71799047Y-72431961D01*
X71799047Y-72431961D02*
X71703809Y-72527200D01*
X71703809Y-72527200D02*
X71560952Y-72574819D01*
X71560952Y-72574819D02*
X71465714Y-72574819D01*
X72751428Y-71574819D02*
X72560952Y-71574819D01*
X72560952Y-71574819D02*
X72465714Y-71622438D01*
X72465714Y-71622438D02*
X72418095Y-71670057D01*
X72418095Y-71670057D02*
X72322857Y-71812914D01*
X72322857Y-71812914D02*
X72275238Y-72003390D01*
X72275238Y-72003390D02*
X72275238Y-72384342D01*
X72275238Y-72384342D02*
X72322857Y-72479580D01*
X72322857Y-72479580D02*
X72370476Y-72527200D01*
X72370476Y-72527200D02*
X72465714Y-72574819D01*
X72465714Y-72574819D02*
X72656190Y-72574819D01*
X72656190Y-72574819D02*
X72751428Y-72527200D01*
X72751428Y-72527200D02*
X72799047Y-72479580D01*
X72799047Y-72479580D02*
X72846666Y-72384342D01*
X72846666Y-72384342D02*
X72846666Y-72146247D01*
X72846666Y-72146247D02*
X72799047Y-72051009D01*
X72799047Y-72051009D02*
X72751428Y-72003390D01*
X72751428Y-72003390D02*
X72656190Y-71955771D01*
X72656190Y-71955771D02*
X72465714Y-71955771D01*
X72465714Y-71955771D02*
X72370476Y-72003390D01*
X72370476Y-72003390D02*
X72322857Y-72051009D01*
X72322857Y-72051009D02*
X72275238Y-72146247D01*
X98744819Y-76933333D02*
X99459104Y-76933333D01*
X99459104Y-76933333D02*
X99601961Y-76980952D01*
X99601961Y-76980952D02*
X99697200Y-77076190D01*
X99697200Y-77076190D02*
X99744819Y-77219047D01*
X99744819Y-77219047D02*
X99744819Y-77314285D01*
X98744819Y-76552380D02*
X98744819Y-75885714D01*
X98744819Y-75885714D02*
X99744819Y-76314285D01*
X81104819Y-64342857D02*
X80628628Y-64676190D01*
X81104819Y-64914285D02*
X80104819Y-64914285D01*
X80104819Y-64914285D02*
X80104819Y-64533333D01*
X80104819Y-64533333D02*
X80152438Y-64438095D01*
X80152438Y-64438095D02*
X80200057Y-64390476D01*
X80200057Y-64390476D02*
X80295295Y-64342857D01*
X80295295Y-64342857D02*
X80438152Y-64342857D01*
X80438152Y-64342857D02*
X80533390Y-64390476D01*
X80533390Y-64390476D02*
X80581009Y-64438095D01*
X80581009Y-64438095D02*
X80628628Y-64533333D01*
X80628628Y-64533333D02*
X80628628Y-64914285D01*
X81104819Y-63390476D02*
X81104819Y-63961904D01*
X81104819Y-63676190D02*
X80104819Y-63676190D01*
X80104819Y-63676190D02*
X80247676Y-63771428D01*
X80247676Y-63771428D02*
X80342914Y-63866666D01*
X80342914Y-63866666D02*
X80390533Y-63961904D01*
X80200057Y-63009523D02*
X80152438Y-62961904D01*
X80152438Y-62961904D02*
X80104819Y-62866666D01*
X80104819Y-62866666D02*
X80104819Y-62628571D01*
X80104819Y-62628571D02*
X80152438Y-62533333D01*
X80152438Y-62533333D02*
X80200057Y-62485714D01*
X80200057Y-62485714D02*
X80295295Y-62438095D01*
X80295295Y-62438095D02*
X80390533Y-62438095D01*
X80390533Y-62438095D02*
X80533390Y-62485714D01*
X80533390Y-62485714D02*
X81104819Y-63057142D01*
X81104819Y-63057142D02*
X81104819Y-62438095D01*
X107738095Y-46754819D02*
X107738095Y-45754819D01*
X107738095Y-46231009D02*
X108309523Y-46231009D01*
X108309523Y-46754819D02*
X108309523Y-45754819D01*
X109309523Y-46754819D02*
X108738095Y-46754819D01*
X109023809Y-46754819D02*
X109023809Y-45754819D01*
X109023809Y-45754819D02*
X108928571Y-45897676D01*
X108928571Y-45897676D02*
X108833333Y-45992914D01*
X108833333Y-45992914D02*
X108738095Y-46040533D01*
X55784819Y-32812857D02*
X55308628Y-33146190D01*
X55784819Y-33384285D02*
X54784819Y-33384285D01*
X54784819Y-33384285D02*
X54784819Y-33003333D01*
X54784819Y-33003333D02*
X54832438Y-32908095D01*
X54832438Y-32908095D02*
X54880057Y-32860476D01*
X54880057Y-32860476D02*
X54975295Y-32812857D01*
X54975295Y-32812857D02*
X55118152Y-32812857D01*
X55118152Y-32812857D02*
X55213390Y-32860476D01*
X55213390Y-32860476D02*
X55261009Y-32908095D01*
X55261009Y-32908095D02*
X55308628Y-33003333D01*
X55308628Y-33003333D02*
X55308628Y-33384285D01*
X55784819Y-31860476D02*
X55784819Y-32431904D01*
X55784819Y-32146190D02*
X54784819Y-32146190D01*
X54784819Y-32146190D02*
X54927676Y-32241428D01*
X54927676Y-32241428D02*
X55022914Y-32336666D01*
X55022914Y-32336666D02*
X55070533Y-32431904D01*
X54784819Y-31241428D02*
X54784819Y-31146190D01*
X54784819Y-31146190D02*
X54832438Y-31050952D01*
X54832438Y-31050952D02*
X54880057Y-31003333D01*
X54880057Y-31003333D02*
X54975295Y-30955714D01*
X54975295Y-30955714D02*
X55165771Y-30908095D01*
X55165771Y-30908095D02*
X55403866Y-30908095D01*
X55403866Y-30908095D02*
X55594342Y-30955714D01*
X55594342Y-30955714D02*
X55689580Y-31003333D01*
X55689580Y-31003333D02*
X55737200Y-31050952D01*
X55737200Y-31050952D02*
X55784819Y-31146190D01*
X55784819Y-31146190D02*
X55784819Y-31241428D01*
X55784819Y-31241428D02*
X55737200Y-31336666D01*
X55737200Y-31336666D02*
X55689580Y-31384285D01*
X55689580Y-31384285D02*
X55594342Y-31431904D01*
X55594342Y-31431904D02*
X55403866Y-31479523D01*
X55403866Y-31479523D02*
X55165771Y-31479523D01*
X55165771Y-31479523D02*
X54975295Y-31431904D01*
X54975295Y-31431904D02*
X54880057Y-31384285D01*
X54880057Y-31384285D02*
X54832438Y-31336666D01*
X54832438Y-31336666D02*
X54784819Y-31241428D01*
X72738095Y-45304819D02*
X72738095Y-46114342D01*
X72738095Y-46114342D02*
X72785714Y-46209580D01*
X72785714Y-46209580D02*
X72833333Y-46257200D01*
X72833333Y-46257200D02*
X72928571Y-46304819D01*
X72928571Y-46304819D02*
X73119047Y-46304819D01*
X73119047Y-46304819D02*
X73214285Y-46257200D01*
X73214285Y-46257200D02*
X73261904Y-46209580D01*
X73261904Y-46209580D02*
X73309523Y-46114342D01*
X73309523Y-46114342D02*
X73309523Y-45304819D01*
X73738095Y-45400057D02*
X73785714Y-45352438D01*
X73785714Y-45352438D02*
X73880952Y-45304819D01*
X73880952Y-45304819D02*
X74119047Y-45304819D01*
X74119047Y-45304819D02*
X74214285Y-45352438D01*
X74214285Y-45352438D02*
X74261904Y-45400057D01*
X74261904Y-45400057D02*
X74309523Y-45495295D01*
X74309523Y-45495295D02*
X74309523Y-45590533D01*
X74309523Y-45590533D02*
X74261904Y-45733390D01*
X74261904Y-45733390D02*
X73690476Y-46304819D01*
X73690476Y-46304819D02*
X74309523Y-46304819D01*
X62483333Y-68809580D02*
X62435714Y-68857200D01*
X62435714Y-68857200D02*
X62292857Y-68904819D01*
X62292857Y-68904819D02*
X62197619Y-68904819D01*
X62197619Y-68904819D02*
X62054762Y-68857200D01*
X62054762Y-68857200D02*
X61959524Y-68761961D01*
X61959524Y-68761961D02*
X61911905Y-68666723D01*
X61911905Y-68666723D02*
X61864286Y-68476247D01*
X61864286Y-68476247D02*
X61864286Y-68333390D01*
X61864286Y-68333390D02*
X61911905Y-68142914D01*
X61911905Y-68142914D02*
X61959524Y-68047676D01*
X61959524Y-68047676D02*
X62054762Y-67952438D01*
X62054762Y-67952438D02*
X62197619Y-67904819D01*
X62197619Y-67904819D02*
X62292857Y-67904819D01*
X62292857Y-67904819D02*
X62435714Y-67952438D01*
X62435714Y-67952438D02*
X62483333Y-68000057D01*
X63340476Y-68238152D02*
X63340476Y-68904819D01*
X63102381Y-67857200D02*
X62864286Y-68571485D01*
X62864286Y-68571485D02*
X63483333Y-68571485D01*
X96596666Y-52524819D02*
X96596666Y-53239104D01*
X96596666Y-53239104D02*
X96549047Y-53381961D01*
X96549047Y-53381961D02*
X96453809Y-53477200D01*
X96453809Y-53477200D02*
X96310952Y-53524819D01*
X96310952Y-53524819D02*
X96215714Y-53524819D01*
X97596666Y-53524819D02*
X97025238Y-53524819D01*
X97310952Y-53524819D02*
X97310952Y-52524819D01*
X97310952Y-52524819D02*
X97215714Y-52667676D01*
X97215714Y-52667676D02*
X97120476Y-52762914D01*
X97120476Y-52762914D02*
X97025238Y-52810533D01*
X64658333Y-29124819D02*
X64325000Y-28648628D01*
X64086905Y-29124819D02*
X64086905Y-28124819D01*
X64086905Y-28124819D02*
X64467857Y-28124819D01*
X64467857Y-28124819D02*
X64563095Y-28172438D01*
X64563095Y-28172438D02*
X64610714Y-28220057D01*
X64610714Y-28220057D02*
X64658333Y-28315295D01*
X64658333Y-28315295D02*
X64658333Y-28458152D01*
X64658333Y-28458152D02*
X64610714Y-28553390D01*
X64610714Y-28553390D02*
X64563095Y-28601009D01*
X64563095Y-28601009D02*
X64467857Y-28648628D01*
X64467857Y-28648628D02*
X64086905Y-28648628D01*
X65515476Y-28124819D02*
X65325000Y-28124819D01*
X65325000Y-28124819D02*
X65229762Y-28172438D01*
X65229762Y-28172438D02*
X65182143Y-28220057D01*
X65182143Y-28220057D02*
X65086905Y-28362914D01*
X65086905Y-28362914D02*
X65039286Y-28553390D01*
X65039286Y-28553390D02*
X65039286Y-28934342D01*
X65039286Y-28934342D02*
X65086905Y-29029580D01*
X65086905Y-29029580D02*
X65134524Y-29077200D01*
X65134524Y-29077200D02*
X65229762Y-29124819D01*
X65229762Y-29124819D02*
X65420238Y-29124819D01*
X65420238Y-29124819D02*
X65515476Y-29077200D01*
X65515476Y-29077200D02*
X65563095Y-29029580D01*
X65563095Y-29029580D02*
X65610714Y-28934342D01*
X65610714Y-28934342D02*
X65610714Y-28696247D01*
X65610714Y-28696247D02*
X65563095Y-28601009D01*
X65563095Y-28601009D02*
X65515476Y-28553390D01*
X65515476Y-28553390D02*
X65420238Y-28505771D01*
X65420238Y-28505771D02*
X65229762Y-28505771D01*
X65229762Y-28505771D02*
X65134524Y-28553390D01*
X65134524Y-28553390D02*
X65086905Y-28601009D01*
X65086905Y-28601009D02*
X65039286Y-28696247D01*
X1666667Y-41456819D02*
X1666667Y-40456819D01*
X1666667Y-40456819D02*
X2000000Y-41171104D01*
X2000000Y-41171104D02*
X2333333Y-40456819D01*
X2333333Y-40456819D02*
X2333333Y-41456819D01*
X2809524Y-41456819D02*
X2809524Y-40456819D01*
X2809524Y-40933009D02*
X3380952Y-40933009D01*
X3380952Y-41456819D02*
X3380952Y-40456819D01*
X3809524Y-40552057D02*
X3857143Y-40504438D01*
X3857143Y-40504438D02*
X3952381Y-40456819D01*
X3952381Y-40456819D02*
X4190476Y-40456819D01*
X4190476Y-40456819D02*
X4285714Y-40504438D01*
X4285714Y-40504438D02*
X4333333Y-40552057D01*
X4333333Y-40552057D02*
X4380952Y-40647295D01*
X4380952Y-40647295D02*
X4380952Y-40742533D01*
X4380952Y-40742533D02*
X4333333Y-40885390D01*
X4333333Y-40885390D02*
X3761905Y-41456819D01*
X3761905Y-41456819D02*
X4380952Y-41456819D01*
X75804819Y-32316666D02*
X75328628Y-32649999D01*
X75804819Y-32888094D02*
X74804819Y-32888094D01*
X74804819Y-32888094D02*
X74804819Y-32507142D01*
X74804819Y-32507142D02*
X74852438Y-32411904D01*
X74852438Y-32411904D02*
X74900057Y-32364285D01*
X74900057Y-32364285D02*
X74995295Y-32316666D01*
X74995295Y-32316666D02*
X75138152Y-32316666D01*
X75138152Y-32316666D02*
X75233390Y-32364285D01*
X75233390Y-32364285D02*
X75281009Y-32411904D01*
X75281009Y-32411904D02*
X75328628Y-32507142D01*
X75328628Y-32507142D02*
X75328628Y-32888094D01*
X75138152Y-31459523D02*
X75804819Y-31459523D01*
X74757200Y-31697618D02*
X75471485Y-31935713D01*
X75471485Y-31935713D02*
X75471485Y-31316666D01*
X86438095Y-29602819D02*
X87009523Y-29602819D01*
X86723809Y-30602819D02*
X86723809Y-29602819D01*
X87342857Y-30602819D02*
X87342857Y-29602819D01*
X87342857Y-29602819D02*
X87723809Y-29602819D01*
X87723809Y-29602819D02*
X87819047Y-29650438D01*
X87819047Y-29650438D02*
X87866666Y-29698057D01*
X87866666Y-29698057D02*
X87914285Y-29793295D01*
X87914285Y-29793295D02*
X87914285Y-29936152D01*
X87914285Y-29936152D02*
X87866666Y-30031390D01*
X87866666Y-30031390D02*
X87819047Y-30079009D01*
X87819047Y-30079009D02*
X87723809Y-30126628D01*
X87723809Y-30126628D02*
X87342857Y-30126628D01*
X88866666Y-30602819D02*
X88295238Y-30602819D01*
X88580952Y-30602819D02*
X88580952Y-29602819D01*
X88580952Y-29602819D02*
X88485714Y-29745676D01*
X88485714Y-29745676D02*
X88390476Y-29840914D01*
X88390476Y-29840914D02*
X88295238Y-29888533D01*
X1666667Y-59056819D02*
X1666667Y-58056819D01*
X1666667Y-58056819D02*
X2000000Y-58771104D01*
X2000000Y-58771104D02*
X2333333Y-58056819D01*
X2333333Y-58056819D02*
X2333333Y-59056819D01*
X2809524Y-59056819D02*
X2809524Y-58056819D01*
X2809524Y-58533009D02*
X3380952Y-58533009D01*
X3380952Y-59056819D02*
X3380952Y-58056819D01*
X4285714Y-58390152D02*
X4285714Y-59056819D01*
X4047619Y-58009200D02*
X3809524Y-58723485D01*
X3809524Y-58723485D02*
X4428571Y-58723485D01*
X9666667Y-41456819D02*
X9666667Y-40456819D01*
X9666667Y-40456819D02*
X10000000Y-41171104D01*
X10000000Y-41171104D02*
X10333333Y-40456819D01*
X10333333Y-40456819D02*
X10333333Y-41456819D01*
X10809524Y-41456819D02*
X10809524Y-40456819D01*
X10809524Y-40933009D02*
X11380952Y-40933009D01*
X11380952Y-41456819D02*
X11380952Y-40456819D01*
X11761905Y-40456819D02*
X12380952Y-40456819D01*
X12380952Y-40456819D02*
X12047619Y-40837771D01*
X12047619Y-40837771D02*
X12190476Y-40837771D01*
X12190476Y-40837771D02*
X12285714Y-40885390D01*
X12285714Y-40885390D02*
X12333333Y-40933009D01*
X12333333Y-40933009D02*
X12380952Y-41028247D01*
X12380952Y-41028247D02*
X12380952Y-41266342D01*
X12380952Y-41266342D02*
X12333333Y-41361580D01*
X12333333Y-41361580D02*
X12285714Y-41409200D01*
X12285714Y-41409200D02*
X12190476Y-41456819D01*
X12190476Y-41456819D02*
X11904762Y-41456819D01*
X11904762Y-41456819D02*
X11809524Y-41409200D01*
X11809524Y-41409200D02*
X11761905Y-41361580D01*
X85683333Y-39604819D02*
X85350000Y-39128628D01*
X85111905Y-39604819D02*
X85111905Y-38604819D01*
X85111905Y-38604819D02*
X85492857Y-38604819D01*
X85492857Y-38604819D02*
X85588095Y-38652438D01*
X85588095Y-38652438D02*
X85635714Y-38700057D01*
X85635714Y-38700057D02*
X85683333Y-38795295D01*
X85683333Y-38795295D02*
X85683333Y-38938152D01*
X85683333Y-38938152D02*
X85635714Y-39033390D01*
X85635714Y-39033390D02*
X85588095Y-39081009D01*
X85588095Y-39081009D02*
X85492857Y-39128628D01*
X85492857Y-39128628D02*
X85111905Y-39128628D01*
X86254762Y-39033390D02*
X86159524Y-38985771D01*
X86159524Y-38985771D02*
X86111905Y-38938152D01*
X86111905Y-38938152D02*
X86064286Y-38842914D01*
X86064286Y-38842914D02*
X86064286Y-38795295D01*
X86064286Y-38795295D02*
X86111905Y-38700057D01*
X86111905Y-38700057D02*
X86159524Y-38652438D01*
X86159524Y-38652438D02*
X86254762Y-38604819D01*
X86254762Y-38604819D02*
X86445238Y-38604819D01*
X86445238Y-38604819D02*
X86540476Y-38652438D01*
X86540476Y-38652438D02*
X86588095Y-38700057D01*
X86588095Y-38700057D02*
X86635714Y-38795295D01*
X86635714Y-38795295D02*
X86635714Y-38842914D01*
X86635714Y-38842914D02*
X86588095Y-38938152D01*
X86588095Y-38938152D02*
X86540476Y-38985771D01*
X86540476Y-38985771D02*
X86445238Y-39033390D01*
X86445238Y-39033390D02*
X86254762Y-39033390D01*
X86254762Y-39033390D02*
X86159524Y-39081009D01*
X86159524Y-39081009D02*
X86111905Y-39128628D01*
X86111905Y-39128628D02*
X86064286Y-39223866D01*
X86064286Y-39223866D02*
X86064286Y-39414342D01*
X86064286Y-39414342D02*
X86111905Y-39509580D01*
X86111905Y-39509580D02*
X86159524Y-39557200D01*
X86159524Y-39557200D02*
X86254762Y-39604819D01*
X86254762Y-39604819D02*
X86445238Y-39604819D01*
X86445238Y-39604819D02*
X86540476Y-39557200D01*
X86540476Y-39557200D02*
X86588095Y-39509580D01*
X86588095Y-39509580D02*
X86635714Y-39414342D01*
X86635714Y-39414342D02*
X86635714Y-39223866D01*
X86635714Y-39223866D02*
X86588095Y-39128628D01*
X86588095Y-39128628D02*
X86540476Y-39081009D01*
X86540476Y-39081009D02*
X86445238Y-39033390D01*
X77238095Y-61554819D02*
X77238095Y-62364342D01*
X77238095Y-62364342D02*
X77285714Y-62459580D01*
X77285714Y-62459580D02*
X77333333Y-62507200D01*
X77333333Y-62507200D02*
X77428571Y-62554819D01*
X77428571Y-62554819D02*
X77619047Y-62554819D01*
X77619047Y-62554819D02*
X77714285Y-62507200D01*
X77714285Y-62507200D02*
X77761904Y-62459580D01*
X77761904Y-62459580D02*
X77809523Y-62364342D01*
X77809523Y-62364342D02*
X77809523Y-61554819D01*
X78809523Y-62554819D02*
X78238095Y-62554819D01*
X78523809Y-62554819D02*
X78523809Y-61554819D01*
X78523809Y-61554819D02*
X78428571Y-61697676D01*
X78428571Y-61697676D02*
X78333333Y-61792914D01*
X78333333Y-61792914D02*
X78238095Y-61840533D01*
X77983333Y-21359580D02*
X77935714Y-21407200D01*
X77935714Y-21407200D02*
X77792857Y-21454819D01*
X77792857Y-21454819D02*
X77697619Y-21454819D01*
X77697619Y-21454819D02*
X77554762Y-21407200D01*
X77554762Y-21407200D02*
X77459524Y-21311961D01*
X77459524Y-21311961D02*
X77411905Y-21216723D01*
X77411905Y-21216723D02*
X77364286Y-21026247D01*
X77364286Y-21026247D02*
X77364286Y-20883390D01*
X77364286Y-20883390D02*
X77411905Y-20692914D01*
X77411905Y-20692914D02*
X77459524Y-20597676D01*
X77459524Y-20597676D02*
X77554762Y-20502438D01*
X77554762Y-20502438D02*
X77697619Y-20454819D01*
X77697619Y-20454819D02*
X77792857Y-20454819D01*
X77792857Y-20454819D02*
X77935714Y-20502438D01*
X77935714Y-20502438D02*
X77983333Y-20550057D01*
X78364286Y-20550057D02*
X78411905Y-20502438D01*
X78411905Y-20502438D02*
X78507143Y-20454819D01*
X78507143Y-20454819D02*
X78745238Y-20454819D01*
X78745238Y-20454819D02*
X78840476Y-20502438D01*
X78840476Y-20502438D02*
X78888095Y-20550057D01*
X78888095Y-20550057D02*
X78935714Y-20645295D01*
X78935714Y-20645295D02*
X78935714Y-20740533D01*
X78935714Y-20740533D02*
X78888095Y-20883390D01*
X78888095Y-20883390D02*
X78316667Y-21454819D01*
X78316667Y-21454819D02*
X78935714Y-21454819D01*
X59646666Y-67414819D02*
X59646666Y-68129104D01*
X59646666Y-68129104D02*
X59599047Y-68271961D01*
X59599047Y-68271961D02*
X59503809Y-68367200D01*
X59503809Y-68367200D02*
X59360952Y-68414819D01*
X59360952Y-68414819D02*
X59265714Y-68414819D01*
X60551428Y-67748152D02*
X60551428Y-68414819D01*
X60313333Y-67367200D02*
X60075238Y-68081485D01*
X60075238Y-68081485D02*
X60694285Y-68081485D01*
X9266667Y-35754819D02*
X9266667Y-34754819D01*
X9266667Y-34754819D02*
X9600000Y-35469104D01*
X9600000Y-35469104D02*
X9933333Y-34754819D01*
X9933333Y-34754819D02*
X9933333Y-35754819D01*
X10409524Y-35754819D02*
X10409524Y-34754819D01*
X10409524Y-35231009D02*
X10980952Y-35231009D01*
X10980952Y-35754819D02*
X10980952Y-34754819D01*
X11980952Y-35754819D02*
X11409524Y-35754819D01*
X11695238Y-35754819D02*
X11695238Y-34754819D01*
X11695238Y-34754819D02*
X11600000Y-34897676D01*
X11600000Y-34897676D02*
X11504762Y-34992914D01*
X11504762Y-34992914D02*
X11409524Y-35040533D01*
X82533333Y-37654819D02*
X82200000Y-37178628D01*
X81961905Y-37654819D02*
X81961905Y-36654819D01*
X81961905Y-36654819D02*
X82342857Y-36654819D01*
X82342857Y-36654819D02*
X82438095Y-36702438D01*
X82438095Y-36702438D02*
X82485714Y-36750057D01*
X82485714Y-36750057D02*
X82533333Y-36845295D01*
X82533333Y-36845295D02*
X82533333Y-36988152D01*
X82533333Y-36988152D02*
X82485714Y-37083390D01*
X82485714Y-37083390D02*
X82438095Y-37131009D01*
X82438095Y-37131009D02*
X82342857Y-37178628D01*
X82342857Y-37178628D02*
X81961905Y-37178628D01*
X83009524Y-37654819D02*
X83200000Y-37654819D01*
X83200000Y-37654819D02*
X83295238Y-37607200D01*
X83295238Y-37607200D02*
X83342857Y-37559580D01*
X83342857Y-37559580D02*
X83438095Y-37416723D01*
X83438095Y-37416723D02*
X83485714Y-37226247D01*
X83485714Y-37226247D02*
X83485714Y-36845295D01*
X83485714Y-36845295D02*
X83438095Y-36750057D01*
X83438095Y-36750057D02*
X83390476Y-36702438D01*
X83390476Y-36702438D02*
X83295238Y-36654819D01*
X83295238Y-36654819D02*
X83104762Y-36654819D01*
X83104762Y-36654819D02*
X83009524Y-36702438D01*
X83009524Y-36702438D02*
X82961905Y-36750057D01*
X82961905Y-36750057D02*
X82914286Y-36845295D01*
X82914286Y-36845295D02*
X82914286Y-37083390D01*
X82914286Y-37083390D02*
X82961905Y-37178628D01*
X82961905Y-37178628D02*
X83009524Y-37226247D01*
X83009524Y-37226247D02*
X83104762Y-37273866D01*
X83104762Y-37273866D02*
X83295238Y-37273866D01*
X83295238Y-37273866D02*
X83390476Y-37226247D01*
X83390476Y-37226247D02*
X83438095Y-37178628D01*
X83438095Y-37178628D02*
X83485714Y-37083390D01*
X85583333Y-44694819D02*
X85250000Y-44218628D01*
X85011905Y-44694819D02*
X85011905Y-43694819D01*
X85011905Y-43694819D02*
X85392857Y-43694819D01*
X85392857Y-43694819D02*
X85488095Y-43742438D01*
X85488095Y-43742438D02*
X85535714Y-43790057D01*
X85535714Y-43790057D02*
X85583333Y-43885295D01*
X85583333Y-43885295D02*
X85583333Y-44028152D01*
X85583333Y-44028152D02*
X85535714Y-44123390D01*
X85535714Y-44123390D02*
X85488095Y-44171009D01*
X85488095Y-44171009D02*
X85392857Y-44218628D01*
X85392857Y-44218628D02*
X85011905Y-44218628D01*
X85916667Y-43694819D02*
X86583333Y-43694819D01*
X86583333Y-43694819D02*
X86154762Y-44694819D01*
X65483333Y-27104819D02*
X65150000Y-26628628D01*
X64911905Y-27104819D02*
X64911905Y-26104819D01*
X64911905Y-26104819D02*
X65292857Y-26104819D01*
X65292857Y-26104819D02*
X65388095Y-26152438D01*
X65388095Y-26152438D02*
X65435714Y-26200057D01*
X65435714Y-26200057D02*
X65483333Y-26295295D01*
X65483333Y-26295295D02*
X65483333Y-26438152D01*
X65483333Y-26438152D02*
X65435714Y-26533390D01*
X65435714Y-26533390D02*
X65388095Y-26581009D01*
X65388095Y-26581009D02*
X65292857Y-26628628D01*
X65292857Y-26628628D02*
X64911905Y-26628628D01*
X65816667Y-26104819D02*
X66435714Y-26104819D01*
X66435714Y-26104819D02*
X66102381Y-26485771D01*
X66102381Y-26485771D02*
X66245238Y-26485771D01*
X66245238Y-26485771D02*
X66340476Y-26533390D01*
X66340476Y-26533390D02*
X66388095Y-26581009D01*
X66388095Y-26581009D02*
X66435714Y-26676247D01*
X66435714Y-26676247D02*
X66435714Y-26914342D01*
X66435714Y-26914342D02*
X66388095Y-27009580D01*
X66388095Y-27009580D02*
X66340476Y-27057200D01*
X66340476Y-27057200D02*
X66245238Y-27104819D01*
X66245238Y-27104819D02*
X65959524Y-27104819D01*
X65959524Y-27104819D02*
X65864286Y-27057200D01*
X65864286Y-27057200D02*
X65816667Y-27009580D01*
X55420833Y-59524819D02*
X55087500Y-59048628D01*
X54849405Y-59524819D02*
X54849405Y-58524819D01*
X54849405Y-58524819D02*
X55230357Y-58524819D01*
X55230357Y-58524819D02*
X55325595Y-58572438D01*
X55325595Y-58572438D02*
X55373214Y-58620057D01*
X55373214Y-58620057D02*
X55420833Y-58715295D01*
X55420833Y-58715295D02*
X55420833Y-58858152D01*
X55420833Y-58858152D02*
X55373214Y-58953390D01*
X55373214Y-58953390D02*
X55325595Y-59001009D01*
X55325595Y-59001009D02*
X55230357Y-59048628D01*
X55230357Y-59048628D02*
X54849405Y-59048628D01*
X55801786Y-58620057D02*
X55849405Y-58572438D01*
X55849405Y-58572438D02*
X55944643Y-58524819D01*
X55944643Y-58524819D02*
X56182738Y-58524819D01*
X56182738Y-58524819D02*
X56277976Y-58572438D01*
X56277976Y-58572438D02*
X56325595Y-58620057D01*
X56325595Y-58620057D02*
X56373214Y-58715295D01*
X56373214Y-58715295D02*
X56373214Y-58810533D01*
X56373214Y-58810533D02*
X56325595Y-58953390D01*
X56325595Y-58953390D02*
X55754167Y-59524819D01*
X55754167Y-59524819D02*
X56373214Y-59524819D01*
X64638095Y-56264819D02*
X65209523Y-56264819D01*
X64923809Y-57264819D02*
X64923809Y-56264819D01*
X65542857Y-57264819D02*
X65542857Y-56264819D01*
X65542857Y-56264819D02*
X65923809Y-56264819D01*
X65923809Y-56264819D02*
X66019047Y-56312438D01*
X66019047Y-56312438D02*
X66066666Y-56360057D01*
X66066666Y-56360057D02*
X66114285Y-56455295D01*
X66114285Y-56455295D02*
X66114285Y-56598152D01*
X66114285Y-56598152D02*
X66066666Y-56693390D01*
X66066666Y-56693390D02*
X66019047Y-56741009D01*
X66019047Y-56741009D02*
X65923809Y-56788628D01*
X65923809Y-56788628D02*
X65542857Y-56788628D01*
X66971428Y-56598152D02*
X66971428Y-57264819D01*
X66733333Y-56217200D02*
X66495238Y-56931485D01*
X66495238Y-56931485D02*
X67114285Y-56931485D01*
X81516666Y-31954819D02*
X81516666Y-32669104D01*
X81516666Y-32669104D02*
X81469047Y-32811961D01*
X81469047Y-32811961D02*
X81373809Y-32907200D01*
X81373809Y-32907200D02*
X81230952Y-32954819D01*
X81230952Y-32954819D02*
X81135714Y-32954819D01*
X82469047Y-31954819D02*
X81992857Y-31954819D01*
X81992857Y-31954819D02*
X81945238Y-32431009D01*
X81945238Y-32431009D02*
X81992857Y-32383390D01*
X81992857Y-32383390D02*
X82088095Y-32335771D01*
X82088095Y-32335771D02*
X82326190Y-32335771D01*
X82326190Y-32335771D02*
X82421428Y-32383390D01*
X82421428Y-32383390D02*
X82469047Y-32431009D01*
X82469047Y-32431009D02*
X82516666Y-32526247D01*
X82516666Y-32526247D02*
X82516666Y-32764342D01*
X82516666Y-32764342D02*
X82469047Y-32859580D01*
X82469047Y-32859580D02*
X82421428Y-32907200D01*
X82421428Y-32907200D02*
X82326190Y-32954819D01*
X82326190Y-32954819D02*
X82088095Y-32954819D01*
X82088095Y-32954819D02*
X81992857Y-32907200D01*
X81992857Y-32907200D02*
X81945238Y-32859580D01*
X5966667Y-66456819D02*
X5966667Y-65456819D01*
X5966667Y-65456819D02*
X6300000Y-66171104D01*
X6300000Y-66171104D02*
X6633333Y-65456819D01*
X6633333Y-65456819D02*
X6633333Y-66456819D01*
X7109524Y-66456819D02*
X7109524Y-65456819D01*
X7109524Y-65933009D02*
X7680952Y-65933009D01*
X7680952Y-66456819D02*
X7680952Y-65456819D01*
X8585714Y-65456819D02*
X8395238Y-65456819D01*
X8395238Y-65456819D02*
X8300000Y-65504438D01*
X8300000Y-65504438D02*
X8252381Y-65552057D01*
X8252381Y-65552057D02*
X8157143Y-65694914D01*
X8157143Y-65694914D02*
X8109524Y-65885390D01*
X8109524Y-65885390D02*
X8109524Y-66266342D01*
X8109524Y-66266342D02*
X8157143Y-66361580D01*
X8157143Y-66361580D02*
X8204762Y-66409200D01*
X8204762Y-66409200D02*
X8300000Y-66456819D01*
X8300000Y-66456819D02*
X8490476Y-66456819D01*
X8490476Y-66456819D02*
X8585714Y-66409200D01*
X8585714Y-66409200D02*
X8633333Y-66361580D01*
X8633333Y-66361580D02*
X8680952Y-66266342D01*
X8680952Y-66266342D02*
X8680952Y-66028247D01*
X8680952Y-66028247D02*
X8633333Y-65933009D01*
X8633333Y-65933009D02*
X8585714Y-65885390D01*
X8585714Y-65885390D02*
X8490476Y-65837771D01*
X8490476Y-65837771D02*
X8300000Y-65837771D01*
X8300000Y-65837771D02*
X8204762Y-65885390D01*
X8204762Y-65885390D02*
X8157143Y-65933009D01*
X8157143Y-65933009D02*
X8109524Y-66028247D01*
X86338095Y-35602819D02*
X86909523Y-35602819D01*
X86623809Y-36602819D02*
X86623809Y-35602819D01*
X87242857Y-36602819D02*
X87242857Y-35602819D01*
X87242857Y-35602819D02*
X87623809Y-35602819D01*
X87623809Y-35602819D02*
X87719047Y-35650438D01*
X87719047Y-35650438D02*
X87766666Y-35698057D01*
X87766666Y-35698057D02*
X87814285Y-35793295D01*
X87814285Y-35793295D02*
X87814285Y-35936152D01*
X87814285Y-35936152D02*
X87766666Y-36031390D01*
X87766666Y-36031390D02*
X87719047Y-36079009D01*
X87719047Y-36079009D02*
X87623809Y-36126628D01*
X87623809Y-36126628D02*
X87242857Y-36126628D01*
X88147619Y-35602819D02*
X88766666Y-35602819D01*
X88766666Y-35602819D02*
X88433333Y-35983771D01*
X88433333Y-35983771D02*
X88576190Y-35983771D01*
X88576190Y-35983771D02*
X88671428Y-36031390D01*
X88671428Y-36031390D02*
X88719047Y-36079009D01*
X88719047Y-36079009D02*
X88766666Y-36174247D01*
X88766666Y-36174247D02*
X88766666Y-36412342D01*
X88766666Y-36412342D02*
X88719047Y-36507580D01*
X88719047Y-36507580D02*
X88671428Y-36555200D01*
X88671428Y-36555200D02*
X88576190Y-36602819D01*
X88576190Y-36602819D02*
X88290476Y-36602819D01*
X88290476Y-36602819D02*
X88195238Y-36555200D01*
X88195238Y-36555200D02*
X88147619Y-36507580D01*
X65133333Y-46109580D02*
X65085714Y-46157200D01*
X65085714Y-46157200D02*
X64942857Y-46204819D01*
X64942857Y-46204819D02*
X64847619Y-46204819D01*
X64847619Y-46204819D02*
X64704762Y-46157200D01*
X64704762Y-46157200D02*
X64609524Y-46061961D01*
X64609524Y-46061961D02*
X64561905Y-45966723D01*
X64561905Y-45966723D02*
X64514286Y-45776247D01*
X64514286Y-45776247D02*
X64514286Y-45633390D01*
X64514286Y-45633390D02*
X64561905Y-45442914D01*
X64561905Y-45442914D02*
X64609524Y-45347676D01*
X64609524Y-45347676D02*
X64704762Y-45252438D01*
X64704762Y-45252438D02*
X64847619Y-45204819D01*
X64847619Y-45204819D02*
X64942857Y-45204819D01*
X64942857Y-45204819D02*
X65085714Y-45252438D01*
X65085714Y-45252438D02*
X65133333Y-45300057D01*
X65466667Y-45204819D02*
X66085714Y-45204819D01*
X66085714Y-45204819D02*
X65752381Y-45585771D01*
X65752381Y-45585771D02*
X65895238Y-45585771D01*
X65895238Y-45585771D02*
X65990476Y-45633390D01*
X65990476Y-45633390D02*
X66038095Y-45681009D01*
X66038095Y-45681009D02*
X66085714Y-45776247D01*
X66085714Y-45776247D02*
X66085714Y-46014342D01*
X66085714Y-46014342D02*
X66038095Y-46109580D01*
X66038095Y-46109580D02*
X65990476Y-46157200D01*
X65990476Y-46157200D02*
X65895238Y-46204819D01*
X65895238Y-46204819D02*
X65609524Y-46204819D01*
X65609524Y-46204819D02*
X65514286Y-46157200D01*
X65514286Y-46157200D02*
X65466667Y-46109580D01*
X63379580Y-28616666D02*
X63427200Y-28664285D01*
X63427200Y-28664285D02*
X63474819Y-28807142D01*
X63474819Y-28807142D02*
X63474819Y-28902380D01*
X63474819Y-28902380D02*
X63427200Y-29045237D01*
X63427200Y-29045237D02*
X63331961Y-29140475D01*
X63331961Y-29140475D02*
X63236723Y-29188094D01*
X63236723Y-29188094D02*
X63046247Y-29235713D01*
X63046247Y-29235713D02*
X62903390Y-29235713D01*
X62903390Y-29235713D02*
X62712914Y-29188094D01*
X62712914Y-29188094D02*
X62617676Y-29140475D01*
X62617676Y-29140475D02*
X62522438Y-29045237D01*
X62522438Y-29045237D02*
X62474819Y-28902380D01*
X62474819Y-28902380D02*
X62474819Y-28807142D01*
X62474819Y-28807142D02*
X62522438Y-28664285D01*
X62522438Y-28664285D02*
X62570057Y-28616666D01*
X63474819Y-27664285D02*
X63474819Y-28235713D01*
X63474819Y-27949999D02*
X62474819Y-27949999D01*
X62474819Y-27949999D02*
X62617676Y-28045237D01*
X62617676Y-28045237D02*
X62712914Y-28140475D01*
X62712914Y-28140475D02*
X62760533Y-28235713D01*
X86154583Y-61584819D02*
X85821250Y-61108628D01*
X85583155Y-61584819D02*
X85583155Y-60584819D01*
X85583155Y-60584819D02*
X85964107Y-60584819D01*
X85964107Y-60584819D02*
X86059345Y-60632438D01*
X86059345Y-60632438D02*
X86106964Y-60680057D01*
X86106964Y-60680057D02*
X86154583Y-60775295D01*
X86154583Y-60775295D02*
X86154583Y-60918152D01*
X86154583Y-60918152D02*
X86106964Y-61013390D01*
X86106964Y-61013390D02*
X86059345Y-61061009D01*
X86059345Y-61061009D02*
X85964107Y-61108628D01*
X85964107Y-61108628D02*
X85583155Y-61108628D01*
X87059345Y-60584819D02*
X86583155Y-60584819D01*
X86583155Y-60584819D02*
X86535536Y-61061009D01*
X86535536Y-61061009D02*
X86583155Y-61013390D01*
X86583155Y-61013390D02*
X86678393Y-60965771D01*
X86678393Y-60965771D02*
X86916488Y-60965771D01*
X86916488Y-60965771D02*
X87011726Y-61013390D01*
X87011726Y-61013390D02*
X87059345Y-61061009D01*
X87059345Y-61061009D02*
X87106964Y-61156247D01*
X87106964Y-61156247D02*
X87106964Y-61394342D01*
X87106964Y-61394342D02*
X87059345Y-61489580D01*
X87059345Y-61489580D02*
X87011726Y-61537200D01*
X87011726Y-61537200D02*
X86916488Y-61584819D01*
X86916488Y-61584819D02*
X86678393Y-61584819D01*
X86678393Y-61584819D02*
X86583155Y-61537200D01*
X86583155Y-61537200D02*
X86535536Y-61489580D01*
X15066666Y-43424819D02*
X15066666Y-44139104D01*
X15066666Y-44139104D02*
X15019047Y-44281961D01*
X15019047Y-44281961D02*
X14923809Y-44377200D01*
X14923809Y-44377200D02*
X14780952Y-44424819D01*
X14780952Y-44424819D02*
X14685714Y-44424819D01*
X15447619Y-43424819D02*
X16066666Y-43424819D01*
X16066666Y-43424819D02*
X15733333Y-43805771D01*
X15733333Y-43805771D02*
X15876190Y-43805771D01*
X15876190Y-43805771D02*
X15971428Y-43853390D01*
X15971428Y-43853390D02*
X16019047Y-43901009D01*
X16019047Y-43901009D02*
X16066666Y-43996247D01*
X16066666Y-43996247D02*
X16066666Y-44234342D01*
X16066666Y-44234342D02*
X16019047Y-44329580D01*
X16019047Y-44329580D02*
X15971428Y-44377200D01*
X15971428Y-44377200D02*
X15876190Y-44424819D01*
X15876190Y-44424819D02*
X15590476Y-44424819D01*
X15590476Y-44424819D02*
X15495238Y-44377200D01*
X15495238Y-44377200D02*
X15447619Y-44329580D01*
X86388095Y-24656819D02*
X86959523Y-24656819D01*
X86673809Y-25656819D02*
X86673809Y-24656819D01*
X87292857Y-25656819D02*
X87292857Y-24656819D01*
X87292857Y-24656819D02*
X87673809Y-24656819D01*
X87673809Y-24656819D02*
X87769047Y-24704438D01*
X87769047Y-24704438D02*
X87816666Y-24752057D01*
X87816666Y-24752057D02*
X87864285Y-24847295D01*
X87864285Y-24847295D02*
X87864285Y-24990152D01*
X87864285Y-24990152D02*
X87816666Y-25085390D01*
X87816666Y-25085390D02*
X87769047Y-25133009D01*
X87769047Y-25133009D02*
X87673809Y-25180628D01*
X87673809Y-25180628D02*
X87292857Y-25180628D01*
X88245238Y-24752057D02*
X88292857Y-24704438D01*
X88292857Y-24704438D02*
X88388095Y-24656819D01*
X88388095Y-24656819D02*
X88626190Y-24656819D01*
X88626190Y-24656819D02*
X88721428Y-24704438D01*
X88721428Y-24704438D02*
X88769047Y-24752057D01*
X88769047Y-24752057D02*
X88816666Y-24847295D01*
X88816666Y-24847295D02*
X88816666Y-24942533D01*
X88816666Y-24942533D02*
X88769047Y-25085390D01*
X88769047Y-25085390D02*
X88197619Y-25656819D01*
X88197619Y-25656819D02*
X88816666Y-25656819D01*
D12*
%TO.C,R13*%
X75907500Y-72324724D02*
X75907500Y-71815276D01*
X76952500Y-72324724D02*
X76952500Y-71815276D01*
%TO.C,Q2*%
X73400000Y-67720000D02*
X72750000Y-67720000D01*
X73400000Y-67720000D02*
X74050000Y-67720000D01*
X73400000Y-70840000D02*
X72750000Y-70840000D01*
X73400000Y-70840000D02*
X74050000Y-70840000D01*
X72237500Y-67770000D02*
X71997500Y-67440000D01*
X72477500Y-67440000D01*
X72237500Y-67770000D01*
G36*
X72237500Y-67770000D02*
G01*
X71997500Y-67440000D01*
X72477500Y-67440000D01*
X72237500Y-67770000D01*
G37*
%TO.C,D3*%
X78765000Y-72875000D02*
X78765000Y-70415000D01*
X77295000Y-70415000D02*
X77295000Y-72875000D01*
X78765000Y-70415000D02*
X77295000Y-70415000D01*
%TO.C,C10*%
X84840000Y-65358767D02*
X84840000Y-65066233D01*
X85860000Y-65358767D02*
X85860000Y-65066233D01*
%TO.C,C9*%
X57335000Y-25988748D02*
X57335000Y-26511252D01*
X55865000Y-25988748D02*
X55865000Y-26511252D01*
%TO.C,C8*%
X99531233Y-52860000D02*
X99823767Y-52860000D01*
X99531233Y-53880000D02*
X99823767Y-53880000D01*
%TO.C,C7*%
X84011248Y-22175000D02*
X84533752Y-22175000D01*
X84011248Y-23645000D02*
X84533752Y-23645000D01*
%TO.C,J11*%
X78270000Y-28130000D02*
X78270000Y-22990000D01*
X80930000Y-22990000D02*
X78270000Y-22990000D01*
X80930000Y-28130000D02*
X78270000Y-28130000D01*
X80930000Y-28130000D02*
X80930000Y-22990000D01*
X80930000Y-29400000D02*
X80930000Y-30730000D01*
X80930000Y-30730000D02*
X79600000Y-30730000D01*
%TO.C,J10*%
X5870000Y-48830000D02*
X5870000Y-59050000D01*
X5870000Y-48830000D02*
X8530000Y-48830000D01*
X5870000Y-59050000D02*
X8530000Y-59050000D01*
X7200000Y-46230000D02*
X8530000Y-46230000D01*
X8530000Y-46230000D02*
X8530000Y-47560000D01*
X8530000Y-48830000D02*
X8530000Y-59050000D01*
%TO.C,C6*%
X86648752Y-55585000D02*
X86126248Y-55585000D01*
X86648752Y-54115000D02*
X86126248Y-54115000D01*
%TO.C,Q1*%
X76490000Y-27740000D02*
X76010000Y-27740000D01*
X76250000Y-27410000D01*
X76490000Y-27740000D01*
G36*
X76490000Y-27740000D02*
G01*
X76010000Y-27740000D01*
X76250000Y-27410000D01*
X76490000Y-27740000D01*
G37*
X75087500Y-24340000D02*
X74437500Y-24340000D01*
X75087500Y-24340000D02*
X75737500Y-24340000D01*
X75087500Y-27460000D02*
X74437500Y-27460000D01*
X75087500Y-27460000D02*
X75737500Y-27460000D01*
%TO.C,J9*%
X68820000Y-23545000D02*
X70150000Y-23545000D01*
X68820000Y-24875000D02*
X68820000Y-23545000D01*
X68820000Y-26145000D02*
X68820000Y-28745000D01*
X68820000Y-26145000D02*
X71480000Y-26145000D01*
X68820000Y-28745000D02*
X71480000Y-28745000D01*
X71480000Y-26145000D02*
X71480000Y-28745000D01*
%TO.C,J8*%
X90635000Y-63850000D02*
X93235000Y-63850000D01*
X93235000Y-66510000D02*
X93235000Y-63850000D01*
X90635000Y-66510000D02*
X90635000Y-63850000D01*
X90635000Y-66510000D02*
X93235000Y-66510000D01*
X89365000Y-66510000D02*
X88035000Y-66510000D01*
X88035000Y-66510000D02*
X88035000Y-65180000D01*
%TO.C,C5*%
X65646267Y-60710000D02*
X65353733Y-60710000D01*
X65646267Y-59690000D02*
X65353733Y-59690000D01*
%TO.C,R11*%
X65095276Y-66222500D02*
X65604724Y-66222500D01*
X65095276Y-65177500D02*
X65604724Y-65177500D01*
%TO.C,D2*%
X66485000Y-32435000D02*
X66485000Y-30965000D01*
X66485000Y-30965000D02*
X64025000Y-30965000D01*
X64025000Y-32435000D02*
X66485000Y-32435000D01*
%TO.C,U4*%
X64750000Y-72210000D02*
X66050000Y-72210000D01*
X66050000Y-69090000D02*
X64780000Y-69090000D01*
X64400000Y-69140000D02*
X64160000Y-68810000D01*
X64640000Y-68810000D01*
X64400000Y-69140000D01*
G36*
X64400000Y-69140000D02*
G01*
X64160000Y-68810000D01*
X64640000Y-68810000D01*
X64400000Y-69140000D01*
G37*
%TO.C,R1*%
X55357776Y-65077500D02*
X55867224Y-65077500D01*
X55357776Y-66122500D02*
X55867224Y-66122500D01*
%TO.C,J2*%
X89140000Y-51760000D02*
X89140000Y-25640000D01*
X91200000Y-49700000D02*
X91200000Y-51760000D01*
X91200000Y-51760000D02*
X89140000Y-51760000D01*
X93260000Y-25640000D02*
X89140000Y-25640000D01*
X93260000Y-49700000D02*
X91200000Y-49700000D01*
X93260000Y-49700000D02*
X93260000Y-25640000D01*
X93260000Y-50700000D02*
X93260000Y-51760000D01*
X93260000Y-51760000D02*
X92200000Y-51760000D01*
%TO.C,D1*%
X91481250Y-60435000D02*
X91481250Y-58965000D01*
X91481250Y-58965000D02*
X89021250Y-58965000D01*
X89021250Y-60435000D02*
X91481250Y-60435000D01*
%TO.C,MH5*%
X12200000Y-61100000D02*
G75*
G02*
X9800000Y-61100000I-1200000J0D01*
G01*
X9800000Y-61100000D02*
G75*
G02*
X12200000Y-61100000I1200000J0D01*
G01*
%TO.C,J6*%
X67920000Y-69560000D02*
X67920000Y-64420000D01*
X70580000Y-64420000D02*
X67920000Y-64420000D01*
X70580000Y-69560000D02*
X67920000Y-69560000D01*
X70580000Y-69560000D02*
X70580000Y-64420000D01*
X70580000Y-70830000D02*
X70580000Y-72160000D01*
X70580000Y-72160000D02*
X69250000Y-72160000D01*
%TO.C,J7*%
X100290000Y-77930000D02*
X100290000Y-76600000D01*
X101620000Y-77930000D02*
X100290000Y-77930000D01*
X102890000Y-75270000D02*
X110570000Y-75270000D01*
X102890000Y-77930000D02*
X102890000Y-75270000D01*
X102890000Y-77930000D02*
X110570000Y-77930000D01*
X110570000Y-77930000D02*
X110570000Y-75270000D01*
%TO.C,R12*%
X80177500Y-60754724D02*
X80177500Y-60245276D01*
X81222500Y-60754724D02*
X81222500Y-60245276D01*
%TO.C,R10*%
X57332500Y-31882776D02*
X57332500Y-32392224D01*
X56287500Y-31882776D02*
X56287500Y-32392224D01*
%TO.C,U2*%
X77360000Y-45010000D02*
X77360000Y-44775000D01*
X77360000Y-31990000D02*
X77360000Y-32225000D01*
X73500000Y-45010000D02*
X77360000Y-45010000D01*
X73500000Y-45010000D02*
X69640000Y-45010000D01*
X73500000Y-31990000D02*
X77360000Y-31990000D01*
X73500000Y-31990000D02*
X69640000Y-31990000D01*
X69640000Y-45010000D02*
X69640000Y-44775000D01*
X69640000Y-31990000D02*
X69640000Y-32225000D01*
X78552500Y-45245000D02*
X77872500Y-45245000D01*
X78212500Y-44775000D01*
X78552500Y-45245000D01*
G36*
X78552500Y-45245000D02*
G01*
X77872500Y-45245000D01*
X78212500Y-44775000D01*
X78552500Y-45245000D01*
G37*
%TO.C,C4*%
X65446267Y-67340000D02*
X65153733Y-67340000D01*
X65446267Y-68360000D02*
X65153733Y-68360000D01*
%TO.C,J1*%
X99310000Y-51760000D02*
X98250000Y-51760000D01*
X99310000Y-50700000D02*
X99310000Y-51760000D01*
X99310000Y-49700000D02*
X99310000Y-25640000D01*
X99310000Y-49700000D02*
X97250000Y-49700000D01*
X99310000Y-25640000D02*
X95190000Y-25640000D01*
X97250000Y-51760000D02*
X95190000Y-51760000D01*
X97250000Y-49700000D02*
X97250000Y-51760000D01*
X95190000Y-51760000D02*
X95190000Y-25640000D01*
%TO.C,R6*%
X64570276Y-29577500D02*
X65079724Y-29577500D01*
X64570276Y-30622500D02*
X65079724Y-30622500D01*
%TO.C,MH2*%
X4200000Y-43500000D02*
G75*
G02*
X1800000Y-43500000I-1200000J0D01*
G01*
X1800000Y-43500000D02*
G75*
G02*
X4200000Y-43500000I1200000J0D01*
G01*
%TO.C,R4*%
X74927500Y-29804724D02*
X74927500Y-29295276D01*
X75972500Y-29804724D02*
X75972500Y-29295276D01*
%TO.C,TP1*%
X88400000Y-28700000D02*
G75*
G02*
X87000000Y-28700000I-700000J0D01*
G01*
X87000000Y-28700000D02*
G75*
G02*
X88400000Y-28700000I700000J0D01*
G01*
%TO.C,MH4*%
X4200000Y-61100000D02*
G75*
G02*
X1800000Y-61100000I-1200000J0D01*
G01*
X1800000Y-61100000D02*
G75*
G02*
X4200000Y-61100000I1200000J0D01*
G01*
%TO.C,MH3*%
X12200000Y-43500000D02*
G75*
G02*
X9800000Y-43500000I-1200000J0D01*
G01*
X9800000Y-43500000D02*
G75*
G02*
X12200000Y-43500000I1200000J0D01*
G01*
%TO.C,R8*%
X86954724Y-41222500D02*
X86445276Y-41222500D01*
X86954724Y-40177500D02*
X86445276Y-40177500D01*
%TO.C,U1*%
X78402500Y-61120000D02*
X77722500Y-61120000D01*
X78062500Y-60650000D01*
X78402500Y-61120000D01*
G36*
X78402500Y-61120000D02*
G01*
X77722500Y-61120000D01*
X78062500Y-60650000D01*
X78402500Y-61120000D01*
G37*
X69490000Y-47865000D02*
X69490000Y-48100000D01*
X69490000Y-60885000D02*
X69490000Y-60650000D01*
X73350000Y-47865000D02*
X69490000Y-47865000D01*
X73350000Y-47865000D02*
X77210000Y-47865000D01*
X73350000Y-60885000D02*
X69490000Y-60885000D01*
X73350000Y-60885000D02*
X77210000Y-60885000D01*
X77210000Y-47865000D02*
X77210000Y-48100000D01*
X77210000Y-60885000D02*
X77210000Y-60650000D01*
%TO.C,C2*%
X74763748Y-22975000D02*
X75286252Y-22975000D01*
X74763748Y-21505000D02*
X75286252Y-21505000D01*
%TO.C,J4*%
X58650000Y-64360000D02*
X58650000Y-23660000D01*
X61310000Y-23660000D02*
X58650000Y-23660000D01*
X61310000Y-64360000D02*
X58650000Y-64360000D01*
X61310000Y-64360000D02*
X61310000Y-23660000D01*
X61310000Y-65630000D02*
X61310000Y-66960000D01*
X61310000Y-66960000D02*
X59980000Y-66960000D01*
%TO.C,MH1*%
X8600000Y-36100000D02*
G75*
G02*
X6000000Y-36100000I-1300000J0D01*
G01*
X6000000Y-36100000D02*
G75*
G02*
X8600000Y-36100000I1300000J0D01*
G01*
%TO.C,R9*%
X82104724Y-36272500D02*
X81595276Y-36272500D01*
X82104724Y-35227500D02*
X81595276Y-35227500D01*
%TO.C,R7*%
X86954724Y-43222500D02*
X86445276Y-43222500D01*
X86954724Y-42177500D02*
X86445276Y-42177500D01*
%TO.C,R3*%
X66029724Y-25692500D02*
X65520276Y-25692500D01*
X66029724Y-24647500D02*
X65520276Y-24647500D01*
%TO.C,R2*%
X55332776Y-59977500D02*
X55842224Y-59977500D01*
X55332776Y-61022500D02*
X55842224Y-61022500D01*
%TO.C,TP4*%
X66760000Y-58320000D02*
G75*
G02*
X65360000Y-58320000I-700000J0D01*
G01*
X65360000Y-58320000D02*
G75*
G02*
X66760000Y-58320000I700000J0D01*
G01*
%TO.C,J5*%
X85930000Y-33970000D02*
X84600000Y-33970000D01*
X85930000Y-32640000D02*
X85930000Y-33970000D01*
X85930000Y-31370000D02*
X85930000Y-26230000D01*
X85930000Y-31370000D02*
X83270000Y-31370000D01*
X85930000Y-26230000D02*
X83270000Y-26230000D01*
X83270000Y-31370000D02*
X83270000Y-26230000D01*
%TO.C,MH6*%
X8500000Y-68500000D02*
G75*
G02*
X6100000Y-68500000I-1200000J0D01*
G01*
X6100000Y-68500000D02*
G75*
G02*
X8500000Y-68500000I1200000J0D01*
G01*
%TO.C,TP3*%
X88300000Y-34700000D02*
G75*
G02*
X86900000Y-34700000I-700000J0D01*
G01*
X86900000Y-34700000D02*
G75*
G02*
X88300000Y-34700000I700000J0D01*
G01*
%TO.C,C3*%
X65446267Y-44830000D02*
X65153733Y-44830000D01*
X65446267Y-43810000D02*
X65153733Y-43810000D01*
%TO.C,C1*%
X63510000Y-25953733D02*
X63510000Y-26246267D01*
X62490000Y-25953733D02*
X62490000Y-26246267D01*
%TO.C,R5*%
X86575974Y-60222500D02*
X86066526Y-60222500D01*
X86575974Y-59177500D02*
X86066526Y-59177500D01*
%TO.C,J3*%
X16730000Y-39930000D02*
X16730000Y-29710000D01*
X16730000Y-39930000D02*
X14070000Y-39930000D01*
X16730000Y-29710000D02*
X14070000Y-29710000D01*
X15400000Y-42530000D02*
X14070000Y-42530000D01*
X14070000Y-42530000D02*
X14070000Y-41200000D01*
X14070000Y-39930000D02*
X14070000Y-29710000D01*
%TO.C,TP2*%
X88350000Y-26650000D02*
G75*
G02*
X86950000Y-26650000I-700000J0D01*
G01*
X86950000Y-26650000D02*
G75*
G02*
X88350000Y-26650000I700000J0D01*
G01*
%TD*%
M02*
