M48
; DRILL file {KiCad 8.0.8+dfsg-1} date 2025-02-21T17:28:05+0000
; FORMAT={-:-/ absolute / metric / decimal}
; #@! TF.CreationDate,2025-02-21T17:28:05+00:00
; #@! TF.GenerationSoftware,Kicad,Pcbnew,8.0.8+dfsg-1
; #@! TF.FileFunction,Plated,1,2,PTH
FMAT,2
METRIC
; #@! TA.AperFunction,Plated,PTH,ViaDrill
T1C0.500
; #@! TA.AperFunction,Plated,PTH,ComponentDrill
T2C0.800
; #@! TA.AperFunction,Plated,PTH,ComponentDrill
T3C1.000
; #@! TA.AperFunction,Plated,PTH,ComponentDrill
T4C1.500
; #@! TA.AperFunction,Plated,PTH,ComponentDrill
T5C1.600
; #@! TA.AperFunction,Plated,PTH,ComponentDrill
T6C2.500
; #@! TA.AperFunction,Plated,PTH,ComponentDrill
T7C3.500
%
G90
G05
T1
X56.6Y-28.37
X56.81Y-34.038
X63.25Y-69.9
X63.29Y-44.29
X63.5Y-60.2
X63.713Y-67.383
X64.1Y-26.95
X66.95Y-31.7
X70.42Y-49.04
X70.7Y-42.89
X71.95Y-57.54
X77.35Y-22.25
X78.03Y-70.06
X79.74Y-32.76
X79.8Y-48.6
X79.8Y-51.2
X79.98Y-35.76
X80.7Y-58.2
X82.33Y-55.788
X82.45Y-57.1
X83.841Y-35.738
X83.98Y-42.7
X84.18Y-54.85
X84.22Y-51.67
X84.23Y-40.7
X84.44Y-47.53
X85.35Y-63.29
X86.41Y-22.9
X91.921Y-59.7
X101.75Y-53.37
T2
X90.2Y-26.7
X90.2Y-28.7
X90.2Y-30.7
X90.2Y-32.7
X90.2Y-34.7
X90.2Y-36.7
X90.2Y-38.7
X90.2Y-40.7
X90.2Y-42.7
X90.2Y-44.7
X90.2Y-46.7
X90.2Y-48.7
X90.2Y-50.7
X92.2Y-26.7
X92.2Y-28.7
X92.2Y-30.7
X92.2Y-32.7
X92.2Y-34.7
X92.2Y-36.7
X92.2Y-38.7
X92.2Y-40.7
X92.2Y-42.7
X92.2Y-44.7
X92.2Y-46.7
X92.2Y-48.7
X92.2Y-50.7
X96.25Y-26.7
X96.25Y-28.7
X96.25Y-30.7
X96.25Y-32.7
X96.25Y-34.7
X96.25Y-36.7
X96.25Y-38.7
X96.25Y-40.7
X96.25Y-42.7
X96.25Y-44.7
X96.25Y-46.7
X96.25Y-48.7
X96.25Y-50.7
X98.25Y-26.7
X98.25Y-28.7
X98.25Y-30.7
X98.25Y-32.7
X98.25Y-34.7
X98.25Y-36.7
X98.25Y-38.7
X98.25Y-40.7
X98.25Y-42.7
X98.25Y-44.7
X98.25Y-46.7
X98.25Y-48.7
X98.25Y-50.7
T3
X7.2Y-47.56
X7.2Y-50.1
X7.2Y-52.64
X7.2Y-55.18
X7.2Y-57.72
X15.4Y-31.04
X15.4Y-33.58
X15.4Y-36.12
X15.4Y-38.66
X15.4Y-41.2
X59.98Y-24.99
X59.98Y-27.53
X59.98Y-30.07
X59.98Y-32.61
X59.98Y-35.15
X59.98Y-37.69
X59.98Y-40.23
X59.98Y-42.77
X59.98Y-45.31
X59.98Y-47.85
X59.98Y-50.39
X59.98Y-52.93
X59.98Y-55.47
X59.98Y-58.01
X59.98Y-60.55
X59.98Y-63.09
X59.98Y-65.63
X69.25Y-65.75
X69.25Y-68.29
X69.25Y-70.83
X70.15Y-24.875
X70.15Y-27.415
X79.6Y-24.32
X79.6Y-26.86
X79.6Y-29.4
X84.6Y-27.56
X84.6Y-30.1
X84.6Y-32.64
X89.365Y-65.18
X91.905Y-65.18
X101.62Y-76.6
X104.16Y-76.6
X106.7Y-76.6
X109.24Y-76.6
T4
X3.0Y-43.5
X3.0Y-61.1
X7.3Y-68.5
X11.0Y-43.5
X11.0Y-61.1
T5
X7.3Y-36.1
T6
X108.5Y-49.8
T7
X13.0Y-65.8
M30
